<svg width="107" height="105" viewBox="0 0 107 105" fill="none" xmlns="http://www.w3.org/2000/svg">
<path d="M80 65C80 87.0914 62.0914 105 40 105C17.9086 105 0 87.0914 0 65C0 42.9086 17.9086 25 40 25C62.0914 25 80 42.9086 80 65ZM17.1766 65C17.1766 77.605 27.395 87.8234 40 87.8234C52.605 87.8234 62.8234 77.605 62.8234 65C62.8234 52.395 52.605 42.1766 40 42.1766C27.395 42.1766 17.1766 52.395 17.1766 65Z" fill="#29648A"/>
<ellipse cx="79.5" cy="25" rx="25.5" ry="25" fill="#C0AA5E"/>
<path d="M63.4312 32H60.75V21.665L57.5493 22.6577V20.4775L63.1436 18.4736H63.4312V32ZM76.9204 26.415C76.9204 28.2829 76.5339 29.7116 75.7607 30.7012C74.9876 31.6908 73.8558 32.1855 72.3652 32.1855C70.8932 32.1855 69.7676 31.7 68.9883 30.729C68.209 29.758 67.8101 28.3664 67.7915 26.5542V24.0679C67.7915 22.1815 68.1812 20.7497 68.9604 19.7725C69.7459 18.7952 70.8747 18.3066 72.3467 18.3066C73.8187 18.3066 74.9443 18.7922 75.7236 19.7632C76.5029 20.728 76.9019 22.1165 76.9204 23.9287V26.415ZM74.2393 23.6875C74.2393 22.568 74.0846 21.7547 73.7754 21.2476C73.4723 20.7342 72.9961 20.4775 72.3467 20.4775C71.7158 20.4775 71.2489 20.7218 70.9458 21.2104C70.6489 21.6929 70.4912 22.4505 70.4727 23.4834V26.7676C70.4727 27.8685 70.6211 28.688 70.918 29.2261C71.221 29.758 71.7035 30.0239 72.3652 30.0239C73.0208 30.0239 73.494 29.7673 73.7847 29.2539C74.0754 28.7406 74.2269 27.9551 74.2393 26.8975V23.6875ZM87.8306 26.415C87.8306 28.2829 87.444 29.7116 86.6709 30.7012C85.8978 31.6908 84.766 32.1855 83.2754 32.1855C81.8034 32.1855 80.6777 31.7 79.8984 30.729C79.1191 29.758 78.7202 28.3664 78.7017 26.5542V24.0679C78.7017 22.1815 79.0913 20.7497 79.8706 19.7725C80.6561 18.7952 81.7848 18.3066 83.2568 18.3066C84.7288 18.3066 85.8545 18.7922 86.6338 19.7632C87.4131 20.728 87.812 22.1165 87.8306 23.9287V26.415ZM85.1494 23.6875C85.1494 22.568 84.9948 21.7547 84.6855 21.2476C84.3825 20.7342 83.9062 20.4775 83.2568 20.4775C82.626 20.4775 82.159 20.7218 81.856 21.2104C81.5591 21.6929 81.4014 22.4505 81.3828 23.4834V26.7676C81.3828 27.8685 81.5312 28.688 81.8281 29.2261C82.1312 29.758 82.6136 30.0239 83.2754 30.0239C83.931 30.0239 84.4041 29.7673 84.6948 29.2539C84.9855 28.7406 85.137 27.9551 85.1494 26.8975V23.6875ZM89.6118 21.0898C89.6118 20.2611 89.8809 19.59 90.4189 19.0767C90.957 18.5571 91.6621 18.2974 92.5342 18.2974C93.4186 18.2974 94.1299 18.554 94.668 19.0674C95.2061 19.5745 95.4751 20.2642 95.4751 21.1362V21.8042C95.4751 22.6392 95.2061 23.3102 94.668 23.8174C94.1299 24.3245 93.4248 24.5781 92.5527 24.5781C91.6745 24.5781 90.9632 24.3245 90.4189 23.8174C89.8809 23.304 89.6118 22.6144 89.6118 21.7485V21.0898ZM91.3931 21.8042C91.3931 22.1753 91.4982 22.4753 91.7085 22.7041C91.925 22.9268 92.2064 23.0381 92.5527 23.0381C92.8991 23.0381 93.1743 22.9237 93.3784 22.6948C93.5825 22.466 93.6846 22.1598 93.6846 21.7764V21.0898C93.6846 20.7188 93.5825 20.4188 93.3784 20.1899C93.1743 19.9611 92.8929 19.8467 92.5342 19.8467C92.194 19.8467 91.9188 19.9611 91.7085 20.1899C91.4982 20.4126 91.3931 20.7249 91.3931 21.127V21.8042ZM96.0688 28.688C96.0688 27.853 96.341 27.182 96.8853 26.6748C97.4295 26.1615 98.1346 25.9048 99.0005 25.9048C99.8787 25.9048 100.587 26.1584 101.125 26.6655C101.669 27.1665 101.941 27.8592 101.941 28.7437V29.4116C101.941 30.2404 101.675 30.9115 101.144 31.4248C100.612 31.932 99.9035 32.1855 99.019 32.1855C98.1284 32.1855 97.4141 31.9289 96.876 31.4155C96.3379 30.9022 96.0688 30.2218 96.0688 29.3745V28.688ZM97.8501 29.4116C97.8501 29.7518 97.9614 30.0425 98.1841 30.2837C98.4067 30.5249 98.6851 30.6455 99.019 30.6455C99.7736 30.6455 100.151 30.228 100.151 29.3931V28.688C100.151 28.3169 100.046 28.02 99.8354 27.7974C99.6252 27.5685 99.3468 27.4541 99.0005 27.4541C98.6541 27.4541 98.3758 27.5685 98.1655 27.7974C97.9552 28.02 97.8501 28.3262 97.8501 28.7158V29.4116ZM93.0815 30.9888L91.7734 30.2837L98.3696 19.7261L99.6777 20.4312L93.0815 30.9888Z" fill="#29648A"/>
</svg>
