<svg width="127" height="114" viewBox="0 0 127 114" fill="none" xmlns="http://www.w3.org/2000/svg">
<path d="M56.9198 97.2597C62.1719 97.1737 67.3557 96.0541 72.1752 93.9647C76.9947 91.8753 81.3554 88.8572 85.0085 85.0825C88.6615 81.3079 91.5353 76.8507 93.4658 71.9654C95.3963 67.0801 96.3457 61.8625 96.2597 56.6103C96.1737 51.3581 95.0541 46.1743 92.9647 41.3548C90.8754 36.5354 87.8572 32.1746 84.0825 28.5216C80.3079 24.8685 75.8507 21.9947 70.9654 20.0642C66.0801 18.1338 60.8625 17.1844 55.6103 17.2704L55.8915 34.4447C58.8883 34.3956 61.8654 34.9373 64.6529 36.0388C67.4403 37.1403 69.9836 38.78 72.1373 40.8644C74.2911 42.9488 76.0132 45.437 77.2053 48.1869C78.3975 50.9368 79.0363 53.8946 79.0854 56.8914C79.1345 59.8883 78.5928 62.8654 77.4913 65.6529C76.3898 68.4403 74.75 70.9835 72.6656 73.1373C70.5813 75.2911 68.0931 77.0132 65.3432 78.2053C62.5932 79.3975 59.6354 80.0363 56.6386 80.0854L56.9198 97.2597Z" fill="#29648A"/>
<path d="M57.0369 97.4177C51.7847 97.4984 46.568 96.5438 41.6846 94.6084C36.8013 92.673 32.347 89.7947 28.576 86.1379C24.805 82.481 21.7913 78.1173 19.7067 73.2957C17.6222 68.4741 16.5078 63.2892 16.4271 58.0369C16.3464 52.7847 17.301 47.568 19.2364 42.6846C21.1718 37.8013 24.0501 33.347 27.7069 29.576C31.3637 25.805 35.7275 22.7913 40.5491 20.7067C45.3706 18.6222 50.5556 17.5078 55.8078 17.4271L56.0717 34.6016C53.0749 34.6477 50.1164 35.2836 47.3653 36.473C44.6142 37.6624 42.1243 39.382 40.0377 41.5336C37.9512 43.6853 36.3089 46.2269 35.2046 49.0132C34.1003 51.7996 33.5556 54.7762 33.6016 57.773C33.6477 60.7699 34.2836 63.7283 35.473 66.4795C36.6624 69.2306 38.382 71.7205 40.5336 73.807C42.6853 75.8936 45.2269 77.5359 48.0132 78.6402C50.7996 79.7445 53.7762 80.2892 56.773 80.2431L57.0369 97.4177Z" fill="#29648A" fill-opacity="0.6"/>
<ellipse cx="101.5" cy="25" rx="25.5" ry="25" fill="#C0AA5E"/>
<path d="M85.2715 24.3086L86.1738 16.3594H94.9395V18.9482H88.7197L88.333 22.3105C89.0706 21.9167 89.8548 21.7197 90.6855 21.7197C92.1751 21.7197 93.3424 22.1816 94.1875 23.1055C95.0326 24.0293 95.4551 25.3219 95.4551 26.9834C95.4551 27.9932 95.2402 28.8991 94.8105 29.7012C94.388 30.4961 93.7793 31.1156 92.9844 31.5596C92.1895 31.9964 91.2513 32.2148 90.1699 32.2148C89.2246 32.2148 88.3473 32.0251 87.5381 31.6455C86.7288 31.2588 86.0879 30.7181 85.6152 30.0234C85.1497 29.3288 84.9027 28.5374 84.874 27.6494H87.9463C88.0107 28.3011 88.2363 28.8096 88.623 29.1748C89.0169 29.5329 89.529 29.7119 90.1592 29.7119C90.861 29.7119 91.4017 29.4613 91.7812 28.96C92.1608 28.4515 92.3506 27.7354 92.3506 26.8115C92.3506 25.9235 92.1322 25.2432 91.6953 24.7705C91.2585 24.2979 90.639 24.0615 89.8369 24.0615C89.0993 24.0615 88.5013 24.2549 88.043 24.6416L87.7422 24.9209L85.2715 24.3086ZM107.97 25.5332C107.97 27.696 107.522 29.3503 106.627 30.4961C105.732 31.6419 104.421 32.2148 102.695 32.2148C100.991 32.2148 99.6875 31.6527 98.7852 30.5283C97.8828 29.404 97.4209 27.7926 97.3994 25.6943V22.8154C97.3994 20.6312 97.8506 18.9733 98.7529 17.8418C99.6624 16.7103 100.969 16.1445 102.674 16.1445C104.378 16.1445 105.682 16.7067 106.584 17.8311C107.486 18.9482 107.948 20.556 107.97 22.6543V25.5332ZM104.865 22.375C104.865 21.0788 104.686 20.137 104.328 19.5498C103.977 18.9554 103.426 18.6582 102.674 18.6582C101.943 18.6582 101.403 18.9411 101.052 19.5068C100.708 20.0654 100.525 20.9427 100.504 22.1387V25.9414C100.504 27.2161 100.676 28.165 101.02 28.7881C101.37 29.404 101.929 29.7119 102.695 29.7119C103.454 29.7119 104.002 29.4147 104.339 28.8203C104.675 28.2259 104.851 27.3164 104.865 26.0918V22.375ZM110.032 19.3672C110.032 18.4076 110.344 17.6305 110.967 17.0361C111.59 16.4346 112.406 16.1338 113.416 16.1338C114.44 16.1338 115.264 16.431 115.887 17.0254C116.51 17.6126 116.821 18.4111 116.821 19.4209V20.1943C116.821 21.1611 116.51 21.9382 115.887 22.5254C115.264 23.1126 114.447 23.4062 113.438 23.4062C112.421 23.4062 111.597 23.1126 110.967 22.5254C110.344 21.931 110.032 21.1325 110.032 20.1299V19.3672ZM112.095 20.1943C112.095 20.624 112.216 20.9714 112.46 21.2363C112.711 21.4941 113.036 21.623 113.438 21.623C113.839 21.623 114.157 21.4906 114.394 21.2256C114.63 20.9606 114.748 20.6061 114.748 20.1621V19.3672C114.748 18.9375 114.63 18.5902 114.394 18.3252C114.157 18.0602 113.831 17.9277 113.416 17.9277C113.022 17.9277 112.703 18.0602 112.46 18.3252C112.216 18.583 112.095 18.9447 112.095 19.4102V20.1943ZM117.509 28.165C117.509 27.1982 117.824 26.4212 118.454 25.834C119.084 25.2396 119.901 24.9424 120.903 24.9424C121.92 24.9424 122.74 25.236 123.363 25.8232C123.993 26.4033 124.309 27.2054 124.309 28.2295V29.0029C124.309 29.9626 124.001 30.7396 123.385 31.334C122.769 31.9212 121.949 32.2148 120.925 32.2148C119.894 32.2148 119.066 31.9176 118.443 31.3232C117.82 30.7288 117.509 29.9411 117.509 28.96V28.165ZM119.571 29.0029C119.571 29.3968 119.7 29.7334 119.958 30.0127C120.216 30.292 120.538 30.4316 120.925 30.4316C121.799 30.4316 122.235 29.9482 122.235 28.9814V28.165C122.235 27.7354 122.114 27.3916 121.87 27.1338C121.627 26.8688 121.304 26.7363 120.903 26.7363C120.502 26.7363 120.18 26.8688 119.937 27.1338C119.693 27.3916 119.571 27.7461 119.571 28.1973V29.0029ZM114.05 30.8291L112.535 30.0127L120.173 17.7881L121.688 18.6045L114.05 30.8291Z" fill="#29648A"/>
</svg>
