<svg width="131" height="127" viewBox="0 0 131 127" fill="none" xmlns="http://www.w3.org/2000/svg">
<path d="M60.4261 23.6798C53.0513 24.0847 45.9327 26.5237 39.859 30.7263C33.7854 34.929 28.9939 40.7312 26.0157 47.4899C23.0374 54.2487 21.9885 61.7001 22.9854 69.0184C23.9823 76.3367 26.986 83.2361 31.6635 88.952L44.9564 78.0739C42.2875 74.8125 40.5736 70.8758 40.0048 66.7001C39.436 62.5244 40.0345 58.2727 41.7338 54.4162C43.4332 50.5598 46.1671 47.2491 49.6327 44.8512C53.0982 42.4532 57.16 41.0616 61.3679 40.8305L60.4261 23.6798Z" fill="#29648A" fill-opacity="0.6"/>
<path d="M31.6737 88.896C35.9973 94.2013 41.6099 98.3084 47.9746 100.825C54.3392 103.341 61.2431 104.182 68.0257 103.267C74.8083 102.353 81.2428 99.7134 86.7137 95.6013C92.1847 91.4893 96.509 86.0423 99.2732 79.7813C102.037 73.5203 103.149 66.6549 102.501 59.8416C101.854 53.0283 99.4688 46.4951 95.5748 40.8669C91.6807 35.2388 86.4076 30.7039 80.26 27.6961C74.1124 24.6883 67.2959 23.3081 60.4624 23.6877L61.415 40.8378C65.314 40.6213 69.2035 41.4087 72.7112 43.125C76.2189 44.8412 79.2277 47.4287 81.4496 50.6401C83.6715 53.8514 85.0323 57.5792 85.4017 61.4667C85.7712 65.3543 85.137 69.2716 83.5598 72.844C81.9827 76.4164 79.5152 79.5244 76.3936 81.8707C73.272 84.217 69.6005 85.7231 65.7305 86.2449C61.8604 86.7667 57.9212 86.2868 54.2896 84.8511C50.658 83.4154 47.4556 81.0719 44.9885 78.0447L31.6737 88.896Z" fill="#29648A"/>
<ellipse cx="105.5" cy="25" rx="25.5" ry="25" fill="#C0AA5E"/>
<path d="M94.2314 16.1982V18.7549H93.9307C92.527 18.7764 91.3955 19.1416 90.5361 19.8506C89.6839 20.5596 89.1719 21.5443 89 22.8047C89.8307 21.9596 90.8799 21.5371 92.1475 21.5371C93.5081 21.5371 94.5895 22.0241 95.3916 22.998C96.1937 23.972 96.5947 25.2539 96.5947 26.8438C96.5947 27.8607 96.3727 28.7809 95.9287 29.6045C95.4919 30.4281 94.8688 31.069 94.0596 31.5273C93.2575 31.9857 92.348 32.2148 91.3311 32.2148C89.6839 32.2148 88.3519 31.6419 87.335 30.4961C86.3252 29.3503 85.8203 27.8213 85.8203 25.9092V24.792C85.8203 23.0947 86.139 21.598 86.7764 20.3018C87.4209 18.9984 88.3411 17.9922 89.5371 17.2832C90.7402 16.5671 92.1331 16.2054 93.7158 16.1982H94.2314ZM91.2021 24.0293C90.7008 24.0293 90.2461 24.1618 89.8379 24.4268C89.4297 24.6846 89.1289 25.0283 88.9355 25.458V26.4033C88.9355 27.4417 89.1396 28.2546 89.5479 28.8418C89.9561 29.4219 90.529 29.7119 91.2666 29.7119C91.9326 29.7119 92.4697 29.4505 92.8779 28.9277C93.2933 28.3978 93.501 27.7139 93.501 26.876C93.501 26.0238 93.2933 25.3363 92.8779 24.8135C92.4626 24.2907 91.904 24.0293 91.2021 24.0293ZM98.9043 24.3086L99.8066 16.3594H108.572V18.9482H102.353L101.966 22.3105C102.703 21.9167 103.488 21.7197 104.318 21.7197C105.808 21.7197 106.975 22.1816 107.82 23.1055C108.665 24.0293 109.088 25.3219 109.088 26.9834C109.088 27.9932 108.873 28.8991 108.443 29.7012C108.021 30.4961 107.412 31.1156 106.617 31.5596C105.822 31.9964 104.884 32.2148 103.803 32.2148C102.857 32.2148 101.98 32.0251 101.171 31.6455C100.362 31.2588 99.7207 30.7181 99.248 30.0234C98.7826 29.3288 98.5355 28.5374 98.5068 27.6494H101.579C101.644 28.3011 101.869 28.8096 102.256 29.1748C102.65 29.5329 103.162 29.7119 103.792 29.7119C104.494 29.7119 105.035 29.4613 105.414 28.96C105.794 28.4515 105.983 27.7354 105.983 26.8115C105.983 25.9235 105.765 25.2432 105.328 24.7705C104.891 24.2979 104.272 24.0615 103.47 24.0615C102.732 24.0615 102.134 24.2549 101.676 24.6416L101.375 24.9209L98.9043 24.3086ZM111.032 19.3672C111.032 18.4076 111.344 17.6305 111.967 17.0361C112.59 16.4346 113.406 16.1338 114.416 16.1338C115.44 16.1338 116.264 16.431 116.887 17.0254C117.51 17.6126 117.821 18.4111 117.821 19.4209V20.1943C117.821 21.1611 117.51 21.9382 116.887 22.5254C116.264 23.1126 115.447 23.4062 114.438 23.4062C113.421 23.4062 112.597 23.1126 111.967 22.5254C111.344 21.931 111.032 21.1325 111.032 20.1299V19.3672ZM113.095 20.1943C113.095 20.624 113.216 20.9714 113.46 21.2363C113.711 21.4941 114.036 21.623 114.438 21.623C114.839 21.623 115.157 21.4906 115.394 21.2256C115.63 20.9606 115.748 20.6061 115.748 20.1621V19.3672C115.748 18.9375 115.63 18.5902 115.394 18.3252C115.157 18.0602 114.831 17.9277 114.416 17.9277C114.022 17.9277 113.703 18.0602 113.46 18.3252C113.216 18.583 113.095 18.9447 113.095 19.4102V20.1943ZM118.509 28.165C118.509 27.1982 118.824 26.4212 119.454 25.834C120.084 25.2396 120.901 24.9424 121.903 24.9424C122.92 24.9424 123.74 25.236 124.363 25.8232C124.993 26.4033 125.309 27.2054 125.309 28.2295V29.0029C125.309 29.9626 125.001 30.7396 124.385 31.334C123.769 31.9212 122.949 32.2148 121.925 32.2148C120.894 32.2148 120.066 31.9176 119.443 31.3232C118.82 30.7288 118.509 29.9411 118.509 28.96V28.165ZM120.571 29.0029C120.571 29.3968 120.7 29.7334 120.958 30.0127C121.216 30.292 121.538 30.4316 121.925 30.4316C122.799 30.4316 123.235 29.9482 123.235 28.9814V28.165C123.235 27.7354 123.114 27.3916 122.87 27.1338C122.627 26.8688 122.304 26.7363 121.903 26.7363C121.502 26.7363 121.18 26.8688 120.937 27.1338C120.693 27.3916 120.571 27.7461 120.571 28.1973V29.0029ZM115.05 30.8291L113.535 30.0127L121.173 17.7881L122.688 18.6045L115.05 30.8291Z" fill="#29648A"/>
</svg>
