<svg width="122" height="119" viewBox="0 0 122 119" fill="none" xmlns="http://www.w3.org/2000/svg">
<path d="M53.3894 103.937C61.0445 104.255 68.6296 102.367 75.2429 98.4986C81.8562 94.6303 87.2195 88.944 90.6948 82.116C94.1702 75.288 95.6115 67.6055 94.8474 59.9821C94.0833 52.3587 91.1458 45.1151 86.3844 39.1128C81.6229 33.1104 75.2378 28.6017 67.9883 26.1229C60.7388 23.6441 52.9298 23.2995 45.4901 25.13C38.0504 26.9605 31.2929 30.8891 26.0212 36.4486C20.7494 42.0082 17.1853 48.9648 15.7525 56.4913L32.6261 59.7034C33.4436 55.4089 35.4772 51.4396 38.4852 48.2674C41.4932 45.0952 45.3489 42.8535 49.5939 41.8091C53.8389 40.7646 58.2946 40.9613 62.431 42.3757C66.5675 43.79 70.2108 46.3626 72.9276 49.7875C75.6444 53.2124 77.3205 57.3454 77.7565 61.6952C78.1925 66.045 77.3701 70.4285 75.3871 74.3245C73.4041 78.2205 70.3439 81.465 66.5704 83.6722C62.797 85.8794 58.469 86.9565 54.1012 86.7754L53.3894 103.937Z" fill="#29648A"/>
<path d="M15.8015 56.5239C14.7105 62.1947 14.8603 68.0345 16.2406 73.6419C17.6209 79.2493 20.199 84.4914 23.7977 89.0077C27.3964 93.5241 31.9303 97.2078 37.0879 99.8055C42.2455 102.403 47.9043 103.853 53.6756 104.056L54.2791 86.8903C50.9862 86.7745 47.7573 85.947 44.8145 84.4648C41.8716 82.9826 39.2846 80.8808 37.2313 78.3038C35.1779 75.7268 33.7069 72.7358 32.9193 69.5363C32.1317 66.3368 32.0462 63.0047 32.6687 59.769L15.8015 56.5239Z" fill="#29648A" fill-opacity="0.6"/>
<ellipse cx="96.5" cy="25" rx="25.5" ry="25" fill="#C0AA5E"/>
<path d="M88.9444 18.0996L82.8965 32H79.6201L85.6787 18.873H77.9014V16.3594H88.9444V18.0996ZM101.47 25.5332C101.47 27.696 101.022 29.3503 100.127 30.4961C99.2318 31.6419 97.9212 32.2148 96.1953 32.2148C94.4909 32.2148 93.1875 31.6527 92.2852 30.5283C91.3828 29.404 90.9209 27.7926 90.8994 25.6943V22.8154C90.8994 20.6312 91.3506 18.9733 92.253 17.8418C93.1625 16.7103 94.4694 16.1445 96.1739 16.1445C97.8783 16.1445 99.1817 16.7067 100.084 17.8311C100.986 18.9482 101.448 20.556 101.47 22.6543V25.5332ZM98.3653 22.375C98.3653 21.0788 98.1862 20.137 97.8281 19.5498C97.4772 18.9554 96.9258 18.6582 96.1739 18.6582C95.4434 18.6582 94.9027 18.9411 94.5518 19.5068C94.208 20.0654 94.0254 20.9427 94.0039 22.1387V25.9414C94.0039 27.2161 94.1758 28.165 94.5196 28.7881C94.8705 29.404 95.4291 29.7119 96.1953 29.7119C96.9544 29.7119 97.5023 29.4147 97.8389 28.8203C98.1755 28.2259 98.3509 27.3164 98.3653 26.0918V22.375ZM103.532 19.3672C103.532 18.4076 103.844 17.6305 104.467 17.0361C105.09 16.4346 105.906 16.1338 106.916 16.1338C107.94 16.1338 108.764 16.431 109.387 17.0254C110.01 17.6126 110.321 18.4111 110.321 19.4209V20.1943C110.321 21.1611 110.01 21.9382 109.387 22.5254C108.764 23.1126 107.947 23.4062 106.938 23.4062C105.921 23.4062 105.097 23.1126 104.467 22.5254C103.844 21.931 103.532 21.1325 103.532 20.1299V19.3672ZM105.595 20.1943C105.595 20.624 105.716 20.9714 105.96 21.2363C106.211 21.4941 106.536 21.623 106.938 21.623C107.339 21.623 107.657 21.4906 107.894 21.2256C108.13 20.9606 108.248 20.6061 108.248 20.1621V19.3672C108.248 18.9375 108.13 18.5902 107.894 18.3252C107.657 18.0602 107.331 17.9277 106.916 17.9277C106.522 17.9277 106.203 18.0602 105.96 18.3252C105.716 18.583 105.595 18.9447 105.595 19.4102V20.1943ZM111.009 28.165C111.009 27.1982 111.324 26.4212 111.954 25.834C112.584 25.2396 113.401 24.9424 114.403 24.9424C115.42 24.9424 116.24 25.236 116.863 25.8232C117.494 26.4033 117.809 27.2054 117.809 28.2295V29.0029C117.809 29.9626 117.501 30.7396 116.885 31.334C116.269 31.9212 115.449 32.2148 114.425 32.2148C113.394 32.2148 112.566 31.9176 111.943 31.3232C111.32 30.7288 111.009 29.9411 111.009 28.96V28.165ZM113.071 29.0029C113.071 29.3968 113.2 29.7334 113.458 30.0127C113.716 30.292 114.038 30.4316 114.425 30.4316C115.299 30.4316 115.735 29.9482 115.735 28.9814V28.165C115.735 27.7354 115.614 27.3916 115.37 27.1338C115.127 26.8688 114.804 26.7363 114.403 26.7363C114.002 26.7363 113.68 26.8688 113.437 27.1338C113.193 27.3916 113.071 27.7461 113.071 28.1973V29.0029ZM107.55 30.8291L106.035 30.0127L113.673 17.7881L115.188 18.6045L107.55 30.8291Z" fill="#29648A"/>
</svg>
