<svg width="121" height="119" viewBox="0 0 121 119" fill="none" xmlns="http://www.w3.org/2000/svg">
<path d="M53.4218 104.968C61.3321 105.091 69.1013 102.866 75.7468 98.5731C82.3923 94.2807 87.6157 88.114 90.7566 80.853C93.8974 73.5919 94.8145 65.5625 93.3919 57.7802C91.9694 49.9979 88.2711 42.8122 82.7647 37.1318C77.2582 31.4514 70.191 27.5313 62.4567 25.8674C54.7224 24.2035 46.6684 24.8705 39.3132 27.784C31.9579 30.6974 25.6318 35.7265 21.1348 42.2354C16.6377 48.7442 14.1718 56.4403 14.0488 64.3506L31.2232 64.6178C31.2934 60.1043 32.7005 55.713 35.2664 51.9991C37.8324 48.2853 41.442 45.4157 45.6388 43.7534C49.8356 42.091 54.4311 41.7104 58.8441 42.6598C63.2572 43.6092 67.2897 45.8459 70.4316 49.0871C73.5734 52.3283 75.6837 56.4283 76.4953 60.8688C77.307 65.3093 76.7837 69.8907 74.9916 74.0338C73.1995 78.1768 70.2191 81.6954 66.4273 84.1446C62.6354 86.5938 58.2025 87.8636 53.689 87.7934L53.4218 104.968Z" fill="#29648A"/>
<path d="M14.0872 64.3782C13.9949 69.6303 14.9379 74.8491 16.8625 79.7367C18.7871 84.6243 21.6555 89.085 25.3039 92.8641C28.9524 96.6432 33.3095 99.6666 38.1264 101.762C42.9434 103.857 48.1258 104.983 53.3779 105.075L53.6798 87.9013C50.6831 87.8486 47.726 87.2062 44.9776 86.0107C42.2291 84.8152 39.743 83.0901 37.6612 80.9338C35.5795 78.7775 33.9428 76.2323 32.8447 73.4435C31.7465 70.6547 31.2085 67.6769 31.2611 64.6802L14.0872 64.3782Z" fill="#29648A" fill-opacity="0.6"/>
<ellipse cx="95.5" cy="25" rx="25.5" ry="25" fill="#C0AA5E"/>
<path d="M86.4443 18.0996L80.3965 32H77.1201L83.1787 18.873H75.4013V16.3594H86.4443V18.0996ZM88.9043 24.3086L89.8066 16.3594H98.5722V18.9482H92.3525L91.9658 22.3105C92.7034 21.9167 93.4876 21.7197 94.3183 21.7197C95.8079 21.7197 96.9752 22.1816 97.8203 23.1055C98.6653 24.0293 99.0879 25.3219 99.0879 26.9834C99.0879 27.9932 98.873 28.8991 98.4433 29.7012C98.0208 30.4961 97.4121 31.1156 96.6172 31.5596C95.8222 31.9964 94.8841 32.2148 93.8027 32.2148C92.8574 32.2148 91.9801 32.0251 91.1709 31.6455C90.3616 31.2588 89.7207 30.7181 89.248 30.0234C88.7825 29.3288 88.5355 28.5374 88.5068 27.6494H91.5791C91.6435 28.3011 91.8691 28.8096 92.2558 29.1748C92.6497 29.5329 93.1618 29.7119 93.792 29.7119C94.4938 29.7119 95.0345 29.4613 95.414 28.96C95.7936 28.4515 95.9834 27.7354 95.9834 26.8115C95.9834 25.9235 95.7649 25.2432 95.3281 24.7705C94.8912 24.2979 94.2718 24.0615 93.4697 24.0615C92.7321 24.0615 92.1341 24.2549 91.6758 24.6416L91.375 24.9209L88.9043 24.3086ZM101.032 19.3672C101.032 18.4076 101.344 17.6305 101.967 17.0361C102.59 16.4346 103.406 16.1338 104.416 16.1338C105.44 16.1338 106.264 16.431 106.887 17.0254C107.51 17.6126 107.821 18.4111 107.821 19.4209V20.1943C107.821 21.1611 107.51 21.9382 106.887 22.5254C106.264 23.1126 105.447 23.4062 104.437 23.4062C103.421 23.4062 102.597 23.1126 101.967 22.5254C101.344 21.931 101.032 21.1325 101.032 20.1299V19.3672ZM103.095 20.1943C103.095 20.624 103.216 20.9714 103.46 21.2363C103.711 21.4941 104.036 21.623 104.437 21.623C104.839 21.623 105.157 21.4906 105.394 21.2256C105.63 20.9606 105.748 20.6061 105.748 20.1621V19.3672C105.748 18.9375 105.63 18.5902 105.394 18.3252C105.157 18.0602 104.831 17.9277 104.416 17.9277C104.022 17.9277 103.703 18.0602 103.46 18.3252C103.216 18.583 103.095 18.9447 103.095 19.4102V20.1943ZM108.509 28.165C108.509 27.1982 108.824 26.4212 109.454 25.834C110.084 25.2396 110.901 24.9424 111.903 24.9424C112.92 24.9424 113.74 25.236 114.363 25.8232C114.993 26.4033 115.309 27.2054 115.309 28.2295V29.0029C115.309 29.9626 115.001 30.7396 114.385 31.334C113.769 31.9212 112.949 32.2148 111.925 32.2148C110.894 32.2148 110.066 31.9176 109.443 31.3232C108.82 30.7288 108.509 29.9411 108.509 28.96V28.165ZM110.571 29.0029C110.571 29.3968 110.7 29.7334 110.958 30.0127C111.216 30.292 111.538 30.4316 111.925 30.4316C112.798 30.4316 113.235 29.9482 113.235 28.9814V28.165C113.235 27.7354 113.114 27.3916 112.87 27.1338C112.627 26.8688 112.304 26.7363 111.903 26.7363C111.502 26.7363 111.18 26.8688 110.936 27.1338C110.693 27.3916 110.571 27.7461 110.571 28.1973V29.0029ZM105.05 30.8291L103.535 30.0127L111.173 17.7881L112.687 18.6045L105.05 30.8291Z" fill="#29648A"/>
</svg>
