<svg width="108" height="108" viewBox="0 0 108 108" fill="none" xmlns="http://www.w3.org/2000/svg">
<path d="M6.03178 84.8719C10.1294 92.8679 16.7997 99.2514 24.9679 102.994C33.1361 106.736 42.3264 107.62 51.058 105.502C59.7896 103.384 67.554 98.3886 73.0999 91.3198C78.6459 84.251 81.6505 75.5208 81.6295 66.5361C81.6086 57.5514 78.5634 48.8353 72.9845 41.7924C67.4057 34.7495 59.6182 29.79 50.8768 27.7129C42.1354 25.6358 32.9493 26.5621 24.7986 30.3427C16.648 34.1233 10.0075 40.5378 5.94715 48.5528L21.2697 56.3151C23.5865 51.7419 27.3755 48.0818 32.0261 45.9247C36.6768 43.7676 41.9182 43.239 46.9059 44.4241C51.8936 45.6093 56.3371 48.4392 59.5203 52.4577C62.7035 56.4763 64.4411 61.4496 64.453 66.5761C64.4649 71.7027 62.7506 76.684 59.5861 80.7174C56.4217 84.7507 51.9915 87.6013 47.0093 88.8097C42.0272 90.018 36.7833 89.5139 32.1227 87.3785C27.462 85.243 23.6561 81.6007 21.318 77.0383L6.03178 84.8719Z" fill="#29648A"/>
<path d="M6.32843 85.1162C3.57487 79.4409 2.09816 73.1711 2.01435 66.7997C1.93053 60.4282 3.63925 53.8203 6.24273 48.0876L13.6047 52.0916L20.9642 56.0957C19.4787 59.3667 18.661 62.9855 18.7088 66.621C18.7566 70.2565 19.5992 73.8339 21.1703 77.0722L6.32843 85.1162Z" fill="#29648A" fill-opacity="0.6"/>
<ellipse cx="82.5" cy="25" rx="25.5" ry="25" fill="#C0AA5E"/>
<path d="M73.0039 20.5166C73.0039 21.2757 72.8141 21.9489 72.4346 22.5361C72.055 23.1234 71.5322 23.5924 70.8662 23.9434C71.6253 24.3086 72.2269 24.8135 72.6709 25.458C73.1149 26.0954 73.3369 26.8473 73.3369 27.7139C73.3369 29.1032 72.8643 30.2025 71.9189 31.0117C70.9736 31.8138 69.6882 32.2148 68.0625 32.2148C66.4368 32.2148 65.1478 31.8102 64.1953 31.001C63.2428 30.1917 62.7666 29.096 62.7666 27.7139C62.7666 26.8473 62.9886 26.0918 63.4326 25.4473C63.8766 24.8027 64.4746 24.3014 65.2266 23.9434C64.5605 23.5924 64.0378 23.1234 63.6582 22.5361C63.2858 21.9489 63.0996 21.2757 63.0996 20.5166C63.0996 19.1846 63.5436 18.1247 64.4316 17.3369C65.3197 16.542 66.5264 16.1445 68.0518 16.1445C69.57 16.1445 70.7731 16.5384 71.6611 17.3262C72.5563 18.1068 73.0039 19.1702 73.0039 20.5166ZM70.2217 27.4883C70.2217 26.8079 70.0247 26.2637 69.6309 25.8555C69.237 25.4473 68.707 25.2432 68.041 25.2432C67.3822 25.2432 66.8558 25.4473 66.4619 25.8555C66.068 26.2565 65.8711 26.8008 65.8711 27.4883C65.8711 28.1543 66.0645 28.6914 66.4512 29.0996C66.8379 29.5078 67.375 29.7119 68.0625 29.7119C68.7357 29.7119 69.262 29.515 69.6416 29.1211C70.0283 28.7272 70.2217 28.1829 70.2217 27.4883ZM69.8994 20.667C69.8994 20.0583 69.7383 19.5713 69.416 19.2061C69.0938 18.8337 68.639 18.6475 68.0518 18.6475C67.4717 18.6475 67.0205 18.8265 66.6982 19.1846C66.376 19.5426 66.2148 20.0368 66.2148 20.667C66.2148 21.29 66.376 21.7913 66.6982 22.1709C67.0205 22.5505 67.4753 22.7402 68.0625 22.7402C68.6497 22.7402 69.1009 22.5505 69.416 22.1709C69.7383 21.7913 69.8994 21.29 69.8994 20.667ZM75.9043 24.3086L76.8066 16.3594H85.5723V18.9482H79.3525L78.9658 22.3105C79.7035 21.9167 80.4876 21.7197 81.3184 21.7197C82.8079 21.7197 83.9753 22.1816 84.8203 23.1055C85.6654 24.0293 86.0879 25.3219 86.0879 26.9834C86.0879 27.9932 85.873 28.8991 85.4434 29.7012C85.0208 30.4961 84.4121 31.1156 83.6172 31.5596C82.8223 31.9964 81.8841 32.2148 80.8027 32.2148C79.8574 32.2148 78.9801 32.0251 78.1709 31.6455C77.3617 31.2588 76.7207 30.7181 76.248 30.0234C75.7826 29.3288 75.5355 28.5374 75.5068 27.6494H78.5791C78.6436 28.3011 78.8691 28.8096 79.2559 29.1748C79.6497 29.5329 80.1618 29.7119 80.792 29.7119C81.4938 29.7119 82.0345 29.4613 82.4141 28.96C82.7936 28.4515 82.9834 27.7354 82.9834 26.8115C82.9834 25.9235 82.765 25.2432 82.3281 24.7705C81.8913 24.2979 81.2718 24.0615 80.4697 24.0615C79.7321 24.0615 79.1341 24.2549 78.6758 24.6416L78.375 24.9209L75.9043 24.3086ZM88.0322 19.3672C88.0322 18.4076 88.3438 17.6305 88.9668 17.0361C89.5898 16.4346 90.4062 16.1338 91.416 16.1338C92.4401 16.1338 93.2637 16.431 93.8867 17.0254C94.5098 17.6126 94.8213 18.4111 94.8213 19.4209V20.1943C94.8213 21.1611 94.5098 21.9382 93.8867 22.5254C93.2637 23.1126 92.4473 23.4062 91.4375 23.4062C90.4206 23.4062 89.597 23.1126 88.9668 22.5254C88.3438 21.931 88.0322 21.1325 88.0322 20.1299V19.3672ZM90.0947 20.1943C90.0947 20.624 90.2165 20.9714 90.46 21.2363C90.7106 21.4941 91.0365 21.623 91.4375 21.623C91.8385 21.623 92.1572 21.4906 92.3936 21.2256C92.6299 20.9606 92.748 20.6061 92.748 20.1621V19.3672C92.748 18.9375 92.6299 18.5902 92.3936 18.3252C92.1572 18.0602 91.8314 17.9277 91.416 17.9277C91.0221 17.9277 90.7035 18.0602 90.46 18.3252C90.2165 18.583 90.0947 18.9447 90.0947 19.4102V20.1943ZM95.5088 28.165C95.5088 27.1982 95.8239 26.4212 96.4541 25.834C97.0843 25.2396 97.9007 24.9424 98.9033 24.9424C99.9202 24.9424 100.74 25.236 101.363 25.8232C101.993 26.4033 102.309 27.2054 102.309 28.2295V29.0029C102.309 29.9626 102.001 30.7396 101.385 31.334C100.769 31.9212 99.9489 32.2148 98.9248 32.2148C97.8936 32.2148 97.0664 31.9176 96.4434 31.3232C95.8203 30.7288 95.5088 29.9411 95.5088 28.96V28.165ZM97.5713 29.0029C97.5713 29.3968 97.7002 29.7334 97.958 30.0127C98.2158 30.292 98.5381 30.4316 98.9248 30.4316C99.7985 30.4316 100.235 29.9482 100.235 28.9814V28.165C100.235 27.7354 100.114 27.3916 99.8701 27.1338C99.6266 26.8688 99.3044 26.7363 98.9033 26.7363C98.5023 26.7363 98.18 26.8688 97.9365 27.1338C97.693 27.3916 97.5713 27.7461 97.5713 28.1973V29.0029ZM92.0498 30.8291L90.5352 30.0127L98.1729 17.7881L99.6875 18.6045L92.0498 30.8291Z" fill="#29648A"/>
</svg>
