<svg width="64" height="36" viewBox="0 0 64 36" fill="none" xmlns="http://www.w3.org/2000/svg">
<path d="M34.9492 34.5473C34.9319 34.5905 34.7979 34.6726 34.5473 34.7936C34.3053 34.9232 34.0115 35.0572 33.6658 35.1955C33.3287 35.3424 32.9701 35.4677 32.5898 35.5714C32.2182 35.6837 31.8898 35.7399 31.6046 35.7399C31.4145 35.7399 31.2589 35.7054 31.1379 35.6362C31.0256 35.5671 30.9694 35.4547 30.9694 35.2992C30.9694 35.2473 30.9781 35.1955 30.9953 35.1436C31.0126 35.1004 31.0342 35.0313 31.0602 34.9362C31.3886 33.7004 31.7256 32.4688 32.0713 31.2416C32.417 30.0144 32.754 28.8175 33.0824 27.6508C33.4108 26.4755 33.722 25.3433 34.0158 24.2544C34.3096 23.1568 34.5646 22.1284 34.7806 21.1691C34.9967 20.2012 35.1695 19.3154 35.2992 18.5116C35.4288 17.6993 35.4936 16.9906 35.4936 16.3857C35.4936 14.493 35.3337 12.7819 35.014 11.2522C34.7029 9.7225 34.2578 8.36567 33.6788 7.18169C33.1084 5.98906 32.4213 4.96496 31.6176 4.10938C30.8225 3.24516 29.941 2.53649 28.9731 1.98339C28.0051 1.43029 26.9681 1.0241 25.8619 0.764837C24.7643 0.496928 23.6278 0.362973 22.4525 0.362973C21.0611 0.362973 19.6438 0.535818 18.2005 0.881507C16.7573 1.2272 15.3356 1.72412 13.9356 2.37229C12.5269 3.02046 11.1658 3.81122 9.85214 4.74458C8.52988 5.67794 7.30268 6.73229 6.17055 7.90764C5.02978 9.07434 4.00999 10.3577 3.1112 11.7577C2.21241 13.1491 1.47782 14.6313 0.907434 16.2042C0.734589 16.6709 0.596314 16.9949 0.492607 17.1764C0.380258 17.3493 0.289515 17.4357 0.220377 17.4357C0.142597 17.4357 0.0864222 17.3449 0.0518534 17.1635C0.0172845 16.9733 0 16.7832 0 16.5931C0 16.5067 0.00432111 16.4332 0.0129633 16.3727C0.0129633 16.3036 0.0172845 16.2474 0.0259267 16.2042C0.432111 14.5017 1.05435 12.9201 1.89265 11.4596C2.73094 9.99905 3.7248 8.66815 4.87422 7.46688C6.02363 6.26561 7.30268 5.20262 8.71136 4.2779C10.12 3.34454 11.5979 2.56242 13.1448 1.93154C14.6918 1.30065 16.282 0.821011 17.9153 0.492607C19.5487 0.164202 21.1648 0 22.7636 0C24.1809 0 25.5594 0.133954 26.8989 0.401863C28.2471 0.669772 29.5132 1.07596 30.6972 1.62042C31.8898 2.16488 32.9831 2.85626 33.9769 3.69455C34.9708 4.53285 35.8263 5.5267 36.5436 6.67612C37.261 7.81689 37.8184 9.11755 38.2159 10.5781C38.6221 12.03 38.8252 13.6461 38.8252 15.4264C38.8252 16.2733 38.7561 17.2974 38.6178 18.4987C38.4795 19.6913 38.2635 21.0093 37.9696 22.4525C37.6758 23.8871 37.2998 25.4168 36.8418 27.0415C36.3838 28.6576 35.8393 30.3083 35.2084 31.9935L46.1754 14.2597C46.3828 13.9399 46.6162 13.6072 46.8754 13.2615C47.1347 12.9072 47.4069 12.5831 47.6921 12.2892C47.986 11.9868 48.2841 11.7405 48.5866 11.5503C48.8891 11.3516 49.1872 11.2522 49.4811 11.2522C49.7749 11.2522 50.0039 11.2781 50.1681 11.33C50.3323 11.3732 50.4533 11.4293 50.5311 11.4985C50.6175 11.5676 50.6694 11.6497 50.6867 11.7448C50.7126 11.8312 50.7255 11.9176 50.7255 12.0041L34.9492 34.5473Z" fill="black"/>
<path d="M48.2236 34.5473C48.2063 34.5905 48.0723 34.6726 47.8217 34.7936C47.5797 34.9232 47.2859 35.0572 46.9402 35.1955C46.6032 35.3424 46.2445 35.4677 45.8642 35.5714C45.4926 35.6837 45.1642 35.7399 44.879 35.7399C44.6889 35.7399 44.5333 35.7054 44.4124 35.6362C44.3 35.5671 44.2438 35.4547 44.2438 35.2992C44.2438 35.2473 44.2525 35.1955 44.2698 35.1436C44.287 35.1004 44.3086 35.0313 44.3346 34.9362C44.663 33.7004 45 32.4688 45.3457 31.2416C45.6914 30.0144 46.0284 28.8175 46.3569 27.6508C46.6853 26.4755 46.9964 25.3433 47.2902 24.2544C47.584 23.1568 47.839 22.1284 48.055 21.1691C48.2711 20.2012 48.444 19.3154 48.5736 18.5116C48.7032 17.6993 48.768 16.9906 48.768 16.3857C48.768 14.493 48.6082 12.7819 48.2884 11.2522C47.9773 9.7225 47.5322 8.36567 46.9532 7.18169C46.3828 5.98906 45.6957 4.96496 44.892 4.10938C44.0969 3.24516 43.2154 2.53649 42.2475 1.98339C41.2795 1.43029 40.2425 1.0241 39.1363 0.764837C38.0387 0.496928 36.9023 0.362973 35.7269 0.362973C34.3355 0.362973 32.9182 0.535818 31.4749 0.881507C30.0317 1.2272 28.61 1.72412 27.21 2.37229C25.8013 3.02046 24.4402 3.81122 23.1266 4.74458C21.8043 5.67794 20.5771 6.73229 19.445 7.90764C18.3042 9.07434 17.2844 10.3577 16.3856 11.7577C15.4868 13.1491 14.7522 14.6313 14.1818 16.2042C14.009 16.6709 13.8707 16.9949 13.767 17.1764C13.6547 17.3493 13.5639 17.4357 13.4948 17.4357C13.417 17.4357 13.3608 17.3449 13.3263 17.1635C13.2917 16.9733 13.2744 16.7832 13.2744 16.5931C13.2744 16.5067 13.2787 16.4332 13.2874 16.3727C13.2874 16.3036 13.2917 16.2474 13.3003 16.2042C13.7065 14.5017 14.3288 12.9201 15.1671 11.4596C16.0054 9.99905 16.9992 8.66815 18.1486 7.46688C19.298 6.26561 20.5771 5.20262 21.9858 4.2779C23.3945 3.34454 24.8723 2.56242 26.4192 1.93154C27.9662 1.30065 29.5564 0.821011 31.1897 0.492607C32.8231 0.164202 34.4392 0 36.038 0C37.4554 0 38.8338 0.133954 40.1733 0.401863C41.5215 0.669772 42.7876 1.07596 43.9716 1.62042C45.1642 2.16488 46.2575 2.85626 47.2513 3.69455C48.2452 4.53285 49.1008 5.5267 49.8181 6.67612C50.5354 7.81689 51.0928 9.11755 51.4903 10.5781C51.8965 12.03 52.0996 13.6461 52.0996 15.4264C52.0996 16.2733 52.0305 17.2974 51.8922 18.4987C51.7539 19.6913 51.5379 21.0093 51.244 22.4525C50.9502 23.8871 50.5743 25.4168 50.1162 27.0415C49.6582 28.6576 49.1137 30.3083 48.4828 31.9935L59.4498 14.2597C59.6572 13.9399 59.8906 13.6072 60.1498 13.2615C60.4091 12.9072 60.6813 12.5831 60.9665 12.2892C61.2604 11.9868 61.5585 11.7405 61.861 11.5503C62.1635 11.3516 62.4616 11.2522 62.7555 11.2522C63.0493 11.2522 63.2783 11.2781 63.4425 11.33C63.6067 11.3732 63.7277 11.4293 63.8055 11.4985C63.8919 11.5676 63.9438 11.6497 63.9611 11.7448C63.987 11.8312 64 11.9176 64 12.0041L48.2236 34.5473Z" fill="#BA9344"/>
</svg>
