<svg width="1440" height="3233" viewBox="0 0 1440 3233" fill="none" xmlns="http://www.w3.org/2000/svg">
<g clip-path="url(#clip0)">
<rect width="1440" height="3233" fill="#F5F2F2"/>
<mask id="mask0" mask-type="alpha" maskUnits="userSpaceOnUse" x="-127" y="2103" width="280" height="280">
<circle cx="13" cy="2243" r="140" fill="#F5F2F2"/>
</mask>
<g mask="url(#mask0)">
<rect x="-155" y="2072.2" width="334.6" height="319.2" fill="#F5F2F2"/>
<line x1="-155" y1="2110.9" x2="179.626" y2="2110.9" stroke="#73B9C2" stroke-opacity="0.7"/>
<line x1="-153.6" y1="2140.3" x2="181.026" y2="2140.3" stroke="#73B9C2" stroke-opacity="0.7"/>
<line x1="-153.6" y1="2150.1" x2="181.026" y2="2150.1" stroke="#73B9C2" stroke-opacity="0.7"/>
<line x1="-155" y1="2120.7" x2="179.626" y2="2120.7" stroke="#73B9C2" stroke-opacity="0.7"/>
<line x1="-155" y1="2130.5" x2="179.626" y2="2130.5" stroke="#73B9C2" stroke-opacity="0.7"/>
<line x1="-156.4" y1="2375.5" x2="178.226" y2="2375.5" stroke="#73B9C2" stroke-opacity="0.7"/>
<line x1="-156.4" y1="2365.7" x2="178.226" y2="2365.7" stroke="#73B9C2" stroke-opacity="0.7"/>
<line x1="-156.4" y1="2355.9" x2="178.226" y2="2355.9" stroke="#73B9C2" stroke-opacity="0.7"/>
<line x1="-156.4" y1="2346.1" x2="178.226" y2="2346.1" stroke="#73B9C2" stroke-opacity="0.7"/>
<line x1="-156.4" y1="2336.3" x2="178.226" y2="2336.3" stroke="#73B9C2" stroke-opacity="0.7"/>
<line x1="-155" y1="2287.3" x2="179.626" y2="2287.3" stroke="#73B9C2" stroke-opacity="0.7"/>
<line x1="-153.6" y1="2316.7" x2="181.026" y2="2316.7" stroke="#73B9C2" stroke-opacity="0.7"/>
<line x1="-155" y1="2277.5" x2="179.626" y2="2277.5" stroke="#73B9C2" stroke-opacity="0.7"/>
<line x1="-155" y1="2267.7" x2="179.626" y2="2267.7" stroke="#73B9C2" stroke-opacity="0.7"/>
<line x1="-155" y1="2257.9" x2="179.626" y2="2257.9" stroke="#73B9C2" stroke-opacity="0.7"/>
<line x1="-155" y1="2248.1" x2="179.626" y2="2248.1" stroke="#73B9C2" stroke-opacity="0.7"/>
<line x1="-153.6" y1="2326.5" x2="181.026" y2="2326.5" stroke="#73B9C2" stroke-opacity="0.7"/>
<line x1="-155" y1="2297.1" x2="179.626" y2="2297.1" stroke="#73B9C2" stroke-opacity="0.7"/>
<line x1="-155" y1="2306.9" x2="179.626" y2="2306.9" stroke="#73B9C2" stroke-opacity="0.7"/>
<line x1="-155" y1="2199.1" x2="179.626" y2="2199.1" stroke="#73B9C2" stroke-opacity="0.7"/>
<line x1="-153.6" y1="2228.5" x2="181.026" y2="2228.5" stroke="#73B9C2" stroke-opacity="0.7"/>
<line x1="-155" y1="2189.3" x2="179.626" y2="2189.3" stroke="#73B9C2" stroke-opacity="0.7"/>
<line x1="-155" y1="2179.5" x2="179.626" y2="2179.5" stroke="#73B9C2" stroke-opacity="0.7"/>
<line x1="-155" y1="2169.7" x2="179.626" y2="2169.7" stroke="#73B9C2" stroke-opacity="0.7"/>
<line x1="-155" y1="2159.9" x2="179.626" y2="2159.9" stroke="#73B9C2" stroke-opacity="0.7"/>
<line x1="-153.6" y1="2238.3" x2="181.026" y2="2238.3" stroke="#73B9C2" stroke-opacity="0.7"/>
<line x1="-155" y1="2208.9" x2="179.626" y2="2208.9" stroke="#73B9C2" stroke-opacity="0.7"/>
<line x1="-155" y1="2218.7" x2="179.626" y2="2218.7" stroke="#73B9C2" stroke-opacity="0.7"/>
</g>
<circle cx="1368" cy="2167" r="100" fill="#BA9344" fill-opacity="0.5"/>
<mask id="mask1" mask-type="alpha" maskUnits="userSpaceOnUse" x="1336" y="1894" width="200" height="200">
<circle cx="1436" cy="1994" r="100" fill="#F5F2F2"/>
</mask>
<g mask="url(#mask1)">
<rect x="1296" y="1872" width="239" height="228" fill="#F5F2F2"/>
<line x1="1296" y1="1899.5" x2="1535.02" y2="1899.5" stroke="#5F5D5B"/>
<line x1="1297" y1="1920.5" x2="1536.02" y2="1920.5" stroke="#5F5D5B"/>
<line x1="1297" y1="1927.5" x2="1536.02" y2="1927.5" stroke="#5F5D5B"/>
<line x1="1296" y1="1906.5" x2="1535.02" y2="1906.5" stroke="#5F5D5B"/>
<line x1="1296" y1="1913.5" x2="1535.02" y2="1913.5" stroke="#5F5D5B"/>
<line x1="1295" y1="2088.5" x2="1534.02" y2="2088.5" stroke="#5F5D5B"/>
<line x1="1295" y1="2081.5" x2="1534.02" y2="2081.5" stroke="#5F5D5B"/>
<line x1="1295" y1="2074.5" x2="1534.02" y2="2074.5" stroke="#5F5D5B"/>
<line x1="1295" y1="2067.5" x2="1534.02" y2="2067.5" stroke="#5F5D5B"/>
<line x1="1295" y1="2060.5" x2="1534.02" y2="2060.5" stroke="#5F5D5B"/>
<line x1="1296" y1="2025.5" x2="1535.02" y2="2025.5" stroke="#5F5D5B"/>
<line x1="1297" y1="2046.5" x2="1536.02" y2="2046.5" stroke="#5F5D5B"/>
<line x1="1296" y1="2018.5" x2="1535.02" y2="2018.5" stroke="#5F5D5B"/>
<line x1="1296" y1="2011.5" x2="1535.02" y2="2011.5" stroke="#5F5D5B"/>
<line x1="1296" y1="2004.5" x2="1535.02" y2="2004.5" stroke="#5F5D5B"/>
<line x1="1296" y1="1997.5" x2="1535.02" y2="1997.5" stroke="#5F5D5B"/>
<line x1="1297" y1="2053.5" x2="1536.02" y2="2053.5" stroke="#5F5D5B"/>
<line x1="1296" y1="2032.5" x2="1535.02" y2="2032.5" stroke="#5F5D5B"/>
<line x1="1296" y1="2039.5" x2="1535.02" y2="2039.5" stroke="#5F5D5B"/>
<line x1="1296" y1="1962.5" x2="1535.02" y2="1962.5" stroke="#5F5D5B"/>
<line x1="1297" y1="1983.5" x2="1536.02" y2="1983.5" stroke="#5F5D5B"/>
<line x1="1296" y1="1955.5" x2="1535.02" y2="1955.5" stroke="#5F5D5B"/>
<line x1="1296" y1="1948.5" x2="1535.02" y2="1948.5" stroke="#5F5D5B"/>
<line x1="1296" y1="1941.5" x2="1535.02" y2="1941.5" stroke="#5F5D5B"/>
<line x1="1296" y1="1934.5" x2="1535.02" y2="1934.5" stroke="#5F5D5B"/>
<line x1="1297" y1="1990.5" x2="1536.02" y2="1990.5" stroke="#5F5D5B"/>
<line x1="1296" y1="1969.5" x2="1535.02" y2="1969.5" stroke="#5F5D5B"/>
<line x1="1296" y1="1976.5" x2="1535.02" y2="1976.5" stroke="#5F5D5B"/>
</g>
<circle cx="19" cy="1765" r="100" fill="#BA9344" fill-opacity="0.5"/>
<mask id="mask2" mask-type="alpha" maskUnits="userSpaceOnUse" x="-13" y="1492" width="200" height="200">
<circle cx="87" cy="1592" r="100" fill="#F5F2F2"/>
</mask>
<g mask="url(#mask2)">
<rect x="-53" y="1470" width="239" height="228" fill="#F5F2F2"/>
<line x1="-53" y1="1497.5" x2="186.019" y2="1497.5" stroke="#5F5D5B"/>
<line x1="-52" y1="1518.5" x2="187.019" y2="1518.5" stroke="#5F5D5B"/>
<line x1="-52" y1="1525.5" x2="187.019" y2="1525.5" stroke="#5F5D5B"/>
<line x1="-53" y1="1504.5" x2="186.019" y2="1504.5" stroke="#5F5D5B"/>
<line x1="-53" y1="1511.5" x2="186.019" y2="1511.5" stroke="#5F5D5B"/>
<line x1="-54" y1="1686.5" x2="185.019" y2="1686.5" stroke="#5F5D5B"/>
<line x1="-54" y1="1679.5" x2="185.019" y2="1679.5" stroke="#5F5D5B"/>
<line x1="-54" y1="1672.5" x2="185.019" y2="1672.5" stroke="#5F5D5B"/>
<line x1="-54" y1="1665.5" x2="185.019" y2="1665.5" stroke="#5F5D5B"/>
<line x1="-54" y1="1658.5" x2="185.019" y2="1658.5" stroke="#5F5D5B"/>
<line x1="-53" y1="1623.5" x2="186.019" y2="1623.5" stroke="#5F5D5B"/>
<line x1="-52" y1="1644.5" x2="187.019" y2="1644.5" stroke="#5F5D5B"/>
<line x1="-53" y1="1616.5" x2="186.019" y2="1616.5" stroke="#5F5D5B"/>
<line x1="-53" y1="1609.5" x2="186.019" y2="1609.5" stroke="#5F5D5B"/>
<line x1="-53" y1="1602.5" x2="186.019" y2="1602.5" stroke="#5F5D5B"/>
<line x1="-53" y1="1595.5" x2="186.019" y2="1595.5" stroke="#5F5D5B"/>
<line x1="-52" y1="1651.5" x2="187.019" y2="1651.5" stroke="#5F5D5B"/>
<line x1="-53" y1="1630.5" x2="186.019" y2="1630.5" stroke="#5F5D5B"/>
<line x1="-53" y1="1637.5" x2="186.019" y2="1637.5" stroke="#5F5D5B"/>
<line x1="-53" y1="1560.5" x2="186.019" y2="1560.5" stroke="#5F5D5B"/>
<line x1="-52" y1="1581.5" x2="187.019" y2="1581.5" stroke="#5F5D5B"/>
<line x1="-53" y1="1553.5" x2="186.019" y2="1553.5" stroke="#5F5D5B"/>
<line x1="-53" y1="1546.5" x2="186.019" y2="1546.5" stroke="#5F5D5B"/>
<line x1="-53" y1="1539.5" x2="186.019" y2="1539.5" stroke="#5F5D5B"/>
<line x1="-53" y1="1532.5" x2="186.019" y2="1532.5" stroke="#5F5D5B"/>
<line x1="-52" y1="1588.5" x2="187.019" y2="1588.5" stroke="#5F5D5B"/>
<line x1="-53" y1="1567.5" x2="186.019" y2="1567.5" stroke="#5F5D5B"/>
<line x1="-53" y1="1574.5" x2="186.019" y2="1574.5" stroke="#5F5D5B"/>
</g>
<mask id="mask3" mask-type="alpha" maskUnits="userSpaceOnUse" x="1234" y="453" width="200" height="200">
<circle cx="1334" cy="553" r="100" fill="#F5F2F2"/>
</mask>
<g mask="url(#mask3)">
<rect x="1194" y="431" width="239" height="228" fill="#F5F2F2"/>
<line x1="1194" y1="458.5" x2="1433.02" y2="458.5" stroke="#5F5D5B"/>
<line x1="1195" y1="479.5" x2="1434.02" y2="479.5" stroke="#5F5D5B"/>
<line x1="1195" y1="486.5" x2="1434.02" y2="486.5" stroke="#5F5D5B"/>
<line x1="1194" y1="465.5" x2="1433.02" y2="465.5" stroke="#5F5D5B"/>
<line x1="1194" y1="472.5" x2="1433.02" y2="472.5" stroke="#5F5D5B"/>
<line x1="1193" y1="647.499" x2="1432.02" y2="647.499" stroke="#5F5D5B"/>
<line x1="1193" y1="640.5" x2="1432.02" y2="640.5" stroke="#5F5D5B"/>
<line x1="1193" y1="633.5" x2="1432.02" y2="633.5" stroke="#5F5D5B"/>
<line x1="1193" y1="626.5" x2="1432.02" y2="626.5" stroke="#5F5D5B"/>
<line x1="1193" y1="619.5" x2="1432.02" y2="619.5" stroke="#5F5D5B"/>
<line x1="1194" y1="584.5" x2="1433.02" y2="584.5" stroke="#5F5D5B"/>
<line x1="1195" y1="605.5" x2="1434.02" y2="605.5" stroke="#5F5D5B"/>
<line x1="1194" y1="577.5" x2="1433.02" y2="577.5" stroke="#5F5D5B"/>
<line x1="1194" y1="570.5" x2="1433.02" y2="570.5" stroke="#5F5D5B"/>
<line x1="1194" y1="563.5" x2="1433.02" y2="563.5" stroke="#5F5D5B"/>
<line x1="1194" y1="556.5" x2="1433.02" y2="556.5" stroke="#5F5D5B"/>
<line x1="1195" y1="612.5" x2="1434.02" y2="612.5" stroke="#5F5D5B"/>
<line x1="1194" y1="591.5" x2="1433.02" y2="591.5" stroke="#5F5D5B"/>
<line x1="1194" y1="598.5" x2="1433.02" y2="598.5" stroke="#5F5D5B"/>
<line x1="1194" y1="521.5" x2="1433.02" y2="521.5" stroke="#5F5D5B"/>
<line x1="1195" y1="542.5" x2="1434.02" y2="542.5" stroke="#5F5D5B"/>
<line x1="1194" y1="514.5" x2="1433.02" y2="514.5" stroke="#5F5D5B"/>
<line x1="1194" y1="507.5" x2="1433.02" y2="507.5" stroke="#5F5D5B"/>
<line x1="1194" y1="500.5" x2="1433.02" y2="500.5" stroke="#5F5D5B"/>
<line x1="1194" y1="493.5" x2="1433.02" y2="493.5" stroke="#5F5D5B"/>
<line x1="1195" y1="549.5" x2="1434.02" y2="549.5" stroke="#5F5D5B"/>
<line x1="1194" y1="528.5" x2="1433.02" y2="528.5" stroke="#5F5D5B"/>
<line x1="1194" y1="535.5" x2="1433.02" y2="535.5" stroke="#5F5D5B"/>
</g>
<mask id="mask4" mask-type="alpha" maskUnits="userSpaceOnUse" x="1273" y="2794" width="200" height="200">
<circle cx="1373" cy="2894" r="100" fill="#F5F2F2"/>
</mask>
<g mask="url(#mask4)">
<rect x="1233" y="2772" width="239" height="228" fill="#F5F2F2"/>
<line x1="1233" y1="2799.5" x2="1472.02" y2="2799.5" stroke="#5F5D5B"/>
<line x1="1234" y1="2820.5" x2="1473.02" y2="2820.5" stroke="#5F5D5B"/>
<line x1="1234" y1="2827.5" x2="1473.02" y2="2827.5" stroke="#5F5D5B"/>
<line x1="1233" y1="2806.5" x2="1472.02" y2="2806.5" stroke="#5F5D5B"/>
<line x1="1233" y1="2813.5" x2="1472.02" y2="2813.5" stroke="#5F5D5B"/>
<line x1="1232" y1="2988.5" x2="1471.02" y2="2988.5" stroke="#5F5D5B"/>
<line x1="1232" y1="2981.5" x2="1471.02" y2="2981.5" stroke="#5F5D5B"/>
<line x1="1232" y1="2974.5" x2="1471.02" y2="2974.5" stroke="#5F5D5B"/>
<line x1="1232" y1="2967.5" x2="1471.02" y2="2967.5" stroke="#5F5D5B"/>
<line x1="1232" y1="2960.5" x2="1471.02" y2="2960.5" stroke="#5F5D5B"/>
<line x1="1233" y1="2925.5" x2="1472.02" y2="2925.5" stroke="#5F5D5B"/>
<line x1="1234" y1="2946.5" x2="1473.02" y2="2946.5" stroke="#5F5D5B"/>
<line x1="1233" y1="2918.5" x2="1472.02" y2="2918.5" stroke="#5F5D5B"/>
<line x1="1233" y1="2911.5" x2="1472.02" y2="2911.5" stroke="#5F5D5B"/>
<line x1="1233" y1="2904.5" x2="1472.02" y2="2904.5" stroke="#5F5D5B"/>
<line x1="1233" y1="2897.5" x2="1472.02" y2="2897.5" stroke="#5F5D5B"/>
<line x1="1234" y1="2953.5" x2="1473.02" y2="2953.5" stroke="#5F5D5B"/>
<line x1="1233" y1="2932.5" x2="1472.02" y2="2932.5" stroke="#5F5D5B"/>
<line x1="1233" y1="2939.5" x2="1472.02" y2="2939.5" stroke="#5F5D5B"/>
<line x1="1233" y1="2862.5" x2="1472.02" y2="2862.5" stroke="#5F5D5B"/>
<line x1="1234" y1="2883.5" x2="1473.02" y2="2883.5" stroke="#5F5D5B"/>
<line x1="1233" y1="2855.5" x2="1472.02" y2="2855.5" stroke="#5F5D5B"/>
<line x1="1233" y1="2848.5" x2="1472.02" y2="2848.5" stroke="#5F5D5B"/>
<line x1="1233" y1="2841.5" x2="1472.02" y2="2841.5" stroke="#5F5D5B"/>
<line x1="1233" y1="2834.5" x2="1472.02" y2="2834.5" stroke="#5F5D5B"/>
<line x1="1234" y1="2890.5" x2="1473.02" y2="2890.5" stroke="#5F5D5B"/>
<line x1="1233" y1="2869.5" x2="1472.02" y2="2869.5" stroke="#5F5D5B"/>
<line x1="1233" y1="2876.5" x2="1472.02" y2="2876.5" stroke="#5F5D5B"/>
</g>
<mask id="mask5" mask-type="alpha" maskUnits="userSpaceOnUse" x="1063" y="529" width="200" height="200">
<circle cx="1163" cy="629" r="100" fill="#F5F2F2"/>
</mask>
<g mask="url(#mask5)">
<rect x="1023" y="507" width="239" height="228" fill="#F5F2F2"/>
<line x1="1023" y1="534.5" x2="1262.02" y2="534.5" stroke="#BA9344" stroke-opacity="0.5"/>
<line x1="1024" y1="555.5" x2="1263.02" y2="555.5" stroke="#BA9344" stroke-opacity="0.5"/>
<line x1="1024" y1="562.5" x2="1263.02" y2="562.5" stroke="#BA9344" stroke-opacity="0.5"/>
<line x1="1023" y1="541.5" x2="1262.02" y2="541.5" stroke="#BA9344" stroke-opacity="0.5"/>
<line x1="1023" y1="548.5" x2="1262.02" y2="548.5" stroke="#BA9344" stroke-opacity="0.5"/>
<line x1="1022" y1="723.5" x2="1261.02" y2="723.5" stroke="#BA9344" stroke-opacity="0.5"/>
<line x1="1022" y1="716.5" x2="1261.02" y2="716.5" stroke="#BA9344" stroke-opacity="0.5"/>
<line x1="1022" y1="709.5" x2="1261.02" y2="709.5" stroke="#BA9344" stroke-opacity="0.5"/>
<line x1="1022" y1="702.5" x2="1261.02" y2="702.5" stroke="#BA9344" stroke-opacity="0.5"/>
<line x1="1022" y1="695.5" x2="1261.02" y2="695.5" stroke="#BA9344" stroke-opacity="0.5"/>
<line x1="1023" y1="660.5" x2="1262.02" y2="660.5" stroke="#BA9344" stroke-opacity="0.5"/>
<line x1="1024" y1="681.5" x2="1263.02" y2="681.5" stroke="#BA9344" stroke-opacity="0.5"/>
<line x1="1023" y1="653.501" x2="1262.02" y2="653.501" stroke="#BA9344" stroke-opacity="0.5"/>
<line x1="1023" y1="646.5" x2="1262.02" y2="646.5" stroke="#BA9344" stroke-opacity="0.5"/>
<line x1="1023" y1="639.5" x2="1262.02" y2="639.5" stroke="#BA9344" stroke-opacity="0.5"/>
<line x1="1023" y1="632.5" x2="1262.02" y2="632.5" stroke="#BA9344" stroke-opacity="0.5"/>
<line x1="1024" y1="688.5" x2="1263.02" y2="688.5" stroke="#BA9344" stroke-opacity="0.5"/>
<line x1="1023" y1="667.5" x2="1262.02" y2="667.5" stroke="#BA9344" stroke-opacity="0.5"/>
<line x1="1023" y1="674.5" x2="1262.02" y2="674.5" stroke="#BA9344" stroke-opacity="0.5"/>
<line x1="1023" y1="597.501" x2="1262.02" y2="597.501" stroke="#BA9344" stroke-opacity="0.5"/>
<line x1="1024" y1="618.501" x2="1263.02" y2="618.501" stroke="#BA9344" stroke-opacity="0.5"/>
<line x1="1023" y1="590.5" x2="1262.02" y2="590.5" stroke="#BA9344" stroke-opacity="0.5"/>
<line x1="1023" y1="583.501" x2="1262.02" y2="583.501" stroke="#BA9344" stroke-opacity="0.5"/>
<line x1="1023" y1="576.5" x2="1262.02" y2="576.5" stroke="#BA9344" stroke-opacity="0.5"/>
<line x1="1023" y1="569.5" x2="1262.02" y2="569.5" stroke="#BA9344" stroke-opacity="0.5"/>
<line x1="1024" y1="625.5" x2="1263.02" y2="625.5" stroke="#BA9344" stroke-opacity="0.5"/>
<line x1="1023" y1="604.5" x2="1262.02" y2="604.5" stroke="#BA9344" stroke-opacity="0.5"/>
<line x1="1023" y1="611.501" x2="1262.02" y2="611.501" stroke="#BA9344" stroke-opacity="0.5"/>
</g>
<mask id="mask6" mask-type="alpha" maskUnits="userSpaceOnUse" x="0" y="1314" width="200" height="200">
<circle cx="100" cy="1414" r="100" fill="#F5F2F2"/>
</mask>
<g mask="url(#mask6)">
<rect x="-40" y="1292" width="239" height="228" fill="#F5F2F2"/>
<line x1="-40" y1="1319.5" x2="199.019" y2="1319.5" stroke="#BA9344" stroke-opacity="0.5"/>
<line x1="-39" y1="1340.5" x2="200.019" y2="1340.5" stroke="#BA9344" stroke-opacity="0.5"/>
<line x1="-39" y1="1347.5" x2="200.019" y2="1347.5" stroke="#BA9344" stroke-opacity="0.5"/>
<line x1="-40" y1="1326.5" x2="199.019" y2="1326.5" stroke="#BA9344" stroke-opacity="0.5"/>
<line x1="-40" y1="1333.5" x2="199.019" y2="1333.5" stroke="#BA9344" stroke-opacity="0.5"/>
<line x1="-41" y1="1508.5" x2="198.019" y2="1508.5" stroke="#BA9344" stroke-opacity="0.5"/>
<line x1="-41" y1="1501.5" x2="198.019" y2="1501.5" stroke="#BA9344" stroke-opacity="0.5"/>
<line x1="-41" y1="1494.5" x2="198.019" y2="1494.5" stroke="#BA9344" stroke-opacity="0.5"/>
<line x1="-41" y1="1487.5" x2="198.019" y2="1487.5" stroke="#BA9344" stroke-opacity="0.5"/>
<line x1="-41" y1="1480.5" x2="198.019" y2="1480.5" stroke="#BA9344" stroke-opacity="0.5"/>
<line x1="-40" y1="1445.5" x2="199.019" y2="1445.5" stroke="#BA9344" stroke-opacity="0.5"/>
<line x1="-39" y1="1466.5" x2="200.019" y2="1466.5" stroke="#BA9344" stroke-opacity="0.5"/>
<line x1="-40" y1="1438.5" x2="199.019" y2="1438.5" stroke="#BA9344" stroke-opacity="0.5"/>
<line x1="-40" y1="1431.5" x2="199.019" y2="1431.5" stroke="#BA9344" stroke-opacity="0.5"/>
<line x1="-40" y1="1424.5" x2="199.019" y2="1424.5" stroke="#BA9344" stroke-opacity="0.5"/>
<line x1="-40" y1="1417.5" x2="199.019" y2="1417.5" stroke="#BA9344" stroke-opacity="0.5"/>
<line x1="-39" y1="1473.5" x2="200.019" y2="1473.5" stroke="#BA9344" stroke-opacity="0.5"/>
<line x1="-40" y1="1452.5" x2="199.019" y2="1452.5" stroke="#BA9344" stroke-opacity="0.5"/>
<line x1="-40" y1="1459.5" x2="199.019" y2="1459.5" stroke="#BA9344" stroke-opacity="0.5"/>
<line x1="-40" y1="1382.5" x2="199.019" y2="1382.5" stroke="#BA9344" stroke-opacity="0.5"/>
<line x1="-39" y1="1403.5" x2="200.019" y2="1403.5" stroke="#BA9344" stroke-opacity="0.5"/>
<line x1="-40" y1="1375.5" x2="199.019" y2="1375.5" stroke="#BA9344" stroke-opacity="0.5"/>
<line x1="-40" y1="1368.5" x2="199.019" y2="1368.5" stroke="#BA9344" stroke-opacity="0.5"/>
<line x1="-40" y1="1361.5" x2="199.019" y2="1361.5" stroke="#BA9344" stroke-opacity="0.5"/>
<line x1="-40" y1="1354.5" x2="199.019" y2="1354.5" stroke="#BA9344" stroke-opacity="0.5"/>
<line x1="-39" y1="1410.5" x2="200.019" y2="1410.5" stroke="#BA9344" stroke-opacity="0.5"/>
<line x1="-40" y1="1389.5" x2="199.019" y2="1389.5" stroke="#BA9344" stroke-opacity="0.5"/>
<line x1="-40" y1="1396.5" x2="199.019" y2="1396.5" stroke="#BA9344" stroke-opacity="0.5"/>
</g>
<mask id="mask7" mask-type="alpha" maskUnits="userSpaceOnUse" x="-47" y="473" width="200" height="200">
<circle cx="53" cy="573" r="100" fill="#F5F2F2"/>
</mask>
<g mask="url(#mask7)">
<rect x="-67" y="451" width="239" height="228" fill="#F5F2F2"/>
<line x1="-67" y1="478.5" x2="172.019" y2="478.5" stroke="#73B9C2" stroke-opacity="0.7"/>
<line x1="-66" y1="499.5" x2="173.019" y2="499.5" stroke="#73B9C2" stroke-opacity="0.7"/>
<line x1="-66" y1="506.5" x2="173.019" y2="506.5" stroke="#73B9C2" stroke-opacity="0.7"/>
<line x1="-67" y1="485.5" x2="172.019" y2="485.5" stroke="#73B9C2" stroke-opacity="0.7"/>
<line x1="-67" y1="492.5" x2="172.019" y2="492.5" stroke="#73B9C2" stroke-opacity="0.7"/>
<line x1="-68" y1="667.5" x2="171.019" y2="667.5" stroke="#73B9C2" stroke-opacity="0.7"/>
<line x1="-68" y1="660.5" x2="171.019" y2="660.5" stroke="#73B9C2" stroke-opacity="0.7"/>
<line x1="-68" y1="653.5" x2="171.019" y2="653.5" stroke="#73B9C2" stroke-opacity="0.7"/>
<line x1="-68" y1="646.5" x2="171.019" y2="646.5" stroke="#73B9C2" stroke-opacity="0.7"/>
<line x1="-68" y1="639.5" x2="171.019" y2="639.5" stroke="#73B9C2" stroke-opacity="0.7"/>
<line x1="-67" y1="604.5" x2="172.019" y2="604.5" stroke="#73B9C2" stroke-opacity="0.7"/>
<line x1="-66" y1="625.5" x2="173.019" y2="625.5" stroke="#73B9C2" stroke-opacity="0.7"/>
<line x1="-67" y1="597.5" x2="172.019" y2="597.5" stroke="#73B9C2" stroke-opacity="0.7"/>
<line x1="-67" y1="590.5" x2="172.019" y2="590.5" stroke="#73B9C2" stroke-opacity="0.7"/>
<line x1="-67" y1="583.5" x2="172.019" y2="583.5" stroke="#73B9C2" stroke-opacity="0.7"/>
<line x1="-67" y1="576.5" x2="172.019" y2="576.5" stroke="#73B9C2" stroke-opacity="0.7"/>
<line x1="-66" y1="632.5" x2="173.019" y2="632.5" stroke="#73B9C2" stroke-opacity="0.7"/>
<line x1="-67" y1="611.5" x2="172.019" y2="611.5" stroke="#73B9C2" stroke-opacity="0.7"/>
<line x1="-67" y1="618.5" x2="172.019" y2="618.5" stroke="#73B9C2" stroke-opacity="0.7"/>
<line x1="-67" y1="541.5" x2="172.019" y2="541.5" stroke="#73B9C2" stroke-opacity="0.7"/>
<line x1="-66" y1="562.5" x2="173.019" y2="562.5" stroke="#73B9C2" stroke-opacity="0.7"/>
<line x1="-67" y1="534.5" x2="172.019" y2="534.5" stroke="#73B9C2" stroke-opacity="0.7"/>
<line x1="-67" y1="527.5" x2="172.019" y2="527.5" stroke="#73B9C2" stroke-opacity="0.7"/>
<line x1="-67" y1="520.5" x2="172.019" y2="520.5" stroke="#73B9C2" stroke-opacity="0.7"/>
<line x1="-67" y1="513.5" x2="172.019" y2="513.5" stroke="#73B9C2" stroke-opacity="0.7"/>
<line x1="-66" y1="569.5" x2="173.019" y2="569.5" stroke="#73B9C2" stroke-opacity="0.7"/>
<line x1="-67" y1="548.5" x2="172.019" y2="548.5" stroke="#73B9C2" stroke-opacity="0.7"/>
<line x1="-67" y1="555.5" x2="172.019" y2="555.5" stroke="#73B9C2" stroke-opacity="0.7"/>
</g>
<circle cx="1373" cy="398" r="100" fill="#73B9C2" fill-opacity="0.7"/>
<mask id="mask8" mask-type="alpha" maskUnits="userSpaceOnUse" x="1010" y="2103" width="280" height="280">
<circle cx="1150" cy="2243" r="140" fill="#F5F2F2"/>
</mask>
<g mask="url(#mask8)">
<rect x="982" y="2072.2" width="334.6" height="319.2" fill="#F5F2F2"/>
<line x1="982" y1="2110.9" x2="1316.63" y2="2110.9" stroke="#73B9C2" stroke-opacity="0.7"/>
<line x1="983.4" y1="2140.3" x2="1318.03" y2="2140.3" stroke="#73B9C2" stroke-opacity="0.7"/>
<line x1="983.4" y1="2150.1" x2="1318.03" y2="2150.1" stroke="#73B9C2" stroke-opacity="0.7"/>
<line x1="982" y1="2120.7" x2="1316.63" y2="2120.7" stroke="#73B9C2" stroke-opacity="0.7"/>
<line x1="982" y1="2130.5" x2="1316.63" y2="2130.5" stroke="#73B9C2" stroke-opacity="0.7"/>
<line x1="980.6" y1="2375.5" x2="1315.23" y2="2375.5" stroke="#73B9C2" stroke-opacity="0.7"/>
<line x1="980.6" y1="2365.7" x2="1315.23" y2="2365.7" stroke="#73B9C2" stroke-opacity="0.7"/>
<line x1="980.6" y1="2355.9" x2="1315.23" y2="2355.9" stroke="#73B9C2" stroke-opacity="0.7"/>
<line x1="980.6" y1="2346.1" x2="1315.23" y2="2346.1" stroke="#73B9C2" stroke-opacity="0.7"/>
<line x1="980.6" y1="2336.3" x2="1315.23" y2="2336.3" stroke="#73B9C2" stroke-opacity="0.7"/>
<line x1="982" y1="2287.3" x2="1316.63" y2="2287.3" stroke="#73B9C2" stroke-opacity="0.7"/>
<line x1="983.4" y1="2316.7" x2="1318.03" y2="2316.7" stroke="#73B9C2" stroke-opacity="0.7"/>
<line x1="982" y1="2277.5" x2="1316.63" y2="2277.5" stroke="#73B9C2" stroke-opacity="0.7"/>
<line x1="982" y1="2267.7" x2="1316.63" y2="2267.7" stroke="#73B9C2" stroke-opacity="0.7"/>
<line x1="982" y1="2257.9" x2="1316.63" y2="2257.9" stroke="#73B9C2" stroke-opacity="0.7"/>
<line x1="982" y1="2248.1" x2="1316.63" y2="2248.1" stroke="#73B9C2" stroke-opacity="0.7"/>
<line x1="983.4" y1="2326.5" x2="1318.03" y2="2326.5" stroke="#73B9C2" stroke-opacity="0.7"/>
<line x1="982" y1="2297.1" x2="1316.63" y2="2297.1" stroke="#73B9C2" stroke-opacity="0.7"/>
<line x1="982" y1="2306.9" x2="1316.63" y2="2306.9" stroke="#73B9C2" stroke-opacity="0.7"/>
<line x1="982" y1="2199.1" x2="1316.63" y2="2199.1" stroke="#73B9C2" stroke-opacity="0.7"/>
<line x1="983.4" y1="2228.5" x2="1318.03" y2="2228.5" stroke="#73B9C2" stroke-opacity="0.7"/>
<line x1="982" y1="2189.3" x2="1316.63" y2="2189.3" stroke="#73B9C2" stroke-opacity="0.7"/>
<line x1="982" y1="2179.5" x2="1316.63" y2="2179.5" stroke="#73B9C2" stroke-opacity="0.7"/>
<line x1="982" y1="2169.7" x2="1316.63" y2="2169.7" stroke="#73B9C2" stroke-opacity="0.7"/>
<line x1="982" y1="2159.9" x2="1316.63" y2="2159.9" stroke="#73B9C2" stroke-opacity="0.7"/>
<line x1="983.4" y1="2238.3" x2="1318.03" y2="2238.3" stroke="#73B9C2" stroke-opacity="0.7"/>
<line x1="982" y1="2208.9" x2="1316.63" y2="2208.9" stroke="#73B9C2" stroke-opacity="0.7"/>
<line x1="982" y1="2218.7" x2="1316.63" y2="2218.7" stroke="#73B9C2" stroke-opacity="0.7"/>
</g>
</g>
<defs>
<clipPath id="clip0">
<rect width="1440" height="3233" fill="white"/>
</clipPath>
</defs>
</svg>
