<svg width="375" height="667" viewBox="0 0 375 667" fill="none" xmlns="http://www.w3.org/2000/svg">
<g clip-path="url(#clip0)">
<rect width="375" height="667" fill="white"/>
<path fill-rule="evenodd" clip-rule="evenodd" d="M16 610.5H359V611H16V610.5Z" fill="#BCBBC1"/>
<path fill-rule="evenodd" clip-rule="evenodd" d="M16 565.5H359V566H16V565.5Z" fill="#BCBBC1"/>
<path d="M66.3252 593V587.845L70.5752 581.022H68.8735L65.6445 586.343H65.5117L62.2827 581.022H60.5811L64.8311 587.845V593H66.3252ZM74.2492 585.156C75.6686 585.156 76.6149 586.202 76.6481 587.787H71.7174C71.8254 586.202 72.8214 585.156 74.2492 585.156ZM76.6066 590.684C76.2331 591.473 75.4528 591.896 74.299 591.896C72.7799 591.896 71.7921 590.775 71.7174 589.007V588.941H78.1505V588.393C78.1505 585.612 76.6813 583.894 74.2658 583.894C71.8088 583.894 70.2316 585.72 70.2316 588.534C70.2316 591.365 71.7838 593.158 74.2658 593.158C76.2248 593.158 77.6027 592.22 78.0343 590.684H76.6066ZM80.0648 593H81.4925V580.499H80.0648V593ZM83.938 593H85.3657V580.499H83.938V593ZM91.4054 593.158C93.9538 593.158 95.5309 591.398 95.5309 588.526C95.5309 585.646 93.9538 583.894 91.4054 583.894C88.8571 583.894 87.2799 585.646 87.2799 588.526C87.2799 591.398 88.8571 593.158 91.4054 593.158ZM91.4054 591.871C89.7121 591.871 88.7575 590.643 88.7575 588.526C88.7575 586.401 89.7121 585.181 91.4054 585.181C93.0988 585.181 94.0534 586.401 94.0534 588.526C94.0534 590.643 93.0988 591.871 91.4054 591.871ZM108.286 584.052H106.85L105.09 591.207H104.957L102.957 584.052H101.587L99.5867 591.207H99.4539L97.6941 584.052H96.2498L98.7566 593H100.201L102.193 586.077H102.326L104.326 593H105.779L108.286 584.052Z" fill="black"/>
<path fill-rule="evenodd" clip-rule="evenodd" d="M16 521.5H359V522H16V521.5Z" fill="#BCBBC1"/>
<path d="M66.5659 536.74C63.1792 536.74 61.0625 539.155 61.0625 543.007C61.0625 546.842 63.1294 549.282 66.5659 549.282C69.9858 549.282 72.0444 546.833 72.0444 543.007C72.0444 539.164 69.9692 536.74 66.5659 536.74ZM66.5659 538.118C69.0146 538.118 70.5088 540.01 70.5088 543.007C70.5088 545.979 69.0229 547.904 66.5659 547.904C64.0757 547.904 62.5981 545.979 62.5981 543.007C62.5981 540.01 64.1255 538.118 66.5659 538.118ZM74.05 549H75.4777V543.455C75.4777 542.193 76.4655 541.28 77.8268 541.28C78.109 541.28 78.6237 541.33 78.7399 541.363V539.936C78.5573 539.911 78.2585 539.894 78.026 539.894C76.839 539.894 75.8097 540.508 75.5441 541.38H75.4113V540.052H74.05V549ZM82.8704 547.904C81.8328 547.904 81.0609 547.373 81.0609 546.46C81.0609 545.563 81.6585 545.09 83.0198 544.999L85.4271 544.841V545.663C85.4271 546.941 84.3397 547.904 82.8704 547.904ZM82.6048 549.158C83.8001 549.158 84.7796 548.635 85.3607 547.68H85.4935V549H86.8548V542.874C86.8548 541.015 85.6346 539.894 83.4515 539.894C81.5423 539.894 80.1312 540.84 79.9403 542.276H81.3846C81.5838 541.571 82.3309 541.164 83.4017 541.164C84.7381 541.164 85.4271 541.77 85.4271 542.874V543.688L82.8455 543.845C80.762 543.97 79.5833 544.891 79.5833 546.493C79.5833 548.128 80.8699 549.158 82.6048 549.158ZM89.0845 549H90.5122V543.704C90.5122 542.135 91.4336 541.181 92.8613 541.181C94.289 541.181 94.9697 541.944 94.9697 543.555V549H96.3974V543.206C96.3974 541.081 95.2768 539.894 93.268 539.894C91.8984 539.894 91.0268 540.475 90.5786 541.463H90.4458V540.052H89.0845V549ZM102.221 547.605C100.561 547.605 99.6315 546.344 99.6315 544.393C99.6315 542.442 100.561 541.181 102.221 541.181C103.873 541.181 104.878 542.442 104.878 544.393C104.878 546.344 103.881 547.605 102.221 547.605ZM102.288 552.437C104.728 552.437 106.272 551.158 106.272 549.158V540.052H104.911V541.471H104.778C104.263 540.508 103.159 539.894 101.906 539.894C99.6066 539.894 98.1539 541.712 98.1539 544.393C98.1539 547.074 99.59 548.867 101.906 548.867C103.134 548.867 104.147 548.311 104.712 547.323H104.844V549.083C104.844 550.403 103.89 551.191 102.288 551.191C101.001 551.191 100.204 550.718 100.047 549.988H98.5358C98.7516 551.465 100.13 552.437 102.288 552.437ZM112.121 541.156C113.54 541.156 114.487 542.202 114.52 543.787H109.589C109.697 542.202 110.693 541.156 112.121 541.156ZM114.478 546.684C114.105 547.473 113.325 547.896 112.171 547.896C110.652 547.896 109.664 546.775 109.589 545.007V544.941H116.022V544.393C116.022 541.612 114.553 539.894 112.138 539.894C109.68 539.894 108.103 541.72 108.103 544.534C108.103 547.365 109.656 549.158 112.138 549.158C114.096 549.158 115.474 548.22 115.906 546.684H114.478Z" fill="black"/>
<path d="M63.0215 494.35H65.9019C67.4458 494.35 68.3755 495.205 68.3755 496.641C68.3755 498.11 67.5039 498.932 65.9683 498.932H63.0215V494.35ZM63.0215 500.26H65.9683L68.5332 505H70.2847L67.5122 500.028C69.0146 499.555 69.9194 498.26 69.9194 496.591C69.9194 494.433 68.4087 493.022 66.1011 493.022H61.5273V505H63.0215V500.26ZM75.3615 497.156C76.7809 497.156 77.7272 498.202 77.7604 499.787H72.8297C72.9377 498.202 73.9338 497.156 75.3615 497.156ZM77.7189 502.684C77.3454 503.473 76.5651 503.896 75.4113 503.896C73.8922 503.896 72.9045 502.775 72.8297 501.007V500.941H79.2629V500.393C79.2629 497.612 77.7936 495.894 75.3781 495.894C72.9211 495.894 71.3439 497.72 71.3439 500.534C71.3439 503.365 72.8962 505.158 75.3781 505.158C77.3371 505.158 78.715 504.22 79.1466 502.684H77.7189ZM84.4061 505.158C85.6429 505.158 86.7054 504.568 87.2698 503.572H87.4027V505H88.764V492.499H87.3363V497.463H87.2117C86.7054 496.483 85.6512 495.894 84.4061 495.894C82.1317 495.894 80.6458 497.72 80.6458 500.526C80.6458 503.34 82.1151 505.158 84.4061 505.158ZM84.7381 497.181C86.3568 497.181 87.3695 498.476 87.3695 500.526C87.3695 502.593 86.3651 503.871 84.7381 503.871C83.1029 503.871 82.1234 502.618 82.1234 500.526C82.1234 498.442 83.1112 497.181 84.7381 497.181Z" fill="black"/>
<path fill-rule="evenodd" clip-rule="evenodd" d="M16 477.5H359V478H16V477.5Z" fill="#BCBBC1"/>
<path d="M363 446.274L361.768 445L356.5 450.45L351.232 445L350 446.274L356.5 453L363 446.274Z" fill="#8A8A8F"/>
<path d="M16.2363 437.412V435.307H28.5039V437.412H23.6055V452H21.1562V437.412H16.2363ZM31.3161 448.691C31.3161 449.178 31.5095 449.587 31.8962 449.916C32.2972 450.245 32.8343 450.41 33.5075 450.41C34.4242 450.41 35.2048 450.117 35.8493 449.529C36.4938 448.928 36.8161 448.147 36.8161 447.188V445.877C36.1572 446.035 35.2907 446.199 34.2165 446.371C33.2425 446.529 32.5121 446.794 32.0251 447.166C31.5524 447.538 31.3161 448.047 31.3161 448.691ZM28.9098 448.885C28.9098 446.622 30.6214 445.225 34.0446 444.695C35.4626 444.48 36.3864 444.301 36.8161 444.158V443.492C36.8161 442.848 36.5798 442.339 36.1071 441.967C35.6488 441.58 35.0257 441.387 34.238 441.387C32.8486 441.387 31.667 441.952 30.693 443.084L29.2321 441.838C29.848 441.107 30.5856 440.535 31.445 440.119C32.3187 439.704 33.2354 439.496 34.195 439.496C37.5179 439.496 39.1794 441.129 39.1794 444.395V452H36.8805V450.324C36.6371 450.883 36.1787 451.37 35.5055 451.785C34.8324 452.186 34.0518 452.387 33.1637 452.387C31.846 452.387 30.8076 452.064 30.0485 451.42C29.2894 450.761 28.9098 449.916 28.9098 448.885ZM44.183 445.705C44.183 447.008 44.4408 448.033 44.9564 448.777C45.4864 449.522 46.1882 449.895 47.0619 449.895C47.9356 449.895 48.6302 449.536 49.1459 448.82C49.6615 448.09 49.9193 447.051 49.9193 445.705C49.9193 444.387 49.6543 443.363 49.1244 442.633C48.6087 441.888 47.9356 441.516 47.1048 441.516C46.2168 441.516 45.5078 441.902 44.9779 442.676C44.4479 443.435 44.183 444.445 44.183 445.705ZM41.7767 445.727C41.7767 443.836 42.2422 442.325 43.1732 441.193C44.1185 440.062 45.3216 439.496 46.7826 439.496C47.5847 439.496 48.2507 439.704 48.7806 440.119C49.3249 440.52 49.7116 440.971 49.9408 441.473V439.883H52.2826V450.41C52.2826 452.702 51.8457 454.392 50.972 455.48C50.1127 456.583 48.7663 457.135 46.933 457.135C44.9134 457.135 43.3594 456.376 42.2709 454.857L43.8607 453.762C44.7344 454.75 45.78 455.244 46.9974 455.244C47.8568 455.244 48.5515 454.908 49.0814 454.234C49.6114 453.561 49.8907 452.68 49.9193 451.592C49.9193 451.42 49.9193 451.162 49.9193 450.818C49.9336 450.475 49.9408 450.238 49.9408 450.109C49.6543 450.639 49.239 451.076 48.6947 451.42C48.1504 451.749 47.5417 451.914 46.8685 451.914C45.336 451.914 44.1042 451.348 43.1732 450.217C42.2422 449.071 41.7767 447.574 41.7767 445.727ZM54.7725 449.508L56.4912 448.52C57.3649 449.809 58.4893 450.453 59.8643 450.453C60.5948 450.453 61.182 450.31 61.626 450.023C62.07 449.723 62.292 449.329 62.292 448.842C62.292 448.212 61.8194 447.696 60.8741 447.295C60.5733 447.152 59.8929 446.915 58.833 446.586C58.3317 446.428 57.8949 446.271 57.5225 446.113C57.1644 445.941 56.792 445.719 56.4053 445.447C56.0329 445.161 55.7465 444.81 55.5459 444.395C55.3454 443.979 55.2452 443.507 55.2452 442.977C55.2452 441.931 55.682 441.093 56.5557 440.463C57.4294 439.818 58.5394 439.496 59.8858 439.496C60.8741 439.496 61.7979 439.761 62.6573 440.291C63.5166 440.821 64.154 441.473 64.5694 442.246L63.001 443.213C62.1846 442.024 61.1462 441.43 59.8858 441.43C59.1553 441.43 58.5967 441.58 58.21 441.881C57.8233 442.167 57.6299 442.547 57.6299 443.02C57.6299 443.277 57.7015 443.514 57.8448 443.729C57.988 443.943 58.1312 444.115 58.2745 444.244C58.432 444.373 58.6898 444.516 59.0479 444.674C59.4203 444.817 59.6924 444.917 59.8643 444.975C60.0505 445.032 60.3656 445.132 60.8096 445.275C63.4164 446.077 64.7198 447.273 64.7198 448.863C64.7198 449.852 64.2972 450.689 63.4522 451.377C62.6071 452.05 61.4255 452.387 59.9073 452.387C58.7758 452.387 57.7588 452.129 56.8565 451.613C55.9541 451.098 55.2595 450.396 54.7725 449.508Z" fill="#BB1900"/>
<path d="M363 387.274L361.768 386L356.5 391.45L351.232 386L350 387.274L356.5 394L363 387.274Z" fill="#8A8A8F"/>
<path d="M18.0195 393V376.307H28.4824V378.412H20.4688V383.59H27.666V385.652H20.4688V393H18.0195ZM32.068 389.691C32.068 390.178 32.2614 390.587 32.6481 390.916C33.0492 391.245 33.5863 391.41 34.2595 391.41C35.1761 391.41 35.9567 391.117 36.6012 390.529C37.2458 389.928 37.568 389.147 37.568 388.188V386.877C36.9092 387.035 36.0427 387.199 34.9684 387.371C33.9945 387.529 33.264 387.794 32.777 388.166C32.3044 388.538 32.068 389.047 32.068 389.691ZM29.6618 389.885C29.6618 387.622 31.3734 386.225 34.7966 385.695C36.2145 385.48 37.1384 385.301 37.568 385.158V384.492C37.568 383.848 37.3317 383.339 36.8591 382.967C36.4007 382.58 35.7777 382.387 34.9899 382.387C33.6006 382.387 32.419 382.952 31.445 384.084L29.9841 382.838C30.5999 382.107 31.3376 381.535 32.197 381.119C33.0707 380.704 33.9873 380.496 34.947 380.496C38.2699 380.496 39.9313 382.129 39.9313 385.395V393H37.6325V391.324C37.389 391.883 36.9307 392.37 36.2575 392.785C35.5843 393.186 34.8037 393.387 33.9157 393.387C32.598 393.387 31.5596 393.064 30.8005 392.42C30.0414 391.761 29.6618 390.916 29.6618 389.885ZM41.8197 380.883H44.4193L46.5033 387.543C46.9759 389.262 47.291 390.408 47.4486 390.98H47.4916C47.5918 390.608 47.7565 390.028 47.9857 389.24C48.2292 388.438 48.3939 387.872 48.4798 387.543L50.5423 380.883H53.142L48.8451 393H46.1166L41.8197 380.883ZM56.5557 386.941C56.5557 388.388 56.8636 389.491 57.4795 390.25C58.0954 391.009 58.833 391.389 59.6924 391.389C60.5375 391.389 61.2679 391.009 61.8838 390.25C62.514 389.491 62.8291 388.388 62.8291 386.941C62.8291 385.48 62.514 384.378 61.8838 383.633C61.2679 382.888 60.5375 382.516 59.6924 382.516C58.8474 382.516 58.1097 382.888 57.4795 383.633C56.8636 384.378 56.5557 385.48 56.5557 386.941ZM54.1495 386.941C54.1495 385.767 54.3357 384.707 54.708 383.762C55.0948 382.816 55.7178 382.036 56.5772 381.42C57.4366 380.804 58.475 380.496 59.6924 380.496C61.4828 380.496 62.8506 381.119 63.7959 382.365C64.7556 383.597 65.2354 385.122 65.2354 386.941C65.2354 387.686 65.1423 388.417 64.9561 389.133C64.7699 389.835 64.4691 390.515 64.0537 391.174C63.6527 391.833 63.0726 392.37 62.3135 392.785C61.5687 393.186 60.695 393.387 59.6924 393.387C58.6898 393.387 57.8161 393.193 57.0713 392.807C56.3265 392.406 55.7465 391.883 55.3311 391.238C54.9301 390.579 54.6293 389.892 54.4287 389.176C54.2426 388.46 54.1495 387.715 54.1495 386.941ZM67.7898 388.66V380.883H70.1745V388.295C70.1745 390.357 70.905 391.389 72.3659 391.389C73.254 391.389 73.9343 391.031 74.407 390.314C74.8939 389.584 75.1374 388.717 75.1374 387.715V380.883H77.4792V393H75.2234V391.41H75.1804C74.9799 391.883 74.6003 392.334 74.0417 392.764C73.4831 393.179 72.7455 393.387 71.8288 393.387C70.726 393.387 69.7735 393.014 68.9714 392.27C68.1836 391.525 67.7898 390.322 67.7898 388.66ZM80.9359 393V380.883H83.1918V382.344C83.4353 381.871 83.822 381.449 84.352 381.076C84.8819 380.689 85.5193 380.496 86.2641 380.496C86.9229 380.496 87.46 380.589 87.8754 380.775V382.945C87.4027 382.759 86.8656 382.666 86.2641 382.666C85.3187 382.666 84.5883 383.031 84.0727 383.762C83.5714 384.478 83.3207 385.438 83.3207 386.641V393H80.9359ZM89.8497 378.777V376.07H92.4923V378.777H89.8497ZM90.0216 393V380.883H92.3634V393H90.0216ZM94.9392 382.902V380.883H96.8943V377.209H99.2576V380.883H102.158V382.902H99.2576V389.219C99.2576 389.849 99.3793 390.3 99.6228 390.572C99.8806 390.844 100.267 390.98 100.783 390.98H102.158V393H100.482C98.0903 393 96.8943 391.797 96.8943 389.391V382.902H94.9392ZM103.96 386.877C103.96 384.958 104.483 383.418 105.529 382.258C106.589 381.083 107.928 380.496 109.546 380.496C111.165 380.496 112.475 381.076 113.478 382.236C114.495 383.396 115.003 384.893 115.003 386.727C115.003 386.755 114.982 387.092 114.939 387.736H106.345C106.345 388.753 106.639 389.627 107.226 390.357C107.813 391.088 108.63 391.453 109.675 391.453C110.377 391.453 111 391.281 111.544 390.938C112.089 390.594 112.504 390.15 112.79 389.605L114.767 390.271C114.38 391.174 113.75 391.919 112.876 392.506C112.017 393.093 110.943 393.387 109.654 393.387C107.964 393.387 106.589 392.799 105.529 391.625C104.483 390.436 103.96 388.854 103.96 386.877ZM106.388 386.039H112.597C112.597 385.022 112.325 384.163 111.781 383.461C111.236 382.759 110.492 382.408 109.546 382.408C108.587 382.408 107.828 382.766 107.269 383.482C106.71 384.199 106.417 385.051 106.388 386.039ZM116.72 390.508L118.439 389.52C119.312 390.809 120.437 391.453 121.812 391.453C122.542 391.453 123.129 391.31 123.573 391.023C124.017 390.723 124.239 390.329 124.239 389.842C124.239 389.212 123.767 388.696 122.821 388.295C122.521 388.152 121.84 387.915 120.78 387.586C120.279 387.428 119.842 387.271 119.47 387.113C119.112 386.941 118.739 386.719 118.353 386.447C117.98 386.161 117.694 385.81 117.493 385.395C117.293 384.979 117.192 384.507 117.192 383.977C117.192 382.931 117.629 382.093 118.503 381.463C119.377 380.818 120.487 380.496 121.833 380.496C122.821 380.496 123.745 380.761 124.605 381.291C125.464 381.821 126.101 382.473 126.517 383.246L124.948 384.213C124.132 383.024 123.094 382.43 121.833 382.43C121.103 382.43 120.544 382.58 120.157 382.881C119.771 383.167 119.577 383.547 119.577 384.02C119.577 384.277 119.649 384.514 119.792 384.729C119.935 384.943 120.079 385.115 120.222 385.244C120.379 385.373 120.637 385.516 120.995 385.674C121.368 385.817 121.64 385.917 121.812 385.975C121.998 386.032 122.313 386.132 122.757 386.275C125.364 387.077 126.667 388.273 126.667 389.863C126.667 390.852 126.245 391.689 125.4 392.377C124.554 393.05 123.373 393.387 121.855 393.387C120.723 393.387 119.706 393.129 118.804 392.613C117.901 392.098 117.207 391.396 116.72 390.508Z" fill="#BB1900"/>
<path d="M63.0215 332.35H65.9019C67.4458 332.35 68.3755 333.205 68.3755 334.641C68.3755 336.11 67.5039 336.932 65.9683 336.932H63.0215V332.35ZM63.0215 338.26H65.9683L68.5332 343H70.2847L67.5122 338.028C69.0146 337.555 69.9194 336.26 69.9194 334.591C69.9194 332.433 68.4087 331.022 66.1011 331.022H61.5273V343H63.0215V338.26ZM75.3615 335.156C76.7809 335.156 77.7272 336.202 77.7604 337.787H72.8297C72.9377 336.202 73.9338 335.156 75.3615 335.156ZM77.7189 340.684C77.3454 341.473 76.5651 341.896 75.4113 341.896C73.8922 341.896 72.9045 340.775 72.8297 339.007V338.941H79.2629V338.393C79.2629 335.612 77.7936 333.894 75.3781 333.894C72.9211 333.894 71.3439 335.72 71.3439 338.534C71.3439 341.365 72.8962 343.158 75.3781 343.158C77.3371 343.158 78.715 342.22 79.1466 340.684H77.7189ZM88.4984 336.791C88.2493 335.197 86.9212 333.894 84.7464 333.894C82.2396 333.894 80.6458 335.704 80.6458 338.493C80.6458 341.34 82.2479 343.158 84.7547 343.158C86.9046 343.158 88.241 341.946 88.4984 340.302H87.054C86.7884 341.315 85.95 341.871 84.7464 341.871C83.1527 341.871 82.1234 340.56 82.1234 338.493C82.1234 336.467 83.1361 335.181 84.7464 335.181C86.033 335.181 86.8216 335.903 87.054 336.791H88.4984ZM93.7661 335.156C95.1855 335.156 96.1318 336.202 96.165 337.787H91.2344C91.3423 336.202 92.3384 335.156 93.7661 335.156ZM96.1235 340.684C95.75 341.473 94.9697 341.896 93.8159 341.896C92.2969 341.896 91.3091 340.775 91.2344 339.007V338.941H97.6675V338.393C97.6675 335.612 96.1982 333.894 93.7827 333.894C91.3257 333.894 89.7485 335.72 89.7485 338.534C89.7485 341.365 91.3008 343.158 93.7827 343.158C95.7417 343.158 97.1196 342.22 97.5513 340.684H96.1235ZM99.4987 343H100.926V337.704C100.926 336.135 101.848 335.181 103.276 335.181C104.703 335.181 105.384 335.944 105.384 337.555V343H106.812V337.206C106.812 335.081 105.691 333.894 103.682 333.894C102.313 333.894 101.441 334.475 100.993 335.463H100.86V334.052H99.4987V343ZM109.614 331.736V334.052H108.17V335.247H109.614V340.676C109.614 342.386 110.353 343.066 112.196 343.066C112.478 343.066 112.752 343.033 113.034 342.983V341.78C112.768 341.805 112.627 341.813 112.37 341.813C111.44 341.813 111.042 341.365 111.042 340.311V335.247H113.034V334.052H111.042V331.736H109.614ZM114.865 343H116.293V330.499H114.865V343ZM119.419 346.237C121.005 346.237 121.718 345.623 122.482 343.548L125.977 334.052H124.458L122.009 341.415H121.876L119.419 334.052H117.875L121.187 343.008L121.021 343.54C120.648 344.619 120.199 345.009 119.378 345.009C119.178 345.009 118.954 345 118.78 344.967V346.188C118.979 346.221 119.228 346.237 119.419 346.237ZM132.046 331.022V343H136.155C139.716 343 141.808 340.784 141.808 337.007C141.808 333.238 139.708 331.022 136.155 331.022H132.046ZM133.54 332.367H136.056C138.712 332.367 140.281 334.093 140.281 337.023C140.281 339.945 138.728 341.655 136.056 341.655H133.54V332.367ZM147.375 335.156C148.794 335.156 149.74 336.202 149.774 337.787H144.843C144.951 336.202 145.947 335.156 147.375 335.156ZM149.732 340.684C149.358 341.473 148.578 341.896 147.424 341.896C145.905 341.896 144.918 340.775 144.843 339.007V338.941H151.276V338.393C151.276 335.612 149.807 333.894 147.391 333.894C144.934 333.894 143.357 335.72 143.357 338.534C143.357 341.365 144.909 343.158 147.391 343.158C149.35 343.158 150.728 342.22 151.16 340.684H149.732ZM153.19 343H154.618V330.499H153.19V343ZM160.55 335.156C161.969 335.156 162.915 336.202 162.949 337.787H158.018C158.126 336.202 159.122 335.156 160.55 335.156ZM162.907 340.684C162.534 341.473 161.753 341.896 160.6 341.896C159.08 341.896 158.093 340.775 158.018 339.007V338.941H164.451V338.393C164.451 335.612 162.982 333.894 160.566 333.894C158.109 333.894 156.532 335.72 156.532 338.534C156.532 341.365 158.084 343.158 160.566 343.158C162.525 343.158 163.903 342.22 164.335 340.684H162.907ZM166.88 331.736V334.052H165.436V335.247H166.88V340.676C166.88 342.386 167.619 343.066 169.462 343.066C169.744 343.066 170.018 343.033 170.3 342.983V341.78C170.034 341.805 169.893 341.813 169.636 341.813C168.706 341.813 168.308 341.365 168.308 340.311V335.247H170.3V334.052H168.308V331.736H166.88ZM175.485 335.156C176.904 335.156 177.85 336.202 177.884 337.787H172.953C173.061 336.202 174.057 335.156 175.485 335.156ZM177.842 340.684C177.468 341.473 176.688 341.896 175.534 341.896C174.015 341.896 173.028 340.775 172.953 339.007V338.941H179.386V338.393C179.386 335.612 177.917 333.894 175.501 333.894C173.044 333.894 171.467 335.72 171.467 338.534C171.467 341.365 173.019 343.158 175.501 343.158C177.46 343.158 178.838 342.22 179.27 340.684H177.842ZM184.529 343.158C185.766 343.158 186.829 342.568 187.393 341.572H187.526V343H188.887V330.499H187.459V335.463H187.335C186.829 334.483 185.774 333.894 184.529 333.894C182.255 333.894 180.769 335.72 180.769 338.526C180.769 341.34 182.238 343.158 184.529 343.158ZM184.861 335.181C186.48 335.181 187.493 336.476 187.493 338.526C187.493 340.593 186.488 341.871 184.861 341.871C183.226 341.871 182.246 340.618 182.246 338.526C182.246 336.442 183.234 335.181 184.861 335.181Z" fill="black"/>
<path fill-rule="evenodd" clip-rule="evenodd" d="M29.0441 327C28.3353 327 27.6794 327.375 27.3201 327.986L27.06 328.429H24.4286C23.6396 328.429 23 329.068 23 329.857H37C37 329.068 36.3604 328.429 35.5714 328.429H32.94L32.6799 327.986C32.3206 327.375 31.6647 327 30.9559 327H29.0441ZM36.3 330.571H23.7L24.944 345.17C25.0322 346.205 25.8981 347 26.9368 347H33.0632C34.1019 347 34.9678 346.205 35.056 345.17L36.3 330.571ZM30.35 332H29.65V344.143H30.35V332ZM32.1 344.143L32.8 332H33.5L32.8 344.143H32.1ZM26.5 332H27.2L27.9 344.143H27.2L26.5 332Z" fill="#8C8C8C"/>
<path fill-rule="evenodd" clip-rule="evenodd" d="M16 315.5H359V316H16V315.5Z" fill="#BCBBC1"/>
<path d="M63.0215 288.35H65.9019C67.4458 288.35 68.3755 289.205 68.3755 290.641C68.3755 292.11 67.5039 292.932 65.9683 292.932H63.0215V288.35ZM63.0215 294.26H65.9683L68.5332 299H70.2847L67.5122 294.028C69.0146 293.555 69.9194 292.26 69.9194 290.591C69.9194 288.433 68.4087 287.022 66.1011 287.022H61.5273V299H63.0215V294.26ZM75.3615 291.156C76.7809 291.156 77.7272 292.202 77.7604 293.787H72.8297C72.9377 292.202 73.9338 291.156 75.3615 291.156ZM77.7189 296.684C77.3454 297.473 76.5651 297.896 75.4113 297.896C73.8922 297.896 72.9045 296.775 72.8297 295.007V294.941H79.2629V294.393C79.2629 291.612 77.7936 289.894 75.3781 289.894C72.9211 289.894 71.3439 291.72 71.3439 294.534C71.3439 297.365 72.8962 299.158 75.3781 299.158C77.3371 299.158 78.715 298.22 79.1466 296.684H77.7189ZM88.4984 292.791C88.2493 291.197 86.9212 289.894 84.7464 289.894C82.2396 289.894 80.6458 291.704 80.6458 294.493C80.6458 297.34 82.2479 299.158 84.7547 299.158C86.9046 299.158 88.241 297.946 88.4984 296.302H87.054C86.7884 297.315 85.95 297.871 84.7464 297.871C83.1527 297.871 82.1234 296.56 82.1234 294.493C82.1234 292.467 83.1361 291.181 84.7464 291.181C86.033 291.181 86.8216 291.903 87.054 292.791H88.4984ZM93.7661 291.156C95.1855 291.156 96.1318 292.202 96.165 293.787H91.2344C91.3423 292.202 92.3384 291.156 93.7661 291.156ZM96.1235 296.684C95.75 297.473 94.9697 297.896 93.8159 297.896C92.2969 297.896 91.3091 296.775 91.2344 295.007V294.941H97.6675V294.393C97.6675 291.612 96.1982 289.894 93.7827 289.894C91.3257 289.894 89.7485 291.72 89.7485 294.534C89.7485 297.365 91.3008 299.158 93.7827 299.158C95.7417 299.158 97.1196 298.22 97.5513 296.684H96.1235ZM99.4987 299H100.926V293.704C100.926 292.135 101.848 291.181 103.276 291.181C104.703 291.181 105.384 291.944 105.384 293.555V299H106.812V293.206C106.812 291.081 105.691 289.894 103.682 289.894C102.313 289.894 101.441 290.475 100.993 291.463H100.86V290.052H99.4987V299ZM109.614 287.736V290.052H108.17V291.247H109.614V296.676C109.614 298.386 110.353 299.066 112.196 299.066C112.478 299.066 112.752 299.033 113.034 298.983V297.78C112.768 297.805 112.627 297.813 112.37 297.813C111.44 297.813 111.042 297.365 111.042 296.311V291.247H113.034V290.052H111.042V287.736H109.614ZM114.865 299H116.293V286.499H114.865V299ZM119.419 302.237C121.005 302.237 121.718 301.623 122.482 299.548L125.977 290.052H124.458L122.009 297.415H121.876L119.419 290.052H117.875L121.187 299.008L121.021 299.54C120.648 300.619 120.199 301.009 119.378 301.009C119.178 301.009 118.954 301 118.78 300.967V302.188C118.979 302.221 119.228 302.237 119.419 302.237ZM136.985 299L141.401 287.022H139.832L136.313 297.066H136.18L132.661 287.022H131.092L135.508 299H136.985ZM142.942 299H144.37V290.052H142.942V299ZM143.656 288.234C144.204 288.234 144.652 287.786 144.652 287.238C144.652 286.69 144.204 286.242 143.656 286.242C143.108 286.242 142.66 286.69 142.66 287.238C142.66 287.786 143.108 288.234 143.656 288.234ZM150.252 291.156C151.671 291.156 152.617 292.202 152.651 293.787H147.72C147.828 292.202 148.824 291.156 150.252 291.156ZM152.609 296.684C152.236 297.473 151.455 297.896 150.302 297.896C148.782 297.896 147.795 296.775 147.72 295.007V294.941H154.153V294.393C154.153 291.612 152.684 289.894 150.268 289.894C147.811 289.894 146.234 291.72 146.234 294.534C146.234 297.365 147.786 299.158 150.268 299.158C152.227 299.158 153.605 298.22 154.037 296.684H152.609ZM167.24 290.052H165.804L164.044 297.207H163.912L161.911 290.052H160.541L158.541 297.207H158.408L156.648 290.052H155.204L157.711 299H159.155L161.147 292.077H161.28L163.281 299H164.733L167.24 290.052Z" fill="black"/>
<path fill-rule="evenodd" clip-rule="evenodd" d="M16 271.5H359V272H16V271.5Z" fill="#BCBBC1"/>
<path d="M63.0215 255V243.022H61.5273V255H63.0215ZM69.8714 255H71.2991V249.455C71.2991 248.193 72.2039 247.181 73.3743 247.181C74.5032 247.181 75.242 247.861 75.242 248.924V255H76.6697V249.248C76.6697 248.11 77.4998 247.181 78.7449 247.181C80.0067 247.181 80.6292 247.828 80.6292 249.148V255H82.057V248.816C82.057 246.94 81.036 245.894 79.2098 245.894C77.973 245.894 76.952 246.517 76.4705 247.463H76.3377C75.9227 246.533 75.076 245.894 73.8641 245.894C72.6688 245.894 71.7723 246.467 71.3655 247.463H71.2327V246.052H69.8714V255ZM87.0093 253.904C85.9717 253.904 85.1997 253.373 85.1997 252.46C85.1997 251.563 85.7973 251.09 87.1587 250.999L89.5659 250.841V251.663C89.5659 252.941 88.4785 253.904 87.0093 253.904ZM86.7436 255.158C87.9389 255.158 88.9184 254.635 89.4995 253.68H89.6323V255H90.9936V248.874C90.9936 247.015 89.7734 245.894 87.5903 245.894C85.6811 245.894 84.27 246.84 84.0791 248.276H85.5234C85.7226 247.571 86.4697 247.164 87.5405 247.164C88.8769 247.164 89.5659 247.77 89.5659 248.874V249.688L86.9844 249.845C84.9009 249.97 83.7221 250.891 83.7221 252.493C83.7221 254.128 85.0088 255.158 86.7436 255.158ZM96.5353 255.158C97.7721 255.158 98.8346 254.568 99.3991 253.572H99.5319V255H100.893V242.499H99.4655V247.463H99.341C98.8346 246.483 97.7804 245.894 96.5353 245.894C94.2609 245.894 92.775 247.72 92.775 250.526C92.775 253.34 94.2443 255.158 96.5353 255.158ZM96.8673 247.181C98.486 247.181 99.4987 248.476 99.4987 250.526C99.4987 252.593 98.4943 253.871 96.8673 253.871C95.2321 253.871 94.2526 252.618 94.2526 250.526C94.2526 248.442 95.2404 247.181 96.8673 247.181ZM106.825 247.156C108.244 247.156 109.191 248.202 109.224 249.787H104.293C104.401 248.202 105.397 247.156 106.825 247.156ZM109.182 252.684C108.809 253.473 108.029 253.896 106.875 253.896C105.356 253.896 104.368 252.775 104.293 251.007V250.941H110.726V250.393C110.726 247.612 109.257 245.894 106.842 245.894C104.385 245.894 102.807 247.72 102.807 250.534C102.807 253.365 104.36 255.158 106.842 255.158C108.801 255.158 110.179 254.22 110.61 252.684H109.182ZM116.979 255H118.406V246.052H116.979V255ZM117.693 244.234C118.24 244.234 118.689 243.786 118.689 243.238C118.689 242.69 118.24 242.242 117.693 242.242C117.145 242.242 116.696 242.69 116.696 243.238C116.696 243.786 117.145 244.234 117.693 244.234ZM121.317 243.736V246.052H119.872V247.247H121.317V252.676C121.317 254.386 122.055 255.066 123.898 255.066C124.18 255.066 124.454 255.033 124.737 254.983V253.78C124.471 253.805 124.33 253.813 124.073 253.813C123.143 253.813 122.744 253.365 122.744 252.311V247.247H124.737V246.052H122.744V243.736H121.317Z" fill="black"/>
<path fill-rule="evenodd" clip-rule="evenodd" d="M16 227.5H359V228H16V227.5Z" fill="#BCBBC1"/>
<path d="M363 196.274L361.768 195L356.5 200.45L351.232 195L350 196.274L356.5 203L363 196.274Z" fill="#8A8A8F"/>
<path d="M18.0195 202V185.307H21.0703L24.2285 193.471C24.4147 194.001 24.6725 194.745 25.002 195.705C25.3457 196.65 25.5892 197.324 25.7324 197.725H25.8184C25.9043 197.495 26.4199 196.077 27.3652 193.471L30.4805 185.307H33.5742V202H31.125V193.836C31.125 192.733 31.2181 191.021 31.4043 188.701H31.3184L30.2227 191.838L26.7422 200.947H24.8516L21.3711 191.838L20.2539 188.68H20.1465C20.3613 191.014 20.4688 192.733 20.4688 193.836V202H18.0195ZM36.0212 189.883H38.6637L40.8766 196.393C41.2634 197.581 41.557 198.541 41.7575 199.271H41.822C41.9365 198.885 42.0941 198.355 42.2946 197.682C42.4951 196.994 42.624 196.564 42.6813 196.393L44.7438 189.883H47.3434L42.2516 203.719C41.7933 204.951 41.2276 205.81 40.5544 206.297C39.8955 206.798 39.072 207.049 38.0837 207.049H37.3102V205.094H37.7184C38.32 205.094 38.8141 204.943 39.2009 204.643C39.6019 204.356 39.9385 203.848 40.2106 203.117L40.6188 201.85L36.0212 189.883ZM57.9737 193.062H61.8194C62.822 193.062 63.5883 192.812 64.1182 192.311C64.6625 191.795 64.9346 191.086 64.9346 190.184C64.9346 189.353 64.6553 188.687 64.0967 188.186C63.5381 187.67 62.7432 187.412 61.712 187.412H57.9737V193.062ZM55.5245 202V185.307H62.2061C63.8962 185.307 65.1924 185.758 66.0948 186.66C67.0114 187.548 67.4698 188.658 67.4698 189.99C67.4698 191.136 67.1976 192.074 66.6534 192.805C66.1091 193.535 65.5004 194.015 64.8272 194.244C65.3858 194.602 65.7868 194.996 66.0303 195.426C66.2738 195.855 66.4815 196.486 66.6534 197.316C66.8396 198.204 67.0544 198.992 67.2979 199.68C67.5414 200.367 67.9138 201.141 68.4151 202H65.6651C65.0349 200.94 64.5049 199.436 64.0752 197.488C63.9177 196.729 63.667 196.149 63.3233 195.748C62.9939 195.347 62.4711 195.146 61.7549 195.146H57.9737V202H55.5245ZM69.7878 195.877C69.7878 193.958 70.3106 192.418 71.3562 191.258C72.4161 190.083 73.7553 189.496 75.3737 189.496C76.9922 189.496 78.3028 190.076 79.3054 191.236C80.3223 192.396 80.8308 193.893 80.8308 195.727C80.8308 195.755 80.8093 196.092 80.7663 196.736H72.1726C72.1726 197.753 72.4662 198.627 73.0534 199.357C73.6407 200.088 74.4571 200.453 75.5027 200.453C76.2045 200.453 76.8275 200.281 77.3718 199.938C77.9161 199.594 78.3314 199.15 78.6179 198.605L80.5945 199.271C80.2077 200.174 79.5775 200.919 78.7038 201.506C77.8445 202.093 76.7702 202.387 75.4812 202.387C73.7911 202.387 72.4161 201.799 71.3562 200.625C70.3106 199.436 69.7878 197.854 69.7878 195.877ZM72.2155 195.039H78.4245C78.4245 194.022 78.1524 193.163 77.6081 192.461C77.0639 191.759 76.3191 191.408 75.3737 191.408C74.4141 191.408 73.655 191.766 73.0964 192.482C72.5378 193.199 72.2442 194.051 72.2155 195.039ZM82.7621 195.941C82.7621 193.993 83.2634 192.432 84.266 191.258C85.2829 190.083 86.6221 189.496 88.2836 189.496C89.4581 189.496 90.4464 189.847 91.2484 190.549C92.0505 191.236 92.5661 192.038 92.7953 192.955L90.7973 193.514C90.6111 192.955 90.296 192.482 89.852 192.096C89.4223 191.709 88.9066 191.516 88.3051 191.516C87.3311 191.516 86.5648 191.938 86.0062 192.783C85.462 193.614 85.1898 194.667 85.1898 195.941C85.1898 197.331 85.4835 198.419 86.0707 199.207C86.6579 199.995 87.4027 200.389 88.3051 200.389C88.9496 200.389 89.5225 200.174 90.0238 199.744C90.5395 199.3 90.8975 198.792 91.098 198.219L93.0961 198.799C92.824 199.758 92.2439 200.596 91.3559 201.312C90.4822 202.029 89.4581 202.387 88.2836 202.387C86.6365 202.387 85.3044 201.807 84.2875 200.646C83.2706 199.472 82.7621 197.904 82.7621 195.941ZM95.586 187.777V185.07H98.2286V187.777H95.586ZM95.7579 202V189.883H98.0997V202H95.7579ZM104.285 195.92C104.285 197.266 104.55 198.348 105.08 199.164C105.61 199.98 106.34 200.389 107.271 200.389C108.159 200.389 108.883 199.995 109.441 199.207C110.014 198.405 110.301 197.309 110.301 195.92C110.301 194.588 110.028 193.521 109.484 192.719C108.954 191.917 108.217 191.516 107.271 191.516C106.355 191.516 105.624 191.924 105.08 192.74C104.55 193.557 104.285 194.617 104.285 195.92ZM101.965 207.049V189.883H104.22V191.645C104.536 191.014 104.987 190.499 105.574 190.098C106.161 189.697 106.834 189.496 107.594 189.496C109.069 189.496 110.293 190.076 111.267 191.236C112.241 192.396 112.728 193.958 112.728 195.92C112.728 197.008 112.571 197.982 112.256 198.842C111.955 199.701 111.554 200.382 111.052 200.883C110.551 201.384 110.007 201.757 109.42 202C108.832 202.258 108.224 202.387 107.594 202.387C106.777 202.387 106.09 202.193 105.531 201.807C104.972 201.406 104.564 200.926 104.306 200.367V207.049H101.965ZM114.703 195.877C114.703 193.958 115.225 192.418 116.271 191.258C117.331 190.083 118.67 189.496 120.289 189.496C121.907 189.496 123.218 190.076 124.22 191.236C125.237 192.396 125.746 193.893 125.746 195.727C125.746 195.755 125.724 196.092 125.681 196.736H117.087C117.087 197.753 117.381 198.627 117.968 199.357C118.555 200.088 119.372 200.453 120.417 200.453C121.119 200.453 121.742 200.281 122.287 199.938C122.831 199.594 123.246 199.15 123.533 198.605L125.509 199.271C125.122 200.174 124.492 200.919 123.619 201.506C122.759 202.093 121.685 202.387 120.396 202.387C118.706 202.387 117.331 201.799 116.271 200.625C115.225 199.436 114.703 197.854 114.703 195.877ZM117.13 195.039H123.339C123.339 194.022 123.067 193.163 122.523 192.461C121.979 191.759 121.234 191.408 120.289 191.408C119.329 191.408 118.57 191.766 118.011 192.482C117.453 193.199 117.159 194.051 117.13 195.039ZM134.55 202V185.307H140.823C142.556 185.307 143.852 185.701 144.712 186.488C145.585 187.262 146.022 188.322 146.022 189.668C146.022 191.301 145.299 192.475 143.852 193.191C144.611 193.449 145.263 193.929 145.807 194.631C146.352 195.333 146.624 196.192 146.624 197.209C146.624 198.555 146.18 199.694 145.292 200.625C144.418 201.542 143.201 202 141.639 202H134.55ZM136.999 199.895H141.167C141.983 199.895 142.671 199.665 143.229 199.207C143.802 198.734 144.089 198.076 144.089 197.23C144.089 196.443 143.824 195.784 143.294 195.254C142.764 194.71 142.033 194.438 141.102 194.438H136.999V199.895ZM136.999 192.375H140.544C141.403 192.375 142.105 192.167 142.649 191.752C143.208 191.322 143.487 190.692 143.487 189.861C143.487 189.117 143.258 188.522 142.8 188.078C142.341 187.634 141.618 187.412 140.63 187.412H136.999V192.375ZM151.176 195.941C151.176 197.388 151.484 198.491 152.1 199.25C152.716 200.009 153.454 200.389 154.313 200.389C155.158 200.389 155.888 200.009 156.504 199.25C157.135 198.491 157.45 197.388 157.45 195.941C157.45 194.48 157.135 193.378 156.504 192.633C155.888 191.888 155.158 191.516 154.313 191.516C153.468 191.516 152.73 191.888 152.1 192.633C151.484 193.378 151.176 194.48 151.176 195.941ZM148.77 195.941C148.77 194.767 148.956 193.707 149.329 192.762C149.715 191.816 150.338 191.036 151.198 190.42C152.057 189.804 153.096 189.496 154.313 189.496C156.103 189.496 157.471 190.119 158.416 191.365C159.376 192.597 159.856 194.122 159.856 195.941C159.856 196.686 159.763 197.417 159.577 198.133C159.39 198.835 159.09 199.515 158.674 200.174C158.273 200.833 157.693 201.37 156.934 201.785C156.189 202.186 155.316 202.387 154.313 202.387C153.31 202.387 152.437 202.193 151.692 201.807C150.947 201.406 150.367 200.883 149.952 200.238C149.551 199.579 149.25 198.892 149.049 198.176C148.863 197.46 148.77 196.715 148.77 195.941ZM160.799 202L165.139 195.77L161.014 189.883H163.871L165.611 192.676C165.712 192.848 165.862 193.098 166.063 193.428C166.263 193.743 166.406 193.972 166.492 194.115H166.557C166.628 193.986 166.915 193.507 167.416 192.676L169.135 189.883H171.992L167.91 195.77L172.25 202H169.436L167.481 198.863C167.18 198.391 166.872 197.904 166.557 197.402H166.492C166.192 197.932 165.891 198.419 165.59 198.863L163.613 202H160.799Z" fill="#BB1900"/>
<path fill-rule="evenodd" clip-rule="evenodd" d="M16 135C16 128.925 20.9249 124 27 124H348C354.075 124 359 128.925 359 135V149C359 155.075 354.075 160 348 160H27C20.9249 160 16 155.075 16 149V135Z" fill="#EAEBED"/>
<path fill-rule="evenodd" clip-rule="evenodd" d="M39.7431 147.574L35.9101 143.74C36.5972 142.802 36.9652 141.67 36.9601 140.508C36.947 137.474 34.4937 135.018 31.4606 135C30.0091 134.993 28.6152 135.568 27.5895 136.595C26.5638 137.622 25.9915 139.017 26.0001 140.468C26.0132 143.501 28.4667 145.959 31.5001 145.976C32.6668 145.981 33.8039 145.609 34.7416 144.915L34.7456 144.912L38.5751 148.743C38.7821 148.96 39.0907 149.048 39.3811 148.973C39.6716 148.897 39.8983 148.67 39.9735 148.38C40.0487 148.089 39.9605 147.781 39.7431 147.574ZM31.4961 144.878C29.0695 144.864 27.1067 142.899 27.0961 140.472C27.0895 139.311 27.5474 138.196 28.3678 137.374C29.1882 136.552 30.303 136.093 31.4641 136.098C33.8907 136.112 35.8534 138.077 35.8641 140.504C35.8706 141.665 35.4128 142.78 34.5924 143.602C33.772 144.423 32.6572 144.883 31.4961 144.878Z" fill="#8E8E93"/>
<path d="M47.9546 144.871C48.1123 146.938 49.8638 148.282 52.4038 148.282C55.1431 148.282 56.8779 146.879 56.8779 144.68C56.8779 142.92 55.8818 141.957 53.3999 141.334L52.1465 141.002C50.4946 140.579 49.8389 140.04 49.8389 139.102C49.8389 137.89 50.8931 137.093 52.4868 137.093C53.981 137.093 54.9937 137.823 55.2012 139.052H56.7036C56.5791 137.118 54.8525 135.74 52.5366 135.74C50.0049 135.74 48.3032 137.118 48.3032 139.151C48.3032 140.853 49.2412 141.833 51.4077 142.38L52.9434 142.779C54.5952 143.194 55.3423 143.841 55.3423 144.862C55.3423 146.049 54.1553 146.921 52.5449 146.921C50.8433 146.921 49.6479 146.124 49.4653 144.871H47.9546ZM62.3469 140.156C63.7663 140.156 64.7126 141.202 64.7458 142.787H59.8151C59.9231 141.202 60.9191 140.156 62.3469 140.156ZM64.7043 145.684C64.3308 146.473 63.5505 146.896 62.3967 146.896C60.8776 146.896 59.8899 145.775 59.8151 144.007V143.941H66.2483V143.393C66.2483 140.612 64.779 138.894 62.3635 138.894C59.9065 138.894 58.3293 140.72 58.3293 143.534C58.3293 146.365 59.8816 148.158 62.3635 148.158C64.3225 148.158 65.7004 147.22 66.132 145.684H64.7043ZM70.8373 146.904C69.7997 146.904 69.0278 146.373 69.0278 145.46C69.0278 144.563 69.6254 144.09 70.9867 143.999L73.394 143.841V144.663C73.394 145.941 72.3066 146.904 70.8373 146.904ZM70.5717 148.158C71.767 148.158 72.7465 147.635 73.3276 146.68H73.4604V148H74.8217V141.874C74.8217 140.015 73.6015 138.894 71.4184 138.894C69.5092 138.894 68.0981 139.84 67.9071 141.276H69.3515C69.5507 140.571 70.2978 140.164 71.3686 140.164C72.705 140.164 73.394 140.77 73.394 141.874V142.688L70.8124 142.845C68.7289 142.97 67.5502 143.891 67.5502 145.493C67.5502 147.128 68.8368 148.158 70.5717 148.158ZM77.0533 148H78.4811V142.455C78.4811 141.193 79.4689 140.28 80.8302 140.28C81.1124 140.28 81.6271 140.33 81.7433 140.363V138.936C81.5607 138.911 81.2618 138.894 81.0294 138.894C79.8424 138.894 78.8131 139.508 78.5475 140.38H78.4147V139.052H77.0533V148ZM90.2752 141.791C90.0262 140.197 88.6981 138.894 86.5233 138.894C84.0164 138.894 82.4227 140.704 82.4227 143.493C82.4227 146.34 84.0247 148.158 86.5316 148.158C88.6815 148.158 90.0179 146.946 90.2752 145.302H88.8309C88.5653 146.315 87.7269 146.871 86.5233 146.871C84.9295 146.871 83.9002 145.56 83.9002 143.493C83.9002 141.467 84.9129 140.181 86.5233 140.181C87.8099 140.181 88.5985 140.903 88.8309 141.791H90.2752ZM92.0586 148H93.4864V142.704C93.4864 141.193 94.3662 140.181 95.9683 140.181C97.3213 140.181 98.0352 140.969 98.0352 142.555V148H99.4629V142.206C99.4629 140.106 98.2676 138.894 96.375 138.894C95.0054 138.894 94.0674 139.475 93.6192 140.463H93.4864V135.499H92.0586V148Z" fill="#8A8A8F"/>
<path d="M17.4941 80.1172C17.4941 76.0664 18.4902 72.8014 20.4824 70.3223C22.4967 67.8431 25.1641 66.6035 28.4844 66.6035C31.8047 66.6035 34.4499 67.8431 36.4199 70.3223C38.4121 72.8014 39.4082 76.0775 39.4082 80.1504C39.4082 84.2454 38.4121 87.5104 36.4199 89.9453C34.4277 92.3802 31.7826 93.5977 28.4844 93.5977C25.1641 93.5977 22.4967 92.3802 20.4824 89.9453C18.4902 87.4883 17.4941 84.2122 17.4941 80.1172ZM21.4453 80.1172C21.4453 83.2604 22.0651 85.7507 23.3047 87.5879C24.5664 89.4251 26.293 90.3438 28.4844 90.3438C30.6536 90.3438 32.3581 89.4362 33.5977 87.6211C34.8594 85.806 35.4902 83.3158 35.4902 80.1504C35.4902 77.0293 34.8704 74.5391 33.6309 72.6797C32.4134 70.7982 30.6979 69.8574 28.4844 69.8574C26.293 69.8574 24.5664 70.7871 23.3047 72.6465C22.0651 74.4837 21.4453 76.974 21.4453 80.1172ZM43.7362 93V74.2734H47.2225V76.5312C47.5988 75.8008 48.1965 75.1478 49.0155 74.5723C49.8345 73.9746 50.8195 73.6758 51.9705 73.6758C52.9888 73.6758 53.8189 73.8197 54.4608 74.1074V77.4609C53.7303 77.1732 52.9002 77.0293 51.9705 77.0293C50.5096 77.0293 49.3807 77.5938 48.5838 78.7227C47.8091 79.8294 47.4217 81.3125 47.4217 83.1719V93H43.7362ZM59.8512 83.2715C59.8512 85.2858 60.2497 86.8685 61.0466 88.0195C61.8656 89.1706 62.9502 89.7461 64.3005 89.7461C65.6507 89.7461 66.7243 89.1927 67.5212 88.0859C68.318 86.957 68.7165 85.3522 68.7165 83.2715C68.7165 81.235 68.307 79.6523 67.488 78.5234C66.6911 77.3724 65.6507 76.7969 64.3669 76.7969C62.9945 76.7969 61.8988 77.3945 61.0798 78.5898C60.2608 79.763 59.8512 81.3236 59.8512 83.2715ZM56.1325 83.3047C56.1325 80.3828 56.8519 78.0475 58.2907 76.2988C59.7516 74.5501 61.611 73.6758 63.8688 73.6758C65.1084 73.6758 66.1377 73.9967 66.9567 74.6387C67.7979 75.2585 68.3955 75.9557 68.7497 76.7305V74.2734H72.3688V90.543C72.3688 94.0846 71.6937 96.6966 70.3434 98.3789C69.0153 100.083 66.9346 100.936 64.1012 100.936C60.9802 100.936 58.5785 99.7624 56.8962 97.416L59.3532 95.7227C60.7035 97.25 62.3193 98.0137 64.2009 98.0137C65.529 98.0137 66.6026 97.4935 67.4216 96.4531C68.2406 95.4128 68.6722 94.0514 68.7165 92.3691C68.7165 92.1035 68.7165 91.7051 68.7165 91.1738C68.7386 90.6426 68.7497 90.2773 68.7497 90.0781C68.307 90.8971 67.6651 91.5723 66.8239 92.1035C65.9828 92.6126 65.042 92.8672 64.0016 92.8672C61.6332 92.8672 59.7295 91.9928 58.2907 90.2441C56.8519 88.4733 56.1325 86.1602 56.1325 83.3047ZM80.1167 87.8867C80.1167 88.6393 80.4155 89.2702 81.0132 89.7793C81.633 90.2884 82.4631 90.543 83.5034 90.543C84.9201 90.543 86.1265 90.0892 87.1226 89.1816C88.1187 88.252 88.6167 87.0456 88.6167 85.5625V83.5371C87.5985 83.7806 86.2593 84.0352 84.5991 84.3008C83.0939 84.5443 81.965 84.9538 81.2124 85.5293C80.482 86.1048 80.1167 86.8906 80.1167 87.8867ZM76.398 88.1855C76.398 84.6882 79.0432 82.5299 84.3335 81.7109C86.5249 81.3789 87.9527 81.1022 88.6167 80.8809V79.8516C88.6167 78.8555 88.2515 78.0697 87.521 77.4941C86.8127 76.8965 85.8498 76.5977 84.6323 76.5977C82.4852 76.5977 80.659 77.472 79.1538 79.2207L76.896 77.2949C77.8478 76.166 78.9878 75.2806 80.3159 74.6387C81.6662 73.9967 83.0829 73.6758 84.5659 73.6758C89.7014 73.6758 92.2691 76.1992 92.2691 81.2461V93H88.7163V90.4102C88.34 91.2734 87.6317 92.026 86.5913 92.668C85.551 93.2878 84.3446 93.5977 82.9722 93.5977C80.9357 93.5977 79.3309 93.0996 78.1577 92.1035C76.9846 91.0853 76.398 89.7793 76.398 88.1855ZM97.2611 93V74.2734H100.814V76.8965H100.847C101.135 76.1439 101.755 75.4245 102.706 74.7383C103.68 74.0299 104.876 73.6758 106.292 73.6758C108.107 73.6758 109.568 74.2402 110.675 75.3691C111.782 76.498 112.335 78.3574 112.335 80.9473V93H108.683V81.4453C108.683 78.3464 107.609 76.7969 105.462 76.7969C104.201 76.7969 103.127 77.3171 102.242 78.3574C101.378 79.3757 100.947 80.6152 100.947 82.0762V93H97.2611ZM117.593 71.0195V66.8359H121.677V71.0195H117.593ZM117.859 93V74.2734H121.478V93H117.859ZM125.673 93V90.5762L135.733 77.3945H126.503V74.2734H140.515V76.5645L130.355 89.9121H140.847V93H125.673ZM143.448 83.5371C143.448 80.571 144.256 78.1914 145.872 76.3984C147.51 74.5833 149.58 73.6758 152.081 73.6758C154.582 73.6758 156.608 74.5723 158.157 76.3652C159.729 78.1582 160.515 80.4714 160.515 83.3047C160.515 83.349 160.481 83.8691 160.415 84.8652H147.134C147.134 86.4368 147.587 87.7871 148.495 88.916C149.403 90.0449 150.664 90.6094 152.28 90.6094C153.365 90.6094 154.328 90.3438 155.169 89.8125C156.01 89.2812 156.652 88.5951 157.095 87.7539L160.149 88.7832C159.552 90.1777 158.578 91.3288 157.227 92.2363C155.899 93.1439 154.239 93.5977 152.247 93.5977C149.635 93.5977 147.51 92.6901 145.872 90.875C144.256 89.0378 143.448 86.5918 143.448 83.5371ZM147.2 82.2422H156.796C156.796 80.6706 156.375 79.3424 155.534 78.2578C154.693 77.1732 153.542 76.6309 152.081 76.6309C150.598 76.6309 149.425 77.1842 148.561 78.291C147.698 79.3978 147.244 80.7148 147.2 82.2422Z" fill="black"/>
<path d="M340.652 46.6553H334.725V42.5381H340.344V41.21H334.725V37.3667H340.652V36.022H333.231V48H340.652V46.6553ZM346.079 48.1577C347.316 48.1577 348.378 47.5684 348.943 46.5723H349.076V48H350.437V35.499H349.009V40.4629H348.885C348.378 39.4834 347.324 38.894 346.079 38.894C343.805 38.894 342.319 40.7202 342.319 43.5259C342.319 46.3398 343.788 48.1577 346.079 48.1577ZM346.411 40.1807C348.03 40.1807 349.042 41.4756 349.042 43.5259C349.042 45.5928 348.038 46.8711 346.411 46.8711C344.776 46.8711 343.796 45.6177 343.796 43.5259C343.796 41.4424 344.784 40.1807 346.411 40.1807ZM352.835 48H354.262V39.0518H352.835V48ZM353.548 37.2339C354.096 37.2339 354.545 36.7856 354.545 36.2378C354.545 35.6899 354.096 35.2417 353.548 35.2417C353.001 35.2417 352.552 35.6899 352.552 36.2378C352.552 36.7856 353.001 37.2339 353.548 37.2339ZM357.175 36.7358V39.0518H355.73V40.2471H357.175V45.6758C357.175 47.3857 357.913 48.0664 359.756 48.0664C360.038 48.0664 360.312 48.0332 360.595 47.9834V46.7798C360.329 46.8047 360.188 46.813 359.93 46.813C359.001 46.813 358.602 46.3647 358.602 45.3105V40.2471H360.595V39.0518H358.602V36.7358H357.175Z" fill="#BB1900"/>
<path fill-rule="evenodd" clip-rule="evenodd" d="M0 0V20H375V0H0Z" fill="black" fill-opacity="0.01"/>
<path d="M34.1738 10.2305V9.19922H30.7461V10.125H33.125V10.3301C33.125 11.7598 32.0996 12.7266 30.5879 12.7266C28.8887 12.7266 27.834 11.4023 27.834 9.26953C27.834 7.16602 28.9062 5.81836 30.582 5.81836C31.8359 5.81836 32.6855 6.42188 33.0488 7.56445H34.1211C33.8164 5.88867 32.457 4.8457 30.582 4.8457C28.2676 4.8457 26.75 6.59766 26.75 9.26953C26.75 11.9766 28.2441 13.6992 30.582 13.6992C32.7441 13.6992 34.1738 12.3164 34.1738 10.2305ZM35.6387 11.291C35.75 12.75 36.9863 13.6992 38.7793 13.6992C40.7129 13.6992 41.9375 12.709 41.9375 11.1562C41.9375 9.91406 41.2344 9.23438 39.4824 8.79492L38.5977 8.56055C37.4316 8.26172 36.9688 7.88086 36.9688 7.21875C36.9688 6.36328 37.7129 5.80078 38.8379 5.80078C39.8926 5.80078 40.6074 6.31641 40.7539 7.18359H41.8145C41.7266 5.81836 40.5078 4.8457 38.873 4.8457C37.0859 4.8457 35.8848 5.81836 35.8848 7.25391C35.8848 8.45508 36.5469 9.14648 38.0762 9.5332L39.1602 9.81445C40.3262 10.1074 40.8535 10.5645 40.8535 11.2852C40.8535 12.123 40.0156 12.7383 38.8789 12.7383C37.6777 12.7383 36.834 12.1758 36.7051 11.291H35.6387Z" fill="black"/>
<path d="M315.812 14.5H316.867V6.04492H315.818L313.568 7.66211V8.77539L315.719 7.2168H315.812V14.5ZM322.234 14.6992C324.133 14.6992 325.223 13.0938 325.223 10.2871C325.223 7.48633 324.115 5.8457 322.234 5.8457C320.342 5.8457 319.234 7.48047 319.234 10.2695C319.234 13.082 320.33 14.6992 322.234 14.6992ZM322.234 13.7793C320.986 13.7793 320.295 12.5312 320.295 10.2695C320.295 8.03711 320.998 6.77148 322.234 6.77148C323.471 6.77148 324.162 8.02539 324.162 10.2695C324.162 12.5371 323.482 13.7793 322.234 13.7793ZM329.793 14.6992C331.691 14.6992 332.781 13.0938 332.781 10.2871C332.781 7.48633 331.674 5.8457 329.793 5.8457C327.9 5.8457 326.793 7.48047 326.793 10.2695C326.793 13.082 327.889 14.6992 329.793 14.6992ZM329.793 13.7793C328.545 13.7793 327.854 12.5312 327.854 10.2695C327.854 8.03711 328.557 6.77148 329.793 6.77148C331.029 6.77148 331.721 8.02539 331.721 10.2695C331.721 12.5371 331.041 13.7793 329.793 13.7793ZM337.639 7.93164C337.639 6.73633 336.895 5.89844 335.84 5.89844C334.785 5.89844 334.035 6.74219 334.035 7.93164C334.035 9.12695 334.785 9.9707 335.84 9.9707C336.895 9.9707 337.639 9.12695 337.639 7.93164ZM335.84 9.2207C335.318 9.2207 334.973 8.71094 334.973 7.93164C334.973 7.15234 335.312 6.64844 335.84 6.64844C336.367 6.64844 336.701 7.14062 336.701 7.93164C336.701 8.70508 336.355 9.2207 335.84 9.2207ZM335.746 14.5L338.646 10.5332L341.928 6.04492H340.861L337.896 10.0938L334.668 14.5H335.746ZM342.531 12.6074C342.531 11.4121 341.787 10.5742 340.732 10.5742C339.678 10.5742 338.928 11.418 338.928 12.6074C338.928 13.8027 339.678 14.6465 340.732 14.6465C341.787 14.6465 342.531 13.8027 342.531 12.6074ZM340.732 13.8965C340.211 13.8965 339.865 13.3867 339.865 12.6074C339.865 11.8281 340.205 11.3242 340.732 11.3242C341.26 11.3242 341.594 11.8164 341.594 12.6074C341.594 13.3809 341.248 13.8965 340.732 13.8965Z" fill="#030303"/>
<path opacity="0.4" d="M346.5 7.5C346.5 6.39543 347.395 5.5 348.5 5.5H365.5C366.605 5.5 367.5 6.39543 367.5 7.5V13C367.5 14.1046 366.605 15 365.5 15H364.469H348.5C347.395 15 346.5 14.1046 346.5 13V7.5Z" stroke="black"/>
<path fill-rule="evenodd" clip-rule="evenodd" d="M369 12.374C369.863 12.152 370.5 11.3689 370.5 10.437C370.5 9.50507 369.863 8.72202 369 8.5V12.374Z" fill="black" fill-opacity="0.5"/>
<path fill-rule="evenodd" clip-rule="evenodd" d="M348 8C348 7.44772 348.448 7 349 7H365C365.552 7 366 7.44772 366 8V12.5C366 13.0523 365.552 13.5 365 13.5H349C348.448 13.5 348 13.0523 348 12.5V8Z" fill="black"/>
<path d="M168.174 13.7051C170.324 13.7051 171.602 12.0234 171.602 9.17578C171.602 8.10352 171.396 7.20117 171.004 6.50391C170.436 5.41992 169.457 4.83398 168.221 4.83398C166.381 4.83398 165.08 6.07031 165.08 7.80469C165.08 9.43359 166.252 10.6172 167.863 10.6172C168.854 10.6172 169.656 10.1543 170.055 9.35156H170.072C170.072 9.35156 170.096 9.35156 170.102 9.35156C170.113 9.35156 170.154 9.35156 170.154 9.35156C170.154 11.2852 169.422 12.4395 168.186 12.4395C167.459 12.4395 166.896 12.041 166.703 11.4023H165.197C165.449 12.791 166.627 13.7051 168.174 13.7051ZM168.227 9.41602C167.254 9.41602 166.562 8.72461 166.562 7.75781C166.562 6.81445 167.289 6.09375 168.232 6.09375C169.176 6.09375 169.902 6.82617 169.902 7.78125C169.902 8.72461 169.193 9.41602 168.227 9.41602ZM174.256 12.6035C174.812 12.6035 175.193 12.2051 175.193 11.6777C175.193 11.1445 174.812 10.752 174.256 10.752C173.705 10.752 173.318 11.1445 173.318 11.6777C173.318 12.2051 173.705 12.6035 174.256 12.6035ZM174.256 8.20898C174.812 8.20898 175.193 7.81641 175.193 7.28906C175.193 6.75586 174.812 6.36328 174.256 6.36328C173.705 6.36328 173.318 6.75586 173.318 7.28906C173.318 7.81641 173.705 8.20898 174.256 8.20898ZM181.035 13.5H182.482V11.9238H183.625V10.6465H182.482V5.04492H180.35C178.855 7.29492 177.666 9.17578 176.904 10.5762V11.9238H181.035V13.5ZM178.305 10.5938C179.289 8.85938 180.168 7.4707 180.977 6.27539H181.059V10.6816H178.305V10.5938ZM187.088 13.5H188.6V5.04492H187.094L184.885 6.5918V8.04492L186.988 6.56836H187.088V13.5ZM199.814 13.5H201.438L198.432 5.04492H196.732L193.732 13.5H195.262L195.988 11.3379H199.1L199.814 13.5ZM197.5 6.65625H197.6L198.748 10.1426H196.34L197.5 6.65625ZM211.621 13.5V5.04492H209.852L207.309 11.2031H207.203L204.66 5.04492H202.891V13.5H204.297V7.55273H204.379L206.717 13.1719H207.795L210.133 7.55273H210.215V13.5H211.621Z" fill="#030303"/>
<path fill-rule="evenodd" clip-rule="evenodd" d="M51.9876 5.5C54.5506 5.5 56.863 6.53944 58.5 8.20688L57.4119 9.26404C56.0539 7.86553 54.126 6.99223 51.9876 6.99223C49.8629 6.99223 47.9461 7.85432 46.5896 9.23709L45.5 8.18164C47.1355 6.52896 49.4375 5.5 51.9876 5.5ZM56.3235 10.3214C55.2448 9.19175 53.7014 8.48446 51.9876 8.48446C50.2883 8.48446 48.7566 9.17976 47.6793 10.2927L48.7693 11.3486C49.5672 10.5054 50.7136 9.97668 51.9876 9.97668C53.2769 9.97668 54.4356 10.5182 55.2346 11.3793L56.3235 10.3214ZM54.1444 12.4385C53.6264 11.8454 52.8524 11.4689 51.9876 11.4689C51.139 11.4689 50.3779 11.8314 49.8602 12.4053L52.0225 14.5L54.1444 12.4385Z" fill="#030303"/>
<path fill-rule="evenodd" clip-rule="evenodd" d="M19.5 5C19.2239 5 19 5.22386 19 5.5V14C19 14.2761 19.2239 14.5 19.5 14.5H21C21.2761 14.5 21.5 14.2761 21.5 14V5.5C21.5 5.22386 21.2761 5 21 5H19.5ZM15.5 7.5C15.2239 7.5 15 7.72386 15 8V14C15 14.2761 15.2239 14.5 15.5 14.5H17C17.2761 14.5 17.5 14.2761 17.5 14V8C17.5 7.72386 17.2761 7.5 17 7.5H15.5ZM11 10C11 9.72386 11.2239 9.5 11.5 9.5H13C13.2761 9.5 13.5 9.72386 13.5 10V14C13.5 14.2761 13.2761 14.5 13 14.5H11.5C11.2239 14.5 11 14.2761 11 14V10ZM7.5 11.5C7.22386 11.5 7 11.7239 7 12V14C7 14.2761 7.22386 14.5 7.5 14.5H9C9.27614 14.5 9.5 14.2761 9.5 14V12C9.5 11.7239 9.27614 11.5 9 11.5H7.5Z" fill="black"/>
<rect width="375" height="56" transform="translate(0 611)" fill="#BB1900"/>
<g filter="url(#filter0_bd)">
<path fill-rule="evenodd" clip-rule="evenodd" d="M0 612.143H375V668.143H0V612.143Z" fill="#BB1900"/>
</g>
<path d="M16.0156 657.857V650.542H20.4492V651.207H16.7969V653.843H20.0781V654.498H16.7969V657.857H16.0156ZM21.709 656.509C21.709 656.757 21.8132 656.968 22.0215 657.144C22.2298 657.313 22.5163 657.398 22.8809 657.398C23.3431 657.398 23.737 657.248 24.0625 656.949C24.3945 656.649 24.5605 656.268 24.5605 655.806V655.074C24.2741 655.145 23.8184 655.23 23.1934 655.328C22.6855 655.419 22.3112 655.559 22.0703 655.748C21.8294 655.936 21.709 656.19 21.709 656.509ZM20.9473 656.568C20.9473 655.591 21.7025 654.986 23.2129 654.751C23.89 654.641 24.3392 654.55 24.5605 654.478V654.175C24.5605 653.85 24.4434 653.58 24.209 653.365C23.9746 653.15 23.6426 653.042 23.2129 653.042C22.9004 653.042 22.5977 653.117 22.3047 653.267C22.0182 653.41 21.7741 653.606 21.5723 653.853L21.084 653.443C21.3444 653.143 21.6569 652.899 22.0215 652.71C22.3926 652.522 22.7832 652.427 23.1934 652.427C24.5996 652.427 25.3027 653.114 25.3027 654.488V657.857H24.5801V656.998C24.4759 657.278 24.2611 657.522 23.9355 657.73C23.61 657.932 23.2259 658.033 22.7832 658.033C22.2038 658.033 21.7513 657.896 21.4258 657.623C21.1068 657.349 20.9473 656.998 20.9473 656.568ZM26.1133 652.603H26.9531L28.0859 655.894C28.138 656.057 28.2096 656.285 28.3008 656.578C28.3919 656.871 28.457 657.079 28.4961 657.203H28.5156C28.5612 657.053 28.6328 656.835 28.7305 656.548C28.8281 656.262 28.8997 656.044 28.9453 655.894L30.0586 652.603H30.8984L28.9648 657.857H28.0469L26.1133 652.603ZM32.0508 655.23C32.0508 655.894 32.2038 656.421 32.5098 656.812C32.8158 657.203 33.1966 657.398 33.6523 657.398C34.1016 657.398 34.4792 657.203 34.7852 656.812C35.0977 656.421 35.2539 655.894 35.2539 655.23C35.2539 654.553 35.0977 654.022 34.7852 653.638C34.4727 653.254 34.0951 653.062 33.6523 653.062C33.2031 653.062 32.8223 653.254 32.5098 653.638C32.2038 654.022 32.0508 654.553 32.0508 655.23ZM31.2891 655.23C31.2891 654.429 31.4941 653.762 31.9043 653.228C32.321 652.694 32.9036 652.427 33.6523 652.427C34.3945 652.427 34.974 652.694 35.3906 653.228C35.8073 653.762 36.0156 654.429 36.0156 655.23C36.0156 655.569 35.9701 655.897 35.8789 656.216C35.7943 656.535 35.6608 656.835 35.4785 657.115C35.3027 657.388 35.0553 657.61 34.7363 657.779C34.4238 657.948 34.0625 658.033 33.6523 658.033C33.2487 658.033 32.8874 657.951 32.5684 657.789C32.2559 657.619 32.0085 657.398 31.8262 657.125C31.6504 656.845 31.5169 656.545 31.4258 656.226C31.3346 655.907 31.2891 655.575 31.2891 655.23ZM37.2266 657.857V652.603H37.9492V653.365C38.0534 653.13 38.2259 652.916 38.4668 652.72C38.7077 652.525 39.0169 652.427 39.3945 652.427C39.6745 652.427 39.9219 652.473 40.1367 652.564V653.248C39.9023 653.156 39.6549 653.111 39.3945 653.111C38.9518 653.111 38.6068 653.277 38.3594 653.609C38.112 653.941 37.9883 654.38 37.9883 654.927V657.857H37.2266ZM40.9668 651.421V650.435H41.9238V651.421H40.9668ZM41.084 657.857V652.603H41.8262V657.857H41.084ZM42.9883 653.238V652.603H43.9062V650.923H44.668V652.603H46.0547V653.238H44.668V656.314C44.668 656.639 44.7298 656.871 44.8535 657.007C44.9772 657.144 45.1758 657.212 45.4492 657.212H46.0547V657.857H45.3516C44.388 657.857 43.9062 657.365 43.9062 656.382V653.238H42.9883ZM46.7871 655.191C46.7871 654.371 47.0085 653.707 47.4512 653.199C47.8939 652.684 48.4668 652.427 49.1699 652.427C49.8861 652.427 50.4492 652.678 50.8594 653.179C51.2695 653.674 51.4746 654.309 51.4746 655.083C51.4746 655.175 51.4681 655.305 51.4551 655.474H47.5488C47.5488 656.001 47.6953 656.454 47.9883 656.832C48.2812 657.209 48.6882 657.398 49.209 657.398C49.5475 657.398 49.847 657.32 50.1074 657.164C50.3678 657.001 50.5697 656.786 50.7129 656.519L51.3574 656.714C51.1947 657.098 50.931 657.414 50.5664 657.662C50.2018 657.909 49.7493 658.033 49.209 658.033C48.4798 658.033 47.8939 657.772 47.4512 657.251C47.0085 656.731 46.7871 656.044 46.7871 655.191ZM47.5684 654.898H50.7129C50.7129 654.384 50.5729 653.951 50.293 653.599C50.013 653.241 49.6387 653.062 49.1699 653.062C48.6947 653.062 48.3105 653.244 48.0176 653.609C47.7311 653.973 47.5814 654.403 47.5684 654.898ZM52.2363 656.822L52.8027 656.49C53.1868 657.095 53.7077 657.398 54.3652 657.398C54.7624 657.398 55.0781 657.326 55.3125 657.183C55.5534 657.04 55.6738 656.832 55.6738 656.558C55.6738 656.441 55.6445 656.337 55.5859 656.246C55.5273 656.148 55.4622 656.07 55.3906 656.011C55.3255 655.946 55.2051 655.878 55.0293 655.806C54.8535 655.728 54.707 655.673 54.5898 655.64C54.4792 655.601 54.2936 655.539 54.0332 655.455C53.8053 655.383 53.61 655.311 53.4473 655.24C53.2845 655.168 53.1152 655.074 52.9395 654.957C52.7637 654.833 52.627 654.683 52.5293 654.507C52.4382 654.332 52.3926 654.13 52.3926 653.902C52.3926 653.466 52.5684 653.111 52.9199 652.837C53.2715 652.564 53.7533 652.427 54.3652 652.427C54.7949 652.427 55.1888 652.541 55.5469 652.769C55.9049 652.997 56.1621 653.264 56.3184 653.57L55.8105 653.902C55.6738 653.674 55.4753 653.479 55.2148 653.316C54.9609 653.147 54.6777 653.062 54.3652 653.062C53.9681 653.062 53.6654 653.14 53.457 653.296C53.2552 653.446 53.1543 653.651 53.1543 653.912C53.1543 654.061 53.1934 654.198 53.2715 654.322C53.3496 654.439 53.4668 654.543 53.623 654.634C53.7858 654.719 53.9323 654.787 54.0625 654.839C54.1992 654.885 54.3783 654.944 54.5996 655.015C54.7884 655.074 54.9544 655.129 55.0977 655.181C55.2474 655.233 55.4102 655.305 55.5859 655.396C55.7617 655.487 55.9082 655.585 56.0254 655.689C56.1426 655.787 56.2402 655.914 56.3184 656.07C56.3965 656.22 56.4355 656.382 56.4355 656.558C56.4355 656.975 56.25 657.326 55.8789 657.613C55.5143 657.893 55.0098 658.033 54.3652 658.033C53.8965 658.033 53.4798 657.929 53.1152 657.72C52.7507 657.505 52.4577 657.206 52.2363 656.822ZM87.8711 654.029H89.8438C90.332 654.029 90.7064 653.899 90.9668 653.638C91.2337 653.378 91.3672 653.033 91.3672 652.603C91.3672 652.186 91.2272 651.851 90.9473 651.597C90.6738 651.337 90.2799 651.207 89.7656 651.207H87.8711V654.029ZM87.0898 657.857V650.542H89.9414C90.6576 650.542 91.2077 650.738 91.5918 651.128C91.9759 651.513 92.168 651.988 92.168 652.554C92.168 653.069 92.0378 653.485 91.7773 653.804C91.5169 654.123 91.2305 654.325 90.918 654.41C91.1914 654.553 91.39 654.729 91.5137 654.937C91.6374 655.145 91.7383 655.435 91.8164 655.806C91.901 656.171 91.9596 656.421 91.9922 656.558C92.0312 656.688 92.0964 656.877 92.1875 657.125C92.2852 657.372 92.4023 657.616 92.5391 657.857H91.6602C91.5495 657.649 91.4486 657.427 91.3574 657.193C91.2728 656.952 91.2109 656.757 91.1719 656.607C91.1328 656.451 91.0742 656.203 90.9961 655.865C90.9115 655.5 90.7812 655.214 90.6055 655.005C90.4362 654.797 90.1628 654.693 89.7852 654.693H87.8711V657.857H87.0898ZM93.1055 655.191C93.1055 654.371 93.3268 653.707 93.7695 653.199C94.2122 652.684 94.7852 652.427 95.4883 652.427C96.2044 652.427 96.7676 652.678 97.1777 653.179C97.5879 653.674 97.793 654.309 97.793 655.083C97.793 655.175 97.7865 655.305 97.7734 655.474H93.8672C93.8672 656.001 94.0137 656.454 94.3066 656.832C94.5996 657.209 95.0065 657.398 95.5273 657.398C95.8659 657.398 96.1654 657.32 96.4258 657.164C96.6862 657.001 96.888 656.786 97.0312 656.519L97.6758 656.714C97.513 657.098 97.2493 657.414 96.8848 657.662C96.5202 657.909 96.0677 658.033 95.5273 658.033C94.7982 658.033 94.2122 657.772 93.7695 657.251C93.3268 656.731 93.1055 656.044 93.1055 655.191ZM93.8867 654.898H97.0312C97.0312 654.384 96.8913 653.951 96.6113 653.599C96.3314 653.241 95.957 653.062 95.4883 653.062C95.013 653.062 94.6289 653.244 94.3359 653.609C94.0495 653.973 93.8997 654.403 93.8867 654.898ZM98.6328 655.23C98.6328 654.397 98.8444 653.723 99.2676 653.208C99.6908 652.688 100.26 652.427 100.977 652.427C101.445 652.427 101.846 652.564 102.178 652.837C102.516 653.104 102.741 653.423 102.852 653.794L102.207 653.98C102.109 653.72 101.95 653.501 101.729 653.326C101.514 653.15 101.263 653.062 100.977 653.062C100.495 653.062 100.111 653.267 99.8242 653.677C99.5378 654.087 99.3945 654.605 99.3945 655.23C99.3945 655.894 99.5443 656.421 99.8438 656.812C100.143 657.203 100.521 657.398 100.977 657.398C101.283 657.398 101.559 657.3 101.807 657.105C102.061 656.903 102.24 656.672 102.344 656.412L102.988 656.617C102.852 657.007 102.601 657.343 102.236 657.623C101.878 657.896 101.458 658.033 100.977 658.033C100.28 658.033 99.7135 657.779 99.2773 657.271C98.8477 656.763 98.6328 656.083 98.6328 655.23ZM104.082 651.421V650.435H105.039V651.421H104.082ZM104.199 657.857V652.603H104.941V657.857H104.199ZM107.49 655.22C107.49 655.871 107.624 656.399 107.891 656.802C108.158 657.199 108.525 657.398 108.994 657.398C109.437 657.398 109.805 657.203 110.098 656.812C110.391 656.421 110.537 655.891 110.537 655.22C110.537 654.589 110.397 654.071 110.117 653.667C109.844 653.264 109.469 653.062 108.994 653.062C108.551 653.062 108.19 653.267 107.91 653.677C107.63 654.081 107.49 654.595 107.49 655.22ZM106.748 660.152V652.603H107.471V653.55C107.62 653.212 107.835 652.942 108.115 652.74C108.402 652.531 108.727 652.427 109.092 652.427C109.73 652.427 110.257 652.681 110.674 653.189C111.09 653.697 111.299 654.374 111.299 655.22C111.299 656.125 111.081 656.822 110.645 657.31C110.208 657.792 109.691 658.033 109.092 658.033C108.701 658.033 108.369 657.932 108.096 657.73C107.822 657.522 107.62 657.261 107.49 656.949V660.152H106.748ZM112.158 655.191C112.158 654.371 112.38 653.707 112.822 653.199C113.265 652.684 113.838 652.427 114.541 652.427C115.257 652.427 115.82 652.678 116.23 653.179C116.641 653.674 116.846 654.309 116.846 655.083C116.846 655.175 116.839 655.305 116.826 655.474H112.92C112.92 656.001 113.066 656.454 113.359 656.832C113.652 657.209 114.059 657.398 114.58 657.398C114.919 657.398 115.218 657.32 115.479 657.164C115.739 657.001 115.941 656.786 116.084 656.519L116.729 656.714C116.566 657.098 116.302 657.414 115.938 657.662C115.573 657.909 115.12 658.033 114.58 658.033C113.851 658.033 113.265 657.772 112.822 657.251C112.38 656.731 112.158 656.044 112.158 655.191ZM112.939 654.898H116.084C116.084 654.384 115.944 653.951 115.664 653.599C115.384 653.241 115.01 653.062 114.541 653.062C114.066 653.062 113.682 653.244 113.389 653.609C113.102 653.973 112.952 654.403 112.939 654.898ZM120.088 656.48L120.811 656.226C121.247 656.981 121.924 657.359 122.842 657.359C123.35 657.359 123.763 657.235 124.082 656.988C124.401 656.74 124.561 656.402 124.561 655.972C124.561 655.757 124.515 655.569 124.424 655.406C124.333 655.236 124.186 655.09 123.984 654.966C123.789 654.843 123.607 654.745 123.438 654.673C123.268 654.602 123.037 654.517 122.744 654.419C122.51 654.341 122.344 654.286 122.246 654.253C122.148 654.221 121.992 654.162 121.777 654.078C121.569 653.993 121.413 653.918 121.309 653.853C121.211 653.788 121.087 653.7 120.938 653.589C120.788 653.472 120.677 653.355 120.605 653.238C120.54 653.121 120.479 652.981 120.42 652.818C120.368 652.649 120.342 652.47 120.342 652.281C120.342 651.701 120.563 651.239 121.006 650.894C121.449 650.542 122.041 650.367 122.783 650.367C123.35 650.367 123.841 650.497 124.258 650.757C124.681 651.018 124.984 651.343 125.166 651.734L124.502 651.968C124.118 651.343 123.538 651.031 122.764 651.031C122.256 651.031 121.859 651.145 121.572 651.373C121.286 651.6 121.143 651.903 121.143 652.281C121.143 652.45 121.182 652.61 121.26 652.759C121.338 652.903 121.423 653.02 121.514 653.111C121.611 653.195 121.764 653.29 121.973 653.394C122.188 653.492 122.354 653.563 122.471 653.609C122.594 653.648 122.793 653.713 123.066 653.804C123.132 653.824 123.18 653.84 123.213 653.853C123.532 653.957 123.799 654.058 124.014 654.156C124.229 654.253 124.45 654.384 124.678 654.546C124.906 654.709 125.075 654.908 125.186 655.142C125.303 655.37 125.361 655.637 125.361 655.943C125.361 656.6 125.13 657.115 124.668 657.486C124.212 657.85 123.597 658.033 122.822 658.033C122.158 658.033 121.595 657.893 121.133 657.613C120.671 657.333 120.322 656.955 120.088 656.48ZM127.344 655.22C127.344 655.871 127.477 656.399 127.744 656.802C128.011 657.199 128.379 657.398 128.848 657.398C129.29 657.398 129.658 657.203 129.951 656.812C130.244 656.421 130.391 655.891 130.391 655.22C130.391 654.589 130.251 654.071 129.971 653.667C129.697 653.264 129.323 653.062 128.848 653.062C128.405 653.062 128.044 653.267 127.764 653.677C127.484 654.081 127.344 654.595 127.344 655.22ZM126.602 660.152V652.603H127.324V653.55C127.474 653.212 127.689 652.942 127.969 652.74C128.255 652.531 128.581 652.427 128.945 652.427C129.583 652.427 130.111 652.681 130.527 653.189C130.944 653.697 131.152 654.374 131.152 655.22C131.152 656.125 130.934 656.822 130.498 657.31C130.062 657.792 129.544 658.033 128.945 658.033C128.555 658.033 128.223 657.932 127.949 657.73C127.676 657.522 127.474 657.261 127.344 656.949V660.152H126.602ZM132.441 651.421V650.435H133.398V651.421H132.441ZM132.559 657.857V652.603H133.301V657.857H132.559ZM135.049 657.857V652.603H135.791V653.501H135.801C135.879 653.241 136.071 652.997 136.377 652.769C136.683 652.541 137.048 652.427 137.471 652.427C137.959 652.427 138.359 652.58 138.672 652.886C138.991 653.192 139.15 653.716 139.15 654.458V657.857H138.389V654.585C138.389 653.57 138.024 653.062 137.295 653.062C136.891 653.062 136.543 653.225 136.25 653.55C135.957 653.876 135.811 654.266 135.811 654.722V657.857H135.049ZM140.654 657.857V652.603H141.396V653.501H141.406C141.484 653.241 141.676 652.997 141.982 652.769C142.288 652.541 142.653 652.427 143.076 652.427C143.564 652.427 143.965 652.58 144.277 652.886C144.596 653.192 144.756 653.716 144.756 654.458V657.857H143.994V654.585C143.994 653.57 143.63 653.062 142.9 653.062C142.497 653.062 142.148 653.225 141.855 653.55C141.562 653.876 141.416 654.266 141.416 654.722V657.857H140.654ZM145.908 655.191C145.908 654.371 146.13 653.707 146.572 653.199C147.015 652.684 147.588 652.427 148.291 652.427C149.007 652.427 149.57 652.678 149.98 653.179C150.391 653.674 150.596 654.309 150.596 655.083C150.596 655.175 150.589 655.305 150.576 655.474H146.67C146.67 656.001 146.816 656.454 147.109 656.832C147.402 657.209 147.809 657.398 148.33 657.398C148.669 657.398 148.968 657.32 149.229 657.164C149.489 657.001 149.691 656.786 149.834 656.519L150.479 656.714C150.316 657.098 150.052 657.414 149.688 657.662C149.323 657.909 148.87 658.033 148.33 658.033C147.601 658.033 147.015 657.772 146.572 657.251C146.13 656.731 145.908 656.044 145.908 655.191ZM146.689 654.898H149.834C149.834 654.384 149.694 653.951 149.414 653.599C149.134 653.241 148.76 653.062 148.291 653.062C147.816 653.062 147.432 653.244 147.139 653.609C146.852 653.973 146.702 654.403 146.689 654.898ZM151.787 657.857V652.603H152.51V653.365C152.614 653.13 152.786 652.916 153.027 652.72C153.268 652.525 153.577 652.427 153.955 652.427C154.235 652.427 154.482 652.473 154.697 652.564V653.248C154.463 653.156 154.215 653.111 153.955 653.111C153.512 653.111 153.167 653.277 152.92 653.609C152.673 653.941 152.549 654.38 152.549 654.927V657.857H151.787ZM240.625 654.205C240.625 653.072 240.908 652.151 241.475 651.441C242.048 650.725 242.826 650.367 243.809 650.367C244.141 650.367 244.45 650.419 244.736 650.523C245.023 650.621 245.26 650.754 245.449 650.923C245.645 651.093 245.804 651.259 245.928 651.421C246.058 651.578 246.165 651.744 246.25 651.919L245.586 652.154C245.124 651.405 244.531 651.031 243.809 651.031C243.06 651.031 242.474 651.324 242.051 651.91C241.634 652.489 241.426 653.254 241.426 654.205C241.426 655.194 241.641 655.969 242.07 656.529C242.5 657.082 243.066 657.359 243.77 657.359C244.408 657.359 244.899 657.151 245.244 656.734C245.589 656.317 245.762 655.826 245.762 655.259V654.576H243.691V653.912H246.523V657.857H245.957L245.898 656.783C245.514 657.616 244.798 658.033 243.75 658.033C242.819 658.033 242.064 657.691 241.484 657.007C240.911 656.324 240.625 655.389 240.625 654.205ZM247.988 657.857V652.603H248.711V653.365C248.815 653.13 248.988 652.916 249.229 652.72C249.469 652.525 249.779 652.427 250.156 652.427C250.436 652.427 250.684 652.473 250.898 652.564V653.248C250.664 653.156 250.417 653.111 250.156 653.111C249.714 653.111 249.368 653.277 249.121 653.609C248.874 653.941 248.75 654.38 248.75 654.927V657.857H247.988ZM252.061 655.23C252.061 655.894 252.214 656.421 252.52 656.812C252.826 657.203 253.206 657.398 253.662 657.398C254.111 657.398 254.489 657.203 254.795 656.812C255.107 656.421 255.264 655.894 255.264 655.23C255.264 654.553 255.107 654.022 254.795 653.638C254.482 653.254 254.105 653.062 253.662 653.062C253.213 653.062 252.832 653.254 252.52 653.638C252.214 654.022 252.061 654.553 252.061 655.23ZM251.299 655.23C251.299 654.429 251.504 653.762 251.914 653.228C252.331 652.694 252.913 652.427 253.662 652.427C254.404 652.427 254.984 652.694 255.4 653.228C255.817 653.762 256.025 654.429 256.025 655.23C256.025 655.569 255.98 655.897 255.889 656.216C255.804 656.535 255.671 656.835 255.488 657.115C255.312 657.388 255.065 657.61 254.746 657.779C254.434 657.948 254.072 658.033 253.662 658.033C253.258 658.033 252.897 657.951 252.578 657.789C252.266 657.619 252.018 657.398 251.836 657.125C251.66 656.845 251.527 656.545 251.436 656.226C251.344 655.907 251.299 655.575 251.299 655.23ZM256.885 655.23C256.885 654.397 257.096 653.723 257.52 653.208C257.943 652.688 258.512 652.427 259.229 652.427C259.697 652.427 260.098 652.564 260.43 652.837C260.768 653.104 260.993 653.423 261.104 653.794L260.459 653.98C260.361 653.72 260.202 653.501 259.98 653.326C259.766 653.15 259.515 653.062 259.229 653.062C258.747 653.062 258.363 653.267 258.076 653.677C257.79 654.087 257.646 654.605 257.646 655.23C257.646 655.894 257.796 656.421 258.096 656.812C258.395 657.203 258.773 657.398 259.229 657.398C259.535 657.398 259.811 657.3 260.059 657.105C260.312 656.903 260.492 656.672 260.596 656.412L261.24 656.617C261.104 657.007 260.853 657.343 260.488 657.623C260.13 657.896 259.71 658.033 259.229 658.033C258.532 658.033 257.965 657.779 257.529 657.271C257.1 656.763 256.885 656.083 256.885 655.23ZM261.904 655.191C261.904 654.371 262.126 653.707 262.568 653.199C263.011 652.684 263.584 652.427 264.287 652.427C265.003 652.427 265.566 652.678 265.977 653.179C266.387 653.674 266.592 654.309 266.592 655.083C266.592 655.175 266.585 655.305 266.572 655.474H262.666C262.666 656.001 262.812 656.454 263.105 656.832C263.398 657.209 263.805 657.398 264.326 657.398C264.665 657.398 264.964 657.32 265.225 657.164C265.485 657.001 265.687 656.786 265.83 656.519L266.475 656.714C266.312 657.098 266.048 657.414 265.684 657.662C265.319 657.909 264.867 658.033 264.326 658.033C263.597 658.033 263.011 657.772 262.568 657.251C262.126 656.731 261.904 656.044 261.904 655.191ZM262.686 654.898H265.83C265.83 654.384 265.69 653.951 265.41 653.599C265.13 653.241 264.756 653.062 264.287 653.062C263.812 653.062 263.428 653.244 263.135 653.609C262.848 653.973 262.699 654.403 262.686 654.898ZM267.783 657.857V652.603H268.506V653.365C268.61 653.13 268.783 652.916 269.023 652.72C269.264 652.525 269.574 652.427 269.951 652.427C270.231 652.427 270.479 652.473 270.693 652.564V653.248C270.459 653.156 270.212 653.111 269.951 653.111C269.508 653.111 269.163 653.277 268.916 653.609C268.669 653.941 268.545 654.38 268.545 654.927V657.857H267.783ZM271.045 652.603H271.924L273.008 655.679C273.171 656.135 273.317 656.578 273.447 657.007H273.486C273.584 656.688 273.727 656.246 273.916 655.679L274.951 652.603H275.811L273.545 658.736C273.35 659.257 273.122 659.621 272.861 659.83C272.607 660.044 272.295 660.152 271.924 660.152H271.631V659.527H271.807C272.054 659.527 272.262 659.455 272.432 659.312C272.607 659.169 272.764 658.912 272.9 658.541L273.096 657.925L271.045 652.603ZM279.336 657.857V650.542H280.117V657.193H283.594V657.857H279.336ZM284.531 651.421V650.435H285.488V651.421H284.531ZM284.648 657.857V652.603H285.391V657.857H284.648ZM286.709 656.822L287.275 656.49C287.66 657.095 288.18 657.398 288.838 657.398C289.235 657.398 289.551 657.326 289.785 657.183C290.026 657.04 290.146 656.832 290.146 656.558C290.146 656.441 290.117 656.337 290.059 656.246C290 656.148 289.935 656.07 289.863 656.011C289.798 655.946 289.678 655.878 289.502 655.806C289.326 655.728 289.18 655.673 289.062 655.64C288.952 655.601 288.766 655.539 288.506 655.455C288.278 655.383 288.083 655.311 287.92 655.24C287.757 655.168 287.588 655.074 287.412 654.957C287.236 654.833 287.1 654.683 287.002 654.507C286.911 654.332 286.865 654.13 286.865 653.902C286.865 653.466 287.041 653.111 287.393 652.837C287.744 652.564 288.226 652.427 288.838 652.427C289.268 652.427 289.661 652.541 290.02 652.769C290.378 652.997 290.635 653.264 290.791 653.57L290.283 653.902C290.146 653.674 289.948 653.479 289.688 653.316C289.434 653.147 289.15 653.062 288.838 653.062C288.441 653.062 288.138 653.14 287.93 653.296C287.728 653.446 287.627 653.651 287.627 653.912C287.627 654.061 287.666 654.198 287.744 654.322C287.822 654.439 287.939 654.543 288.096 654.634C288.258 654.719 288.405 654.787 288.535 654.839C288.672 654.885 288.851 654.944 289.072 655.015C289.261 655.074 289.427 655.129 289.57 655.181C289.72 655.233 289.883 655.305 290.059 655.396C290.234 655.487 290.381 655.585 290.498 655.689C290.615 655.787 290.713 655.914 290.791 656.07C290.869 656.22 290.908 656.382 290.908 656.558C290.908 656.975 290.723 657.326 290.352 657.613C289.987 657.893 289.482 658.033 288.838 658.033C288.369 658.033 287.952 657.929 287.588 657.72C287.223 657.505 286.93 657.206 286.709 656.822ZM291.445 653.238V652.603H292.363V650.923H293.125V652.603H294.512V653.238H293.125V656.314C293.125 656.639 293.187 656.871 293.311 657.007C293.434 657.144 293.633 657.212 293.906 657.212H294.512V657.857H293.809C292.845 657.857 292.363 657.365 292.363 656.382V653.238H291.445Z" fill="white"/>
<path d="M319.736 654.205C319.736 653.059 320.013 652.134 320.566 651.431C321.12 650.722 321.859 650.367 322.783 650.367C323.714 650.367 324.45 650.718 324.99 651.421C325.537 652.125 325.811 653.056 325.811 654.214C325.811 655.386 325.534 656.317 324.98 657.007C324.434 657.691 323.701 658.033 322.783 658.033C321.859 658.033 321.12 657.688 320.566 656.998C320.013 656.301 319.736 655.37 319.736 654.205ZM320.537 654.205C320.537 655.168 320.739 655.936 321.143 656.509C321.546 657.076 322.093 657.359 322.783 657.359C323.46 657.359 324.001 657.079 324.404 656.519C324.808 655.959 325.01 655.191 325.01 654.214C325.01 653.251 324.814 652.479 324.424 651.9C324.033 651.32 323.486 651.031 322.783 651.031C322.093 651.031 321.546 651.317 321.143 651.89C320.739 652.463 320.537 653.235 320.537 654.205ZM327.1 657.857V652.603H327.822V653.365C327.926 653.13 328.099 652.916 328.34 652.72C328.581 652.525 328.89 652.427 329.268 652.427C329.548 652.427 329.795 652.473 330.01 652.564V653.248C329.775 653.156 329.528 653.111 329.268 653.111C328.825 653.111 328.48 653.277 328.232 653.609C327.985 653.941 327.861 654.38 327.861 654.927V657.857H327.1ZM331.172 655.132C331.172 655.751 331.309 656.252 331.582 656.636C331.855 657.014 332.214 657.203 332.656 657.203C333.105 657.203 333.46 657.02 333.721 656.656C333.988 656.291 334.121 655.78 334.121 655.123C334.121 654.485 333.984 653.983 333.711 653.619C333.444 653.248 333.099 653.062 332.676 653.062C332.22 653.062 331.855 653.257 331.582 653.648C331.309 654.032 331.172 654.527 331.172 655.132ZM330.41 655.142C330.41 654.328 330.612 653.674 331.016 653.179C331.419 652.678 331.94 652.427 332.578 652.427C332.982 652.427 333.311 652.531 333.564 652.74C333.825 652.948 334.01 653.189 334.121 653.462V652.603H334.863V657.242C334.863 658.238 334.684 658.977 334.326 659.458C333.975 659.947 333.411 660.191 332.637 660.191C331.797 660.191 331.146 659.872 330.684 659.234L331.211 658.892C331.615 659.348 332.096 659.576 332.656 659.576C333.118 659.576 333.477 659.393 333.73 659.029C333.991 658.671 334.121 658.189 334.121 657.583V656.832C333.984 657.125 333.786 657.365 333.525 657.554C333.271 657.743 332.962 657.837 332.598 657.837C331.934 657.837 331.403 657.587 331.006 657.085C330.609 656.578 330.41 655.93 330.41 655.142ZM336.846 656.509C336.846 656.757 336.95 656.968 337.158 657.144C337.367 657.313 337.653 657.398 338.018 657.398C338.48 657.398 338.874 657.248 339.199 656.949C339.531 656.649 339.697 656.268 339.697 655.806V655.074C339.411 655.145 338.955 655.23 338.33 655.328C337.822 655.419 337.448 655.559 337.207 655.748C336.966 655.936 336.846 656.19 336.846 656.509ZM336.084 656.568C336.084 655.591 336.839 654.986 338.35 654.751C339.027 654.641 339.476 654.55 339.697 654.478V654.175C339.697 653.85 339.58 653.58 339.346 653.365C339.111 653.15 338.779 653.042 338.35 653.042C338.037 653.042 337.734 653.117 337.441 653.267C337.155 653.41 336.911 653.606 336.709 653.853L336.221 653.443C336.481 653.143 336.794 652.899 337.158 652.71C337.529 652.522 337.92 652.427 338.33 652.427C339.736 652.427 340.439 653.114 340.439 654.488V657.857H339.717V656.998C339.613 657.278 339.398 657.522 339.072 657.73C338.747 657.932 338.363 658.033 337.92 658.033C337.34 658.033 336.888 657.896 336.562 657.623C336.243 657.349 336.084 656.998 336.084 656.568ZM341.953 657.857V652.603H342.695V653.501H342.705C342.783 653.241 342.975 652.997 343.281 652.769C343.587 652.541 343.952 652.427 344.375 652.427C344.863 652.427 345.264 652.58 345.576 652.886C345.895 653.192 346.055 653.716 346.055 654.458V657.857H345.293V654.585C345.293 653.57 344.928 653.062 344.199 653.062C343.796 653.062 343.447 653.225 343.154 653.55C342.861 653.876 342.715 654.266 342.715 654.722V657.857H341.953ZM347.637 651.421V650.435H348.594V651.421H347.637ZM347.754 657.857V652.603H348.496V657.857H347.754ZM349.775 657.857V657.349L352.842 653.238H350.049V652.603H353.818V653.082L350.732 657.222H353.896V657.857H349.775ZM354.639 655.191C354.639 654.371 354.86 653.707 355.303 653.199C355.745 652.684 356.318 652.427 357.021 652.427C357.738 652.427 358.301 652.678 358.711 653.179C359.121 653.674 359.326 654.309 359.326 655.083C359.326 655.175 359.32 655.305 359.307 655.474H355.4C355.4 656.001 355.547 656.454 355.84 656.832C356.133 657.209 356.54 657.398 357.061 657.398C357.399 657.398 357.699 657.32 357.959 657.164C358.219 657.001 358.421 656.786 358.564 656.519L359.209 656.714C359.046 657.098 358.783 657.414 358.418 657.662C358.053 657.909 357.601 658.033 357.061 658.033C356.331 658.033 355.745 657.772 355.303 657.251C354.86 656.731 354.639 656.044 354.639 655.191ZM355.42 654.898H358.564C358.564 654.384 358.424 653.951 358.145 653.599C357.865 653.241 357.49 653.062 357.021 653.062C356.546 653.062 356.162 653.244 355.869 653.609C355.583 653.973 355.433 654.403 355.42 654.898ZM360.518 657.857V652.603H361.24V653.365C361.344 653.13 361.517 652.916 361.758 652.72C361.999 652.525 362.308 652.427 362.686 652.427C362.965 652.427 363.213 652.473 363.428 652.564V653.248C363.193 653.156 362.946 653.111 362.686 653.111C362.243 653.111 361.898 653.277 361.65 653.609C361.403 653.941 361.279 654.38 361.279 654.927V657.857H360.518Z" fill="#FAC439"/>
<path d="M112.899 624.877C114.131 627.516 113.105 630.895 110.601 632.422C108.096 633.949 105.069 633.041 103.837 630.402C102.605 627.763 103.631 624.384 106.136 622.857C108.64 621.33 111.667 622.238 112.899 624.877Z" stroke="white"/>
<path d="M114.113 632.932C114.616 634.01 114.191 635.406 113.142 636.046C112.094 636.685 110.842 636.31 110.339 635.233C109.836 634.155 110.261 632.758 111.309 632.119C112.358 631.48 113.61 631.855 114.113 632.932Z" stroke="white"/>
<path d="M124.021 630.512C125.253 633.151 124.227 636.53 121.723 638.057C119.218 639.584 116.191 638.676 114.959 636.037C113.727 633.398 114.753 630.019 117.258 628.492C119.762 626.965 122.789 627.873 124.021 630.512Z" stroke="white"/>
<path d="M114.196 638.572C115.428 641.211 114.402 644.59 111.898 646.117C109.394 647.644 106.366 646.736 105.135 644.097C103.903 641.458 104.929 638.079 107.433 636.552C109.937 635.025 112.964 635.933 114.196 638.572Z" stroke="white"/>
<path fill-rule="evenodd" clip-rule="evenodd" d="M189 625.857C195.075 625.857 200 630.782 200 636.857C200 642.932 195.075 647.857 189 647.857C182.925 647.857 178 642.932 178 636.857C178 630.782 182.925 625.857 189 625.857ZM189 626.857C194.523 626.857 199 631.334 199 636.857C199 642.38 194.523 646.857 189 646.857C183.477 646.857 179 642.38 179 636.857C179 631.334 183.477 626.857 189 626.857ZM194.5 637.357H189.5V642.357H188.5V637.357H183.5V636.357H188.5V631.357H189.5V636.357H194.5V637.357Z" fill="white"/>
<path fill-rule="evenodd" clip-rule="evenodd" d="M38 644.714C57.0069 631.052 44.1979 619.594 38 627.086C31.8021 619.594 18.9931 631.052 38 644.714Z" stroke="white"/>
<path d="M344 628.524V627.762C344 626.502 343.103 625.476 342 625.476V624.714C342 623.454 341.103 622.429 340 622.429H332C330.897 622.429 330 623.454 330 624.714V625.476C328.897 625.476 328 626.502 328 627.762V628.524C326.897 628.524 326 629.549 326 630.81V643C326 644.26 326.897 645.286 328 645.286H344C345.103 645.286 346 644.26 346 643V630.81C346 629.549 345.103 628.524 344 628.524ZM331.333 624.714C331.333 624.294 331.632 623.953 332 623.953H340C340.368 623.953 340.667 624.294 340.667 624.714V625.476H331.333V624.714ZM329.333 627.762C329.333 627.342 329.632 627 330 627H342C342.368 627 342.667 627.342 342.667 627.762V628.524H329.333V627.762ZM344.667 643C344.667 643.42 344.368 643.762 344 643.762H328C327.632 643.762 327.333 643.42 327.333 643V630.81C327.333 630.39 327.632 630.048 328 630.048H344C344.368 630.048 344.667 630.39 344.667 630.81V643Z" fill="#FAC439"/>
<line x1="255" y1="631.071" x2="272.029" y2="631.071" stroke="white"/>
<line x1="255" y1="626.5" x2="272.029" y2="626.5" stroke="white"/>
<line x1="255" y1="635.643" x2="272.029" y2="635.643" stroke="white"/>
<line x1="255" y1="640.214" x2="272.029" y2="640.214" stroke="white"/>
<ellipse cx="252.75" cy="635.857" rx="0.75" ry="0.857142" fill="white"/>
<ellipse cx="252.75" cy="631.286" rx="0.75" ry="0.857142" fill="white"/>
<ellipse cx="252.75" cy="626.714" rx="0.75" ry="0.857143" fill="white"/>
<ellipse cx="252.75" cy="640.428" rx="0.75" ry="0.857142" fill="white"/>
<path fill-rule="evenodd" clip-rule="evenodd" d="M16.349 42.5L25 34.1091L22.8255 32L13.0873 41.4454L12 42.5L13.0873 43.5546L22.8255 53L25 50.8909L16.349 42.5Z" fill="#BB1900"/>
<rect x="24" y="536" width="15" height="15" fill="#FC5715"/>
<rect x="24" y="581" width="15" height="15" fill="#FAC439"/>
<rect x="24" y="492" width="15" height="15" fill="#BB1900"/>
<path fill-rule="evenodd" clip-rule="evenodd" d="M31.113 296.482H26.1135C25.8388 296.482 25.6166 296.263 25.6166 295.991C25.6166 295.719 25.8388 295.5 26.1135 295.5H30.1192V289.453C30.1192 289.182 30.3414 288.961 30.6161 288.961C30.8908 288.961 31.113 289.182 31.113 289.453V296.482ZM30.4996 286.346C25.667 286.346 21.75 290.221 21.75 295C21.75 299.779 25.667 303.655 30.4996 303.655C35.3323 303.655 39.25 299.779 39.25 295C39.25 290.221 35.3323 286.346 30.4996 286.346Z" fill="#A1A1A1"/>
<path d="M32.6563 249.562V243.981V243.654H32.325H29.675H29.3437V243.981V249.562L29.8406 249.279L24.9431 246.488L24.6563 246.325L24.4906 246.608L23.1656 248.873L23 249.156L23.2869 249.319L28.1843 252.11V251.544L23.2869 254.334L23 254.498L23.1656 254.781L24.4906 257.046L24.6563 257.329L24.9431 257.166L29.8406 254.375L29.3437 254.092V259.673V260H29.675H32.325H32.6563V259.673V254.092L32.1594 254.375L37.0569 257.166L37.3437 257.329L37.5094 257.046L38.8344 254.781L39 254.498L38.7131 254.334L33.8157 251.544V252.11L38.7131 249.319L39 249.156L38.8344 248.873L37.5094 246.608L37.3437 246.325L37.0569 246.488L32.1594 249.279L32.6563 249.562Z" fill="#A1A1A1"/>
</g>
<defs>
<filter id="filter0_bd" x="-27.1828" y="584.96" width="429.366" height="110.366" filterUnits="userSpaceOnUse" color-interpolation-filters="sRGB">
<feFlood flood-opacity="0" result="BackgroundImageFix"/>
<feGaussianBlur in="BackgroundImage" stdDeviation="13.5914"/>
<feComposite in2="SourceAlpha" operator="in" result="effect1_backgroundBlur"/>
<feColorMatrix in="SourceAlpha" type="matrix" values="0 0 0 0 0 0 0 0 0 0 0 0 0 0 0 0 0 0 127 0"/>
<feOffset dy="-0.5"/>
<feColorMatrix type="matrix" values="0 0 0 0 0 0 0 0 0 0 0 0 0 0 0 0 0 0 0.3 0"/>
<feBlend mode="normal" in2="effect1_backgroundBlur" result="effect2_dropShadow"/>
<feBlend mode="normal" in="SourceGraphic" in2="effect2_dropShadow" result="shape"/>
</filter>
<clipPath id="clip0">
<rect width="375" height="667" fill="white"/>
</clipPath>
</defs>
</svg>
