<svg width="653" height="649" viewBox="0 0 653 649" fill="none" xmlns="http://www.w3.org/2000/svg">
<rect width="653" height="649" fill="#F5F2F2"/>
<g filter="url(#filter0_d)">
<rect x="34" y="491" width="172" height="121" rx="20" fill="#E3EAED"/>
<path d="M78.4844 551.465L77.7109 555.449H81.0273V556.961H77.4297L76.4453 562H74.8398L75.8242 556.961H72.2734L71.3125 562H69.7188L70.6562 556.961H67.5859V555.449H70.9492L71.7461 551.465H68.5V549.977H72.0039L72.9648 544.867H74.5938L73.6328 549.977H77.207L78.1914 544.867H79.7617L78.7773 549.977H81.8711V551.465H78.4844ZM72.5547 555.449H76.1055L76.8789 551.465H73.3281L72.5547 555.449ZM94.4102 562H84.8594V544.867H94.4102V546.637H86.8516V552.156H93.9531V553.914H86.8516V560.219H94.4102V562ZM107.652 548.898C107.652 549.992 107.344 550.887 106.727 551.582C106.117 552.277 105.25 552.742 104.125 552.977V553.07C105.5 553.242 106.52 553.68 107.184 554.383C107.848 555.086 108.18 556.008 108.18 557.148C108.18 558.781 107.613 560.039 106.48 560.922C105.348 561.797 103.738 562.234 101.652 562.234C100.746 562.234 99.9141 562.164 99.1562 562.023C98.4062 561.891 97.6758 561.652 96.9648 561.309V559.457C97.707 559.824 98.4961 560.105 99.332 560.301C100.176 560.488 100.973 560.582 101.723 560.582C104.684 560.582 106.164 559.422 106.164 557.102C106.164 555.023 104.531 553.984 101.266 553.984H99.5781V552.309H101.289C102.625 552.309 103.684 552.016 104.465 551.43C105.246 550.836 105.637 550.016 105.637 548.969C105.637 548.133 105.348 547.477 104.77 547C104.199 546.523 103.422 546.285 102.438 546.285C101.688 546.285 100.98 546.387 100.316 546.59C99.6523 546.793 98.8945 547.168 98.043 547.715L97.0586 546.402C97.7617 545.848 98.5703 545.414 99.4844 545.102C100.406 544.781 101.375 544.621 102.391 544.621C104.055 544.621 105.348 545.004 106.27 545.77C107.191 546.527 107.652 547.57 107.652 548.898ZM121.504 562H111.953V544.867H121.504V546.637H113.945V552.156H121.047V553.914H113.945V560.219H121.504V562ZM136.082 562L133.949 556.551H127.082L124.973 562H122.957L129.73 544.797H131.406L138.145 562H136.082ZM133.328 554.758L131.336 549.449C131.078 548.777 130.812 547.953 130.539 546.977C130.367 547.727 130.121 548.551 129.801 549.449L127.785 554.758H133.328ZM150.051 562H140.5V544.867H150.051V546.637H142.492V552.156H149.594V553.914H142.492V560.219H150.051V562ZM167.535 553.27C167.535 556.098 166.766 558.262 165.227 559.762C163.695 561.254 161.488 562 158.605 562H153.859V544.867H159.109C161.773 544.867 163.844 545.605 165.32 547.082C166.797 548.559 167.535 550.621 167.535 553.27ZM165.426 553.34C165.426 551.105 164.863 549.422 163.738 548.289C162.621 547.156 160.957 546.59 158.746 546.59H155.852V560.277H158.277C160.652 560.277 162.438 559.695 163.633 558.531C164.828 557.359 165.426 555.629 165.426 553.34Z" fill="black"/>
</g>
<g filter="url(#filter1_d)">
<rect x="34" y="337" width="172" height="121" rx="20" fill="#5F5D5B"/>
<path d="M80.4023 396.465L79.6289 400.449H82.9453V401.961H79.3477L78.3633 407H76.7578L77.7422 401.961H74.1914L73.2305 407H71.6367L72.5742 401.961H69.5039V400.449H72.8672L73.6641 396.465H70.418V394.977H73.9219L74.8828 389.867H76.5117L75.5508 394.977H79.125L80.1094 389.867H81.6797L80.6953 394.977H83.7891V396.465H80.4023ZM74.4727 400.449H78.0234L78.7969 396.465H75.2461L74.4727 400.449ZM90.9492 396.535C92.7539 396.535 94.1719 396.984 95.2031 397.883C96.2422 398.773 96.7617 399.996 96.7617 401.551C96.7617 403.324 96.1953 404.715 95.0625 405.723C93.9375 406.73 92.3828 407.234 90.3984 407.234C88.4688 407.234 86.9961 406.926 85.9805 406.309V404.434C86.5273 404.785 87.207 405.062 88.0195 405.266C88.832 405.461 89.6328 405.559 90.4219 405.559C91.7969 405.559 92.8633 405.234 93.6211 404.586C94.3867 403.938 94.7695 403 94.7695 401.773C94.7695 399.383 93.3047 398.188 90.375 398.188C89.6328 398.188 88.6406 398.301 87.3984 398.527L86.3906 397.883L87.0352 389.867H95.5547V391.66H88.6992L88.2656 396.805C89.1641 396.625 90.0586 396.535 90.9492 396.535ZM102.504 407H100.512V389.867H110.062V391.637H102.504V397.906H109.605V399.676H102.504V407ZM117.082 396.535C118.887 396.535 120.305 396.984 121.336 397.883C122.375 398.773 122.895 399.996 122.895 401.551C122.895 403.324 122.328 404.715 121.195 405.723C120.07 406.73 118.516 407.234 116.531 407.234C114.602 407.234 113.129 406.926 112.113 406.309V404.434C112.66 404.785 113.34 405.062 114.152 405.266C114.965 405.461 115.766 405.559 116.555 405.559C117.93 405.559 118.996 405.234 119.754 404.586C120.52 403.938 120.902 403 120.902 401.773C120.902 399.383 119.438 398.188 116.508 398.188C115.766 398.188 114.773 398.301 113.531 398.527L112.523 397.883L113.168 389.867H121.688V391.66H114.832L114.398 396.805C115.297 396.625 116.191 396.535 117.082 396.535ZM140.32 398.27C140.32 401.098 139.551 403.262 138.012 404.762C136.48 406.254 134.273 407 131.391 407H126.645V389.867H131.895C134.559 389.867 136.629 390.605 138.105 392.082C139.582 393.559 140.32 395.621 140.32 398.27ZM138.211 398.34C138.211 396.105 137.648 394.422 136.523 393.289C135.406 392.156 133.742 391.59 131.531 391.59H128.637V405.277H131.062C133.438 405.277 135.223 404.695 136.418 403.531C137.613 402.359 138.211 400.629 138.211 398.34ZM148.324 396.535C150.129 396.535 151.547 396.984 152.578 397.883C153.617 398.773 154.137 399.996 154.137 401.551C154.137 403.324 153.57 404.715 152.438 405.723C151.312 406.73 149.758 407.234 147.773 407.234C145.844 407.234 144.371 406.926 143.355 406.309V404.434C143.902 404.785 144.582 405.062 145.395 405.266C146.207 405.461 147.008 405.559 147.797 405.559C149.172 405.559 150.238 405.234 150.996 404.586C151.762 403.938 152.145 403 152.145 401.773C152.145 399.383 150.68 398.188 147.75 398.188C147.008 398.188 146.016 398.301 144.773 398.527L143.766 397.883L144.41 389.867H152.93V391.66H146.074L145.641 396.805C146.539 396.625 147.434 396.535 148.324 396.535ZM157.887 389.867H162.727C165 389.867 166.645 390.207 167.66 390.887C168.676 391.566 169.184 392.641 169.184 394.109C169.184 395.125 168.898 395.965 168.328 396.629C167.766 397.285 166.941 397.711 165.855 397.906V398.023C168.457 398.469 169.758 399.836 169.758 402.125C169.758 403.656 169.238 404.852 168.199 405.711C167.168 406.57 165.723 407 163.863 407H157.887V389.867ZM159.879 397.203H163.16C164.566 397.203 165.578 396.984 166.195 396.547C166.812 396.102 167.121 395.355 167.121 394.309C167.121 393.348 166.777 392.656 166.09 392.234C165.402 391.805 164.309 391.59 162.809 391.59H159.879V397.203ZM159.879 398.891V405.301H163.453C164.836 405.301 165.875 405.035 166.57 404.504C167.273 403.965 167.625 403.125 167.625 401.984C167.625 400.922 167.266 400.141 166.547 399.641C165.836 399.141 164.75 398.891 163.289 398.891H159.879Z" fill="white"/>
</g>
<g filter="url(#filter2_d)">
<rect x="34" y="183" width="172" height="121" rx="20" fill="#263238"/>
<path d="M82.5352 243.465L81.7617 247.449H85.0781V248.961H81.4805L80.4961 254H78.8906L79.875 248.961H76.3242L75.3633 254H73.7695L74.707 248.961H71.6367V247.449H75L75.7969 243.465H72.5508V241.977H76.0547L77.0156 236.867H78.6445L77.6836 241.977H81.2578L82.2422 236.867H83.8125L82.8281 241.977H85.9219V243.465H82.5352ZM76.6055 247.449H80.1562L80.9297 243.465H77.3789L76.6055 247.449ZM98.9883 254H87.7266V252.324L92.2383 247.789C93.6133 246.398 94.5195 245.406 94.957 244.812C95.3945 244.219 95.7227 243.641 95.9414 243.078C96.1602 242.516 96.2695 241.91 96.2695 241.262C96.2695 240.348 95.9922 239.625 95.4375 239.094C94.8828 238.555 94.1133 238.285 93.1289 238.285C92.418 238.285 91.7422 238.402 91.1016 238.637C90.4688 238.871 89.7617 239.297 88.9805 239.914L87.9492 238.59C89.5273 237.277 91.2461 236.621 93.1055 236.621C94.7148 236.621 95.9766 237.035 96.8906 237.863C97.8047 238.684 98.2617 239.789 98.2617 241.18C98.2617 242.266 97.957 243.34 97.3477 244.402C96.7383 245.465 95.5977 246.809 93.9258 248.434L90.1758 252.102V252.195H98.9883V254ZM101.66 246.676C101.66 243.309 102.312 240.793 103.617 239.129C104.93 237.457 106.867 236.621 109.43 236.621C110.312 236.621 111.008 236.695 111.516 236.844V238.52C110.914 238.324 110.227 238.227 109.453 238.227C107.617 238.227 106.215 238.801 105.246 239.949C104.277 241.09 103.746 242.887 103.652 245.34H103.793C104.652 243.996 106.012 243.324 107.871 243.324C109.41 243.324 110.621 243.789 111.504 244.719C112.395 245.648 112.84 246.91 112.84 248.504C112.84 250.285 112.352 251.688 111.375 252.711C110.406 253.727 109.094 254.234 107.438 254.234C105.664 254.234 104.258 253.57 103.219 252.242C102.18 250.906 101.66 249.051 101.66 246.676ZM107.414 252.582C108.523 252.582 109.383 252.234 109.992 251.539C110.609 250.836 110.918 249.824 110.918 248.504C110.918 247.371 110.633 246.48 110.062 245.832C109.492 245.184 108.641 244.859 107.508 244.859C106.805 244.859 106.16 245.004 105.574 245.293C104.988 245.582 104.52 245.98 104.168 246.488C103.824 246.996 103.652 247.523 103.652 248.07C103.652 248.875 103.809 249.625 104.121 250.32C104.434 251.016 104.875 251.566 105.445 251.973C106.023 252.379 106.68 252.582 107.414 252.582ZM125.812 240.898C125.812 241.992 125.504 242.887 124.887 243.582C124.277 244.277 123.41 244.742 122.285 244.977V245.07C123.66 245.242 124.68 245.68 125.344 246.383C126.008 247.086 126.34 248.008 126.34 249.148C126.34 250.781 125.773 252.039 124.641 252.922C123.508 253.797 121.898 254.234 119.812 254.234C118.906 254.234 118.074 254.164 117.316 254.023C116.566 253.891 115.836 253.652 115.125 253.309V251.457C115.867 251.824 116.656 252.105 117.492 252.301C118.336 252.488 119.133 252.582 119.883 252.582C122.844 252.582 124.324 251.422 124.324 249.102C124.324 247.023 122.691 245.984 119.426 245.984H117.738V244.309H119.449C120.785 244.309 121.844 244.016 122.625 243.43C123.406 242.836 123.797 242.016 123.797 240.969C123.797 240.133 123.508 239.477 122.93 239C122.359 238.523 121.582 238.285 120.598 238.285C119.848 238.285 119.141 238.387 118.477 238.59C117.812 238.793 117.055 239.168 116.203 239.715L115.219 238.402C115.922 237.848 116.73 237.414 117.645 237.102C118.566 236.781 119.535 236.621 120.551 236.621C122.215 236.621 123.508 237.004 124.43 237.77C125.352 238.527 125.812 239.57 125.812 240.898ZM140.191 254H128.93V252.324L133.441 247.789C134.816 246.398 135.723 245.406 136.16 244.812C136.598 244.219 136.926 243.641 137.145 243.078C137.363 242.516 137.473 241.91 137.473 241.262C137.473 240.348 137.195 239.625 136.641 239.094C136.086 238.555 135.316 238.285 134.332 238.285C133.621 238.285 132.945 238.402 132.305 238.637C131.672 238.871 130.965 239.297 130.184 239.914L129.152 238.59C130.73 237.277 132.449 236.621 134.309 236.621C135.918 236.621 137.18 237.035 138.094 237.863C139.008 238.684 139.465 239.789 139.465 241.18C139.465 242.266 139.16 243.34 138.551 244.402C137.941 245.465 136.801 246.809 135.129 248.434L131.379 252.102V252.195H140.191V254ZM153.281 240.898C153.281 241.992 152.973 242.887 152.355 243.582C151.746 244.277 150.879 244.742 149.754 244.977V245.07C151.129 245.242 152.148 245.68 152.812 246.383C153.477 247.086 153.809 248.008 153.809 249.148C153.809 250.781 153.242 252.039 152.109 252.922C150.977 253.797 149.367 254.234 147.281 254.234C146.375 254.234 145.543 254.164 144.785 254.023C144.035 253.891 143.305 253.652 142.594 253.309V251.457C143.336 251.824 144.125 252.105 144.961 252.301C145.805 252.488 146.602 252.582 147.352 252.582C150.312 252.582 151.793 251.422 151.793 249.102C151.793 247.023 150.16 245.984 146.895 245.984H145.207V244.309H146.918C148.254 244.309 149.312 244.016 150.094 243.43C150.875 242.836 151.266 242.016 151.266 240.969C151.266 240.133 150.977 239.477 150.398 239C149.828 238.523 149.051 238.285 148.066 238.285C147.316 238.285 146.609 238.387 145.945 238.59C145.281 238.793 144.523 239.168 143.672 239.715L142.688 238.402C143.391 237.848 144.199 237.414 145.113 237.102C146.035 236.781 147.004 236.621 148.02 236.621C149.684 236.621 150.977 237.004 151.898 237.77C152.82 238.527 153.281 239.57 153.281 240.898ZM162.07 236.621C163.633 236.621 164.871 236.984 165.785 237.711C166.699 238.438 167.156 239.441 167.156 240.723C167.156 241.566 166.895 242.336 166.371 243.031C165.848 243.727 165.012 244.359 163.863 244.93C165.254 245.594 166.242 246.293 166.828 247.027C167.414 247.754 167.707 248.598 167.707 249.559C167.707 250.98 167.211 252.117 166.219 252.969C165.227 253.812 163.867 254.234 162.141 254.234C160.312 254.234 158.906 253.836 157.922 253.039C156.938 252.234 156.445 251.098 156.445 249.629C156.445 247.668 157.641 246.141 160.031 245.047C158.953 244.438 158.18 243.781 157.711 243.078C157.242 242.367 157.008 241.574 157.008 240.699C157.008 239.457 157.465 238.469 158.379 237.734C159.301 236.992 160.531 236.621 162.07 236.621ZM158.367 249.676C158.367 250.613 158.691 251.344 159.34 251.867C159.996 252.391 160.914 252.652 162.094 252.652C163.258 252.652 164.164 252.379 164.812 251.832C165.461 251.285 165.785 250.535 165.785 249.582C165.785 248.824 165.48 248.152 164.871 247.566C164.262 246.973 163.199 246.398 161.684 245.844C160.52 246.344 159.676 246.898 159.152 247.508C158.629 248.109 158.367 248.832 158.367 249.676ZM162.047 238.203C161.07 238.203 160.305 238.438 159.75 238.906C159.195 239.375 158.918 240 158.918 240.781C158.918 241.5 159.148 242.117 159.609 242.633C160.07 243.148 160.922 243.664 162.164 244.18C163.281 243.711 164.07 243.207 164.531 242.668C165 242.129 165.234 241.5 165.234 240.781C165.234 239.992 164.949 239.367 164.379 238.906C163.816 238.438 163.039 238.203 162.047 238.203Z" fill="white"/>
</g>
<g filter="url(#filter3_d)">
<rect x="239" y="29" width="172" height="121" rx="20" fill="#FC5715"/>
<path d="M287.5 88.4648L286.727 92.4492H290.043V93.9609H286.445L285.461 99H283.855L284.84 93.9609H281.289L280.328 99H278.734L279.672 93.9609H276.602V92.4492H279.965L280.762 88.4648H277.516V86.9766H281.02L281.98 81.8672H283.609L282.648 86.9766H286.223L287.207 81.8672H288.777L287.793 86.9766H290.887V88.4648H287.5ZM281.57 92.4492H285.121L285.895 88.4648H282.344L281.57 92.4492ZM295.867 99H293.875V81.8672H303.426V83.6367H295.867V89.9062H302.969V91.6758H295.867V99ZM313.609 83.4023C311.727 83.4023 310.238 84.0312 309.145 85.2891C308.059 86.5391 307.516 88.2539 307.516 90.4336C307.516 92.6758 308.039 94.4102 309.086 95.6367C310.141 96.8555 311.641 97.4648 313.586 97.4648C314.781 97.4648 316.145 97.25 317.676 96.8203V98.5664C316.488 99.0117 315.023 99.2344 313.281 99.2344C310.758 99.2344 308.809 98.4688 307.434 96.9375C306.066 95.4062 305.383 93.2305 305.383 90.4102C305.383 88.6445 305.711 87.0977 306.367 85.7695C307.031 84.4414 307.984 83.418 309.227 82.6992C310.477 81.9805 311.945 81.6211 313.633 81.6211C315.43 81.6211 317 81.9492 318.344 82.6055L317.5 84.3164C316.203 83.707 314.906 83.4023 313.609 83.4023ZM325.586 88.5352C327.391 88.5352 328.809 88.9844 329.84 89.8828C330.879 90.7734 331.398 91.9961 331.398 93.5508C331.398 95.3242 330.832 96.7148 329.699 97.7227C328.574 98.7305 327.02 99.2344 325.035 99.2344C323.105 99.2344 321.633 98.9258 320.617 98.3086V96.4336C321.164 96.7852 321.844 97.0625 322.656 97.2656C323.469 97.4609 324.27 97.5586 325.059 97.5586C326.434 97.5586 327.5 97.2344 328.258 96.5859C329.023 95.9375 329.406 95 329.406 93.7734C329.406 91.3828 327.941 90.1875 325.012 90.1875C324.27 90.1875 323.277 90.3008 322.035 90.5273L321.027 89.8828L321.672 81.8672H330.191V83.6602H323.336L322.902 88.8047C323.801 88.625 324.695 88.5352 325.586 88.5352ZM336.133 99L343.234 83.6602H333.895V81.8672H345.297V83.4258L338.289 99H336.133ZM354.906 99H353.008V86.7891C353.008 85.7734 353.039 84.8125 353.102 83.9062C352.938 84.0703 352.754 84.2422 352.551 84.4219C352.348 84.6016 351.418 85.3633 349.762 86.707L348.73 85.3711L353.266 81.8672H354.906V99ZM366.789 88.5352C368.594 88.5352 370.012 88.9844 371.043 89.8828C372.082 90.7734 372.602 91.9961 372.602 93.5508C372.602 95.3242 372.035 96.7148 370.902 97.7227C369.777 98.7305 368.223 99.2344 366.238 99.2344C364.309 99.2344 362.836 98.9258 361.82 98.3086V96.4336C362.367 96.7852 363.047 97.0625 363.859 97.2656C364.672 97.4609 365.473 97.5586 366.262 97.5586C367.637 97.5586 368.703 97.2344 369.461 96.5859C370.227 95.9375 370.609 95 370.609 93.7734C370.609 91.3828 369.145 90.1875 366.215 90.1875C365.473 90.1875 364.48 90.3008 363.238 90.5273L362.23 89.8828L362.875 81.8672H371.395V83.6602H364.539L364.105 88.8047C365.004 88.625 365.898 88.5352 366.789 88.5352Z" fill="white"/>
</g>
<g filter="url(#filter4_d)">
<rect x="239" y="183" width="172" height="121" rx="20" fill="#FF9500"/>
<path d="M288.871 242.465L288.098 246.449H291.414V247.961H287.816L286.832 253H285.227L286.211 247.961H282.66L281.699 253H280.105L281.043 247.961H277.973V246.449H281.336L282.133 242.465H278.887V240.977H282.391L283.352 235.867H284.98L284.02 240.977H287.594L288.578 235.867H290.148L289.164 240.977H292.258V242.465H288.871ZM282.941 246.449H286.492L287.266 242.465H283.715L282.941 246.449ZM297.238 253H295.246V235.867H304.797V237.637H297.238V243.906H304.34V245.676H297.238V253ZM309.637 253H307.645V235.867H317.195V237.637H309.637V243.906H316.738V245.676H309.637V253ZM330.121 243.18C330.121 249.883 327.527 253.234 322.34 253.234C321.434 253.234 320.715 253.156 320.184 253V251.324C320.809 251.527 321.52 251.629 322.316 251.629C324.191 251.629 325.605 251.051 326.559 249.895C327.52 248.73 328.043 246.949 328.129 244.551H327.988C327.559 245.199 326.988 245.695 326.277 246.039C325.566 246.375 324.766 246.543 323.875 246.543C322.359 246.543 321.156 246.09 320.266 245.184C319.375 244.277 318.93 243.012 318.93 241.387C318.93 239.605 319.426 238.199 320.418 237.168C321.418 236.137 322.73 235.621 324.355 235.621C325.52 235.621 326.535 235.922 327.402 236.523C328.277 237.117 328.949 237.988 329.418 239.137C329.887 240.277 330.121 241.625 330.121 243.18ZM324.355 237.285C323.238 237.285 322.375 237.645 321.766 238.363C321.156 239.082 320.852 240.082 320.852 241.363C320.852 242.488 321.133 243.375 321.695 244.023C322.258 244.664 323.113 244.984 324.262 244.984C324.973 244.984 325.625 244.84 326.219 244.551C326.82 244.262 327.293 243.867 327.637 243.367C327.98 242.867 328.152 242.344 328.152 241.797C328.152 240.977 327.992 240.219 327.672 239.523C327.352 238.828 326.902 238.281 326.324 237.883C325.754 237.484 325.098 237.285 324.355 237.285ZM337.949 242.535C339.754 242.535 341.172 242.984 342.203 243.883C343.242 244.773 343.762 245.996 343.762 247.551C343.762 249.324 343.195 250.715 342.062 251.723C340.938 252.73 339.383 253.234 337.398 253.234C335.469 253.234 333.996 252.926 332.98 252.309V250.434C333.527 250.785 334.207 251.062 335.02 251.266C335.832 251.461 336.633 251.559 337.422 251.559C338.797 251.559 339.863 251.234 340.621 250.586C341.387 249.938 341.77 249 341.77 247.773C341.77 245.383 340.305 244.188 337.375 244.188C336.633 244.188 335.641 244.301 334.398 244.527L333.391 243.883L334.035 235.867H342.555V237.66H335.699L335.266 242.805C336.164 242.625 337.059 242.535 337.949 242.535ZM357.684 244.41C357.684 247.371 357.215 249.582 356.277 251.043C355.348 252.504 353.922 253.234 352 253.234C350.156 253.234 348.754 252.488 347.793 250.996C346.832 249.496 346.352 247.301 346.352 244.41C346.352 241.426 346.816 239.211 347.746 237.766C348.676 236.32 350.094 235.598 352 235.598C353.859 235.598 355.27 236.352 356.23 237.859C357.199 239.367 357.684 241.551 357.684 244.41ZM348.32 244.41C348.32 246.902 348.613 248.719 349.199 249.859C349.785 250.992 350.719 251.559 352 251.559C353.297 251.559 354.234 250.984 354.812 249.836C355.398 248.68 355.691 246.871 355.691 244.41C355.691 241.949 355.398 240.148 354.812 239.008C354.234 237.859 353.297 237.285 352 237.285C350.719 237.285 349.785 237.852 349.199 238.984C348.613 240.109 348.32 241.918 348.32 244.41ZM371.418 244.41C371.418 247.371 370.949 249.582 370.012 251.043C369.082 252.504 367.656 253.234 365.734 253.234C363.891 253.234 362.488 252.488 361.527 250.996C360.566 249.496 360.086 247.301 360.086 244.41C360.086 241.426 360.551 239.211 361.48 237.766C362.41 236.32 363.828 235.598 365.734 235.598C367.594 235.598 369.004 236.352 369.965 237.859C370.934 239.367 371.418 241.551 371.418 244.41ZM362.055 244.41C362.055 246.902 362.348 248.719 362.934 249.859C363.52 250.992 364.453 251.559 365.734 251.559C367.031 251.559 367.969 250.984 368.547 249.836C369.133 248.68 369.426 246.871 369.426 244.41C369.426 241.949 369.133 240.148 368.547 239.008C367.969 237.859 367.031 237.285 365.734 237.285C364.453 237.285 363.52 237.852 362.934 238.984C362.348 240.109 362.055 241.918 362.055 244.41Z" fill="white"/>
</g>
<g filter="url(#filter5_d)">
<rect x="239" y="337" width="172" height="121" rx="20" fill="#FAC439"/>
<path d="M286.773 396.465L286 400.449H289.316V401.961H285.719L284.734 407H283.129L284.113 401.961H280.562L279.602 407H278.008L278.945 401.961H275.875V400.449H279.238L280.035 396.465H276.789V394.977H280.293L281.254 389.867H282.883L281.922 394.977H285.496L286.48 389.867H288.051L287.066 394.977H290.16V396.465H286.773ZM280.844 400.449H284.395L285.168 396.465H281.617L280.844 400.449ZM295.141 407H293.148V389.867H302.699V391.637H295.141V397.906H302.242V399.676H295.141V407ZM316.316 407L314.184 401.551H307.316L305.207 407H303.191L309.965 389.797H311.641L318.379 407H316.316ZM313.562 399.758L311.57 394.449C311.312 393.777 311.047 392.953 310.773 391.977C310.602 392.727 310.355 393.551 310.035 394.449L308.02 399.758H313.562ZM328.07 391.402C326.188 391.402 324.699 392.031 323.605 393.289C322.52 394.539 321.977 396.254 321.977 398.434C321.977 400.676 322.5 402.41 323.547 403.637C324.602 404.855 326.102 405.465 328.047 405.465C329.242 405.465 330.605 405.25 332.137 404.82V406.566C330.949 407.012 329.484 407.234 327.742 407.234C325.219 407.234 323.27 406.469 321.895 404.938C320.527 403.406 319.844 401.23 319.844 398.41C319.844 396.645 320.172 395.098 320.828 393.77C321.492 392.441 322.445 391.418 323.688 390.699C324.938 389.98 326.406 389.621 328.094 389.621C329.891 389.621 331.461 389.949 332.805 390.605L331.961 392.316C330.664 391.707 329.367 391.402 328.07 391.402ZM346.762 403.062H344.219V407H342.355V403.062H334.023V401.363L342.156 389.773H344.219V401.293H346.762V403.062ZM342.355 401.293V395.598C342.355 394.48 342.395 393.219 342.473 391.812H342.379C342.004 392.562 341.652 393.184 341.324 393.676L335.969 401.293H342.355ZM359.043 393.898C359.043 394.992 358.734 395.887 358.117 396.582C357.508 397.277 356.641 397.742 355.516 397.977V398.07C356.891 398.242 357.91 398.68 358.574 399.383C359.238 400.086 359.57 401.008 359.57 402.148C359.57 403.781 359.004 405.039 357.871 405.922C356.738 406.797 355.129 407.234 353.043 407.234C352.137 407.234 351.305 407.164 350.547 407.023C349.797 406.891 349.066 406.652 348.355 406.309V404.457C349.098 404.824 349.887 405.105 350.723 405.301C351.566 405.488 352.363 405.582 353.113 405.582C356.074 405.582 357.555 404.422 357.555 402.102C357.555 400.023 355.922 398.984 352.656 398.984H350.969V397.309H352.68C354.016 397.309 355.074 397.016 355.855 396.43C356.637 395.836 357.027 395.016 357.027 393.969C357.027 393.133 356.738 392.477 356.16 392C355.59 391.523 354.812 391.285 353.828 391.285C353.078 391.285 352.371 391.387 351.707 391.59C351.043 391.793 350.285 392.168 349.434 392.715L348.449 391.402C349.152 390.848 349.961 390.414 350.875 390.102C351.797 389.781 352.766 389.621 353.781 389.621C355.445 389.621 356.738 390.004 357.66 390.77C358.582 391.527 359.043 392.57 359.043 393.898ZM373.422 397.18C373.422 403.883 370.828 407.234 365.641 407.234C364.734 407.234 364.016 407.156 363.484 407V405.324C364.109 405.527 364.82 405.629 365.617 405.629C367.492 405.629 368.906 405.051 369.859 403.895C370.82 402.73 371.344 400.949 371.43 398.551H371.289C370.859 399.199 370.289 399.695 369.578 400.039C368.867 400.375 368.066 400.543 367.176 400.543C365.66 400.543 364.457 400.09 363.566 399.184C362.676 398.277 362.23 397.012 362.23 395.387C362.23 393.605 362.727 392.199 363.719 391.168C364.719 390.137 366.031 389.621 367.656 389.621C368.82 389.621 369.836 389.922 370.703 390.523C371.578 391.117 372.25 391.988 372.719 393.137C373.188 394.277 373.422 395.625 373.422 397.18ZM367.656 391.285C366.539 391.285 365.676 391.645 365.066 392.363C364.457 393.082 364.152 394.082 364.152 395.363C364.152 396.488 364.434 397.375 364.996 398.023C365.559 398.664 366.414 398.984 367.562 398.984C368.273 398.984 368.926 398.84 369.52 398.551C370.121 398.262 370.594 397.867 370.938 397.367C371.281 396.867 371.453 396.344 371.453 395.797C371.453 394.977 371.293 394.219 370.973 393.523C370.652 392.828 370.203 392.281 369.625 391.883C369.055 391.484 368.398 391.285 367.656 391.285Z" fill="white"/>
</g>
<g filter="url(#filter6_d)">
<rect x="34" y="29" width="172" height="121" rx="20" fill="#3B5998"/>
<path d="M82.1211 87.4648L81.3477 91.4492H84.6641V92.9609H81.0664L80.082 98H78.4766L79.4609 92.9609H75.9102L74.9492 98H73.3555L74.293 92.9609H71.2227V91.4492H74.5859L75.3828 87.4648H72.1367V85.9766H75.6406L76.6016 80.8672H78.2305L77.2695 85.9766H80.8438L81.8281 80.8672H83.3984L82.4141 85.9766H85.5078V87.4648H82.1211ZM76.1914 91.4492H79.7422L80.5156 87.4648H76.9648L76.1914 91.4492ZM97.9297 84.8984C97.9297 85.9922 97.6211 86.8867 97.0039 87.582C96.3945 88.2773 95.5273 88.7422 94.4023 88.9766V89.0703C95.7773 89.2422 96.7969 89.6797 97.4609 90.3828C98.125 91.0859 98.457 92.0078 98.457 93.1484C98.457 94.7812 97.8906 96.0391 96.7578 96.9219C95.625 97.7969 94.0156 98.2344 91.9297 98.2344C91.0234 98.2344 90.1914 98.1641 89.4336 98.0234C88.6836 97.8906 87.9531 97.6523 87.2422 97.3086V95.457C87.9844 95.8242 88.7734 96.1055 89.6094 96.3008C90.4531 96.4883 91.25 96.582 92 96.582C94.9609 96.582 96.4414 95.4219 96.4414 93.1016C96.4414 91.0234 94.8086 89.9844 91.543 89.9844H89.8555V88.3086H91.5664C92.9023 88.3086 93.9609 88.0156 94.7422 87.4297C95.5234 86.8359 95.9141 86.0156 95.9141 84.9688C95.9141 84.1328 95.625 83.4766 95.0469 83C94.4766 82.5234 93.6992 82.2852 92.7148 82.2852C91.9648 82.2852 91.2578 82.3867 90.5938 82.5898C89.9297 82.793 89.1719 83.168 88.3203 83.7148L87.3359 82.4023C88.0391 81.8477 88.8477 81.4141 89.7617 81.1016C90.6836 80.7812 91.6523 80.6211 92.668 80.6211C94.332 80.6211 95.625 81.0039 96.5469 81.7695C97.4688 82.5273 97.9297 83.5703 97.9297 84.8984ZM102.23 80.8672H107.07C109.344 80.8672 110.988 81.207 112.004 81.8867C113.02 82.5664 113.527 83.6406 113.527 85.1094C113.527 86.125 113.242 86.9648 112.672 87.6289C112.109 88.2852 111.285 88.7109 110.199 88.9062V89.0234C112.801 89.4688 114.102 90.8359 114.102 93.125C114.102 94.6562 113.582 95.8516 112.543 96.7109C111.512 97.5703 110.066 98 108.207 98H102.23V80.8672ZM104.223 88.2031H107.504C108.91 88.2031 109.922 87.9844 110.539 87.5469C111.156 87.1016 111.465 86.3555 111.465 85.3086C111.465 84.3477 111.121 83.6562 110.434 83.2344C109.746 82.8047 108.652 82.5898 107.152 82.5898H104.223V88.2031ZM104.223 89.8906V96.3008H107.797C109.18 96.3008 110.219 96.0352 110.914 95.5039C111.617 94.9648 111.969 94.125 111.969 92.9844C111.969 91.9219 111.609 91.1406 110.891 90.6406C110.18 90.1406 109.094 89.8906 107.633 89.8906H104.223ZM121.965 87.5352C123.77 87.5352 125.188 87.9844 126.219 88.8828C127.258 89.7734 127.777 90.9961 127.777 92.5508C127.777 94.3242 127.211 95.7148 126.078 96.7227C124.953 97.7305 123.398 98.2344 121.414 98.2344C119.484 98.2344 118.012 97.9258 116.996 97.3086V95.4336C117.543 95.7852 118.223 96.0625 119.035 96.2656C119.848 96.4609 120.648 96.5586 121.438 96.5586C122.812 96.5586 123.879 96.2344 124.637 95.5859C125.402 94.9375 125.785 94 125.785 92.7734C125.785 90.3828 124.32 89.1875 121.391 89.1875C120.648 89.1875 119.656 89.3008 118.414 89.5273L117.406 88.8828L118.051 80.8672H126.57V82.6602H119.715L119.281 87.8047C120.18 87.625 121.074 87.5352 121.965 87.5352ZM141.605 88.1797C141.605 94.8828 139.012 98.2344 133.824 98.2344C132.918 98.2344 132.199 98.1562 131.668 98V96.3242C132.293 96.5273 133.004 96.6289 133.801 96.6289C135.676 96.6289 137.09 96.0508 138.043 94.8945C139.004 93.7305 139.527 91.9492 139.613 89.5508H139.473C139.043 90.1992 138.473 90.6953 137.762 91.0391C137.051 91.375 136.25 91.543 135.359 91.543C133.844 91.543 132.641 91.0898 131.75 90.1836C130.859 89.2773 130.414 88.0117 130.414 86.3867C130.414 84.6055 130.91 83.1992 131.902 82.168C132.902 81.1367 134.215 80.6211 135.84 80.6211C137.004 80.6211 138.02 80.9219 138.887 81.5234C139.762 82.1172 140.434 82.9883 140.902 84.1367C141.371 85.2773 141.605 86.625 141.605 88.1797ZM135.84 82.2852C134.723 82.2852 133.859 82.6445 133.25 83.3633C132.641 84.082 132.336 85.082 132.336 86.3633C132.336 87.4883 132.617 88.375 133.18 89.0234C133.742 89.6641 134.598 89.9844 135.746 89.9844C136.457 89.9844 137.109 89.8398 137.703 89.5508C138.305 89.2617 138.777 88.8672 139.121 88.3672C139.465 87.8672 139.637 87.3438 139.637 86.7969C139.637 85.9766 139.477 85.2188 139.156 84.5234C138.836 83.8281 138.387 83.2812 137.809 82.8828C137.238 82.4844 136.582 82.2852 135.84 82.2852ZM155.34 88.1797C155.34 94.8828 152.746 98.2344 147.559 98.2344C146.652 98.2344 145.934 98.1562 145.402 98V96.3242C146.027 96.5273 146.738 96.6289 147.535 96.6289C149.41 96.6289 150.824 96.0508 151.777 94.8945C152.738 93.7305 153.262 91.9492 153.348 89.5508H153.207C152.777 90.1992 152.207 90.6953 151.496 91.0391C150.785 91.375 149.984 91.543 149.094 91.543C147.578 91.543 146.375 91.0898 145.484 90.1836C144.594 89.2773 144.148 88.0117 144.148 86.3867C144.148 84.6055 144.645 83.1992 145.637 82.168C146.637 81.1367 147.949 80.6211 149.574 80.6211C150.738 80.6211 151.754 80.9219 152.621 81.5234C153.496 82.1172 154.168 82.9883 154.637 84.1367C155.105 85.2773 155.34 86.625 155.34 88.1797ZM149.574 82.2852C148.457 82.2852 147.594 82.6445 146.984 83.3633C146.375 84.082 146.07 85.082 146.07 86.3633C146.07 87.4883 146.352 88.375 146.914 89.0234C147.477 89.6641 148.332 89.9844 149.48 89.9844C150.191 89.9844 150.844 89.8398 151.438 89.5508C152.039 89.2617 152.512 88.8672 152.855 88.3672C153.199 87.8672 153.371 87.3438 153.371 86.7969C153.371 85.9766 153.211 85.2188 152.891 84.5234C152.57 83.8281 152.121 83.2812 151.543 82.8828C150.973 82.4844 150.316 82.2852 149.574 82.2852ZM163.484 80.6211C165.047 80.6211 166.285 80.9844 167.199 81.7109C168.113 82.4375 168.57 83.4414 168.57 84.7227C168.57 85.5664 168.309 86.3359 167.785 87.0312C167.262 87.7266 166.426 88.3594 165.277 88.9297C166.668 89.5938 167.656 90.293 168.242 91.0273C168.828 91.7539 169.121 92.5977 169.121 93.5586C169.121 94.9805 168.625 96.1172 167.633 96.9688C166.641 97.8125 165.281 98.2344 163.555 98.2344C161.727 98.2344 160.32 97.8359 159.336 97.0391C158.352 96.2344 157.859 95.0977 157.859 93.6289C157.859 91.668 159.055 90.1406 161.445 89.0469C160.367 88.4375 159.594 87.7812 159.125 87.0781C158.656 86.3672 158.422 85.5742 158.422 84.6992C158.422 83.457 158.879 82.4688 159.793 81.7344C160.715 80.9922 161.945 80.6211 163.484 80.6211ZM159.781 93.6758C159.781 94.6133 160.105 95.3438 160.754 95.8672C161.41 96.3906 162.328 96.6523 163.508 96.6523C164.672 96.6523 165.578 96.3789 166.227 95.832C166.875 95.2852 167.199 94.5352 167.199 93.582C167.199 92.8242 166.895 92.1523 166.285 91.5664C165.676 90.9727 164.613 90.3984 163.098 89.8438C161.934 90.3438 161.09 90.8984 160.566 91.5078C160.043 92.1094 159.781 92.832 159.781 93.6758ZM163.461 82.2031C162.484 82.2031 161.719 82.4375 161.164 82.9062C160.609 83.375 160.332 84 160.332 84.7812C160.332 85.5 160.562 86.1172 161.023 86.6328C161.484 87.1484 162.336 87.6641 163.578 88.1797C164.695 87.7109 165.484 87.207 165.945 86.668C166.414 86.1289 166.648 85.5 166.648 84.7812C166.648 83.9922 166.363 83.3672 165.793 82.9062C165.23 82.4375 164.453 82.2031 163.461 82.2031Z" fill="white"/>
</g>
<g filter="url(#filter7_d)">
<rect x="239.5" y="491.5" width="171" height="120" rx="19.5" stroke="black"/>
<path d="M292.043 550.465L291.27 554.449H294.586V555.961H290.988L290.004 561H288.398L289.383 555.961H285.832L284.871 561H283.277L284.215 555.961H281.145V554.449H284.508L285.305 550.465H282.059V548.977H285.562L286.523 543.867H288.152L287.191 548.977H290.766L291.75 543.867H293.32L292.336 548.977H295.43V550.465H292.043ZM286.113 554.449H289.664L290.438 550.465H286.887L286.113 554.449ZM300.41 561H298.418V543.867H307.969V545.637H300.41V551.906H307.512V553.676H300.41V561ZM312.809 561H310.816V543.867H320.367V545.637H312.809V551.906H319.91V553.676H312.809V561ZM325.207 561H323.215V543.867H332.766V545.637H325.207V551.906H332.309V553.676H325.207V561ZM337.605 561H335.613V543.867H345.164V545.637H337.605V551.906H344.707V553.676H337.605V561ZM350.004 561H348.012V543.867H357.562V545.637H350.004V551.906H357.105V553.676H350.004V561ZM362.402 561H360.41V543.867H369.961V545.637H362.402V551.906H369.504V553.676H362.402V561Z" fill="black"/>
</g>
<g filter="url(#filter8_d)">
<rect x="445" y="183" width="172" height="121" rx="20" fill="#B07347"/>
<path d="M492.621 242.465L491.848 246.449H495.164V247.961H491.566L490.582 253H488.977L489.961 247.961H486.41L485.449 253H483.855L484.793 247.961H481.723V246.449H485.086L485.883 242.465H482.637V240.977H486.141L487.102 235.867H488.73L487.77 240.977H491.344L492.328 235.867H493.898L492.914 240.977H496.008V242.465H492.621ZM486.691 246.449H490.242L491.016 242.465H487.465L486.691 246.449ZM498.996 235.867H503.836C506.109 235.867 507.754 236.207 508.77 236.887C509.785 237.566 510.293 238.641 510.293 240.109C510.293 241.125 510.008 241.965 509.438 242.629C508.875 243.285 508.051 243.711 506.965 243.906V244.023C509.566 244.469 510.867 245.836 510.867 248.125C510.867 249.656 510.348 250.852 509.309 251.711C508.277 252.57 506.832 253 504.973 253H498.996V235.867ZM500.988 243.203H504.27C505.676 243.203 506.688 242.984 507.305 242.547C507.922 242.102 508.23 241.355 508.23 240.309C508.23 239.348 507.887 238.656 507.199 238.234C506.512 237.805 505.418 237.59 503.918 237.59H500.988V243.203ZM500.988 244.891V251.301H504.562C505.945 251.301 506.984 251.035 507.68 250.504C508.383 249.965 508.734 249.125 508.734 247.984C508.734 246.922 508.375 246.141 507.656 245.641C506.945 245.141 505.859 244.891 504.398 244.891H500.988ZM524.73 244.41C524.73 247.371 524.262 249.582 523.324 251.043C522.395 252.504 520.969 253.234 519.047 253.234C517.203 253.234 515.801 252.488 514.84 250.996C513.879 249.496 513.398 247.301 513.398 244.41C513.398 241.426 513.863 239.211 514.793 237.766C515.723 236.32 517.141 235.598 519.047 235.598C520.906 235.598 522.316 236.352 523.277 237.859C524.246 239.367 524.73 241.551 524.73 244.41ZM515.367 244.41C515.367 246.902 515.66 248.719 516.246 249.859C516.832 250.992 517.766 251.559 519.047 251.559C520.344 251.559 521.281 250.984 521.859 249.836C522.445 248.68 522.738 246.871 522.738 244.41C522.738 241.949 522.445 240.148 521.859 239.008C521.281 237.859 520.344 237.285 519.047 237.285C517.766 237.285 516.832 237.852 516.246 238.984C515.66 240.109 515.367 241.918 515.367 244.41ZM529.277 253L536.379 237.66H527.039V235.867H538.441V237.426L531.434 253H529.277ZM551.461 239.898C551.461 240.992 551.152 241.887 550.535 242.582C549.926 243.277 549.059 243.742 547.934 243.977V244.07C549.309 244.242 550.328 244.68 550.992 245.383C551.656 246.086 551.988 247.008 551.988 248.148C551.988 249.781 551.422 251.039 550.289 251.922C549.156 252.797 547.547 253.234 545.461 253.234C544.555 253.234 543.723 253.164 542.965 253.023C542.215 252.891 541.484 252.652 540.773 252.309V250.457C541.516 250.824 542.305 251.105 543.141 251.301C543.984 251.488 544.781 251.582 545.531 251.582C548.492 251.582 549.973 250.422 549.973 248.102C549.973 246.023 548.34 244.984 545.074 244.984H543.387V243.309H545.098C546.434 243.309 547.492 243.016 548.273 242.43C549.055 241.836 549.445 241.016 549.445 239.969C549.445 239.133 549.156 238.477 548.578 238C548.008 237.523 547.23 237.285 546.246 237.285C545.496 237.285 544.789 237.387 544.125 237.59C543.461 237.793 542.703 238.168 541.852 238.715L540.867 237.402C541.57 236.848 542.379 236.414 543.293 236.102C544.215 235.781 545.184 235.621 546.199 235.621C547.863 235.621 549.156 236.004 550.078 236.77C551 237.527 551.461 238.57 551.461 239.898ZM566.648 249.062H564.105V253H562.242V249.062H553.91V247.363L562.043 235.773H564.105V247.293H566.648V249.062ZM562.242 247.293V241.598C562.242 240.48 562.281 239.219 562.359 237.812H562.266C561.891 238.562 561.539 239.184 561.211 239.676L555.855 247.293H562.242ZM570.48 253L577.582 237.66H568.242V235.867H579.645V237.426L572.637 253H570.48Z" fill="white"/>
</g>
<g filter="url(#filter9_d)">
<rect x="445" y="29" width="172" height="121" rx="20" fill="#BB1900"/>
<path d="M491.707 89.4648L490.934 93.4492H494.25V94.9609H490.652L489.668 100H488.062L489.047 94.9609H485.496L484.535 100H482.941L483.879 94.9609H480.809V93.4492H484.172L484.969 89.4648H481.723V87.9766H485.227L486.188 82.8672H487.816L486.855 87.9766H490.43L491.414 82.8672H492.984L492 87.9766H495.094V89.4648H491.707ZM485.777 93.4492H489.328L490.102 89.4648H486.551L485.777 93.4492ZM498.082 82.8672H502.922C505.195 82.8672 506.84 83.207 507.855 83.8867C508.871 84.5664 509.379 85.6406 509.379 87.1094C509.379 88.125 509.094 88.9648 508.523 89.6289C507.961 90.2852 507.137 90.7109 506.051 90.9062V91.0234C508.652 91.4688 509.953 92.8359 509.953 95.125C509.953 96.6562 509.434 97.8516 508.395 98.7109C507.363 99.5703 505.918 100 504.059 100H498.082V82.8672ZM500.074 90.2031H503.355C504.762 90.2031 505.773 89.9844 506.391 89.5469C507.008 89.1016 507.316 88.3555 507.316 87.3086C507.316 86.3477 506.973 85.6562 506.285 85.2344C505.598 84.8047 504.504 84.5898 503.004 84.5898H500.074V90.2031ZM500.074 91.8906V98.3008H503.648C505.031 98.3008 506.07 98.0352 506.766 97.5039C507.469 96.9648 507.82 96.125 507.82 94.9844C507.82 93.9219 507.461 93.1406 506.742 92.6406C506.031 92.1406 504.945 91.8906 503.484 91.8906H500.074ZM513.645 82.8672H518.484C520.758 82.8672 522.402 83.207 523.418 83.8867C524.434 84.5664 524.941 85.6406 524.941 87.1094C524.941 88.125 524.656 88.9648 524.086 89.6289C523.523 90.2852 522.699 90.7109 521.613 90.9062V91.0234C524.215 91.4688 525.516 92.8359 525.516 95.125C525.516 96.6562 524.996 97.8516 523.957 98.7109C522.926 99.5703 521.48 100 519.621 100H513.645V82.8672ZM515.637 90.2031H518.918C520.324 90.2031 521.336 89.9844 521.953 89.5469C522.57 89.1016 522.879 88.3555 522.879 87.3086C522.879 86.3477 522.535 85.6562 521.848 85.2344C521.16 84.8047 520.066 84.5898 518.566 84.5898H515.637V90.2031ZM515.637 91.8906V98.3008H519.211C520.594 98.3008 521.633 98.0352 522.328 97.5039C523.031 96.9648 523.383 96.125 523.383 94.9844C523.383 93.9219 523.023 93.1406 522.305 92.6406C521.594 92.1406 520.508 91.8906 519.047 91.8906H515.637ZM535.23 100H533.332V87.7891C533.332 86.7734 533.363 85.8125 533.426 84.9062C533.262 85.0703 533.078 85.2422 532.875 85.4219C532.672 85.6016 531.742 86.3633 530.086 87.707L529.055 86.3711L533.59 82.8672H535.23V100ZM553.02 90.1797C553.02 96.8828 550.426 100.234 545.238 100.234C544.332 100.234 543.613 100.156 543.082 100V98.3242C543.707 98.5273 544.418 98.6289 545.215 98.6289C547.09 98.6289 548.504 98.0508 549.457 96.8945C550.418 95.7305 550.941 93.9492 551.027 91.5508H550.887C550.457 92.1992 549.887 92.6953 549.176 93.0391C548.465 93.375 547.664 93.543 546.773 93.543C545.258 93.543 544.055 93.0898 543.164 92.1836C542.273 91.2773 541.828 90.0117 541.828 88.3867C541.828 86.6055 542.324 85.1992 543.316 84.168C544.316 83.1367 545.629 82.6211 547.254 82.6211C548.418 82.6211 549.434 82.9219 550.301 83.5234C551.176 84.1172 551.848 84.9883 552.316 86.1367C552.785 87.2773 553.02 88.625 553.02 90.1797ZM547.254 84.2852C546.137 84.2852 545.273 84.6445 544.664 85.3633C544.055 86.082 543.75 87.082 543.75 88.3633C543.75 89.4883 544.031 90.375 544.594 91.0234C545.156 91.6641 546.012 91.9844 547.16 91.9844C547.871 91.9844 548.523 91.8398 549.117 91.5508C549.719 91.2617 550.191 90.8672 550.535 90.3672C550.879 89.8672 551.051 89.3438 551.051 88.7969C551.051 87.9766 550.891 87.2188 550.57 86.5234C550.25 85.8281 549.801 85.2812 549.223 84.8828C548.652 84.4844 547.996 84.2852 547.254 84.2852ZM566.848 91.4102C566.848 94.3711 566.379 96.582 565.441 98.043C564.512 99.5039 563.086 100.234 561.164 100.234C559.32 100.234 557.918 99.4883 556.957 97.9961C555.996 96.4961 555.516 94.3008 555.516 91.4102C555.516 88.4258 555.98 86.2109 556.91 84.7656C557.84 83.3203 559.258 82.5977 561.164 82.5977C563.023 82.5977 564.434 83.3516 565.395 84.8594C566.363 86.3672 566.848 88.5508 566.848 91.4102ZM557.484 91.4102C557.484 93.9023 557.777 95.7188 558.363 96.8594C558.949 97.9922 559.883 98.5586 561.164 98.5586C562.461 98.5586 563.398 97.9844 563.977 96.8359C564.562 95.6797 564.855 93.8711 564.855 91.4102C564.855 88.9492 564.562 87.1484 563.977 86.0078C563.398 84.8594 562.461 84.2852 561.164 84.2852C559.883 84.2852 558.949 84.8516 558.363 85.9844C557.777 87.1094 557.484 88.918 557.484 91.4102ZM580.582 91.4102C580.582 94.3711 580.113 96.582 579.176 98.043C578.246 99.5039 576.82 100.234 574.898 100.234C573.055 100.234 571.652 99.4883 570.691 97.9961C569.73 96.4961 569.25 94.3008 569.25 91.4102C569.25 88.4258 569.715 86.2109 570.645 84.7656C571.574 83.3203 572.992 82.5977 574.898 82.5977C576.758 82.5977 578.168 83.3516 579.129 84.8594C580.098 86.3672 580.582 88.5508 580.582 91.4102ZM571.219 91.4102C571.219 93.9023 571.512 95.7188 572.098 96.8594C572.684 97.9922 573.617 98.5586 574.898 98.5586C576.195 98.5586 577.133 97.9844 577.711 96.8359C578.297 95.6797 578.59 93.8711 578.59 91.4102C578.59 88.9492 578.297 87.1484 577.711 86.0078C577.133 84.8594 576.195 84.2852 574.898 84.2852C573.617 84.2852 572.684 84.8516 572.098 85.9844C571.512 87.1094 571.219 88.918 571.219 91.4102Z" fill="white"/>
</g>
<g filter="url(#filter10_d)">
<rect x="445" y="337" width="172" height="121" rx="20" fill="#A78D48"/>
<path d="M491.422 396.465L490.648 400.449H493.965V401.961H490.367L489.383 407H487.777L488.762 401.961H485.211L484.25 407H482.656L483.594 401.961H480.523V400.449H483.887L484.684 396.465H481.438V394.977H484.941L485.902 389.867H487.531L486.57 394.977H490.145L491.129 389.867H492.699L491.715 394.977H494.809V396.465H491.422ZM485.492 400.449H489.043L489.816 396.465H486.266L485.492 400.449ZM508.566 407L506.434 401.551H499.566L497.457 407H495.441L502.215 389.797H503.891L510.629 407H508.566ZM505.812 399.758L503.82 394.449C503.562 393.777 503.297 392.953 503.023 391.977C502.852 392.727 502.605 393.551 502.285 394.449L500.27 399.758H505.812ZM513.969 407L521.07 391.66H511.73V389.867H523.133V391.426L516.125 407H513.969ZM531.207 389.621C532.77 389.621 534.008 389.984 534.922 390.711C535.836 391.438 536.293 392.441 536.293 393.723C536.293 394.566 536.031 395.336 535.508 396.031C534.984 396.727 534.148 397.359 533 397.93C534.391 398.594 535.379 399.293 535.965 400.027C536.551 400.754 536.844 401.598 536.844 402.559C536.844 403.98 536.348 405.117 535.355 405.969C534.363 406.812 533.004 407.234 531.277 407.234C529.449 407.234 528.043 406.836 527.059 406.039C526.074 405.234 525.582 404.098 525.582 402.629C525.582 400.668 526.777 399.141 529.168 398.047C528.09 397.438 527.316 396.781 526.848 396.078C526.379 395.367 526.145 394.574 526.145 393.699C526.145 392.457 526.602 391.469 527.516 390.734C528.438 389.992 529.668 389.621 531.207 389.621ZM527.504 402.676C527.504 403.613 527.828 404.344 528.477 404.867C529.133 405.391 530.051 405.652 531.23 405.652C532.395 405.652 533.301 405.379 533.949 404.832C534.598 404.285 534.922 403.535 534.922 402.582C534.922 401.824 534.617 401.152 534.008 400.566C533.398 399.973 532.336 399.398 530.82 398.844C529.656 399.344 528.812 399.898 528.289 400.508C527.766 401.109 527.504 401.832 527.504 402.676ZM531.184 391.203C530.207 391.203 529.441 391.438 528.887 391.906C528.332 392.375 528.055 393 528.055 393.781C528.055 394.5 528.285 395.117 528.746 395.633C529.207 396.148 530.059 396.664 531.301 397.18C532.418 396.711 533.207 396.207 533.668 395.668C534.137 395.129 534.371 394.5 534.371 393.781C534.371 392.992 534.086 392.367 533.516 391.906C532.953 391.438 532.176 391.203 531.184 391.203ZM554.129 398.27C554.129 401.098 553.359 403.262 551.82 404.762C550.289 406.254 548.082 407 545.199 407H540.453V389.867H545.703C548.367 389.867 550.438 390.605 551.914 392.082C553.391 393.559 554.129 395.621 554.129 398.27ZM552.02 398.34C552.02 396.105 551.457 394.422 550.332 393.289C549.215 392.156 547.551 391.59 545.34 391.59H542.445V405.277H544.871C547.246 405.277 549.031 404.695 550.227 403.531C551.422 402.359 552.02 400.629 552.02 398.34ZM568.848 403.062H566.305V407H564.441V403.062H556.109V401.363L564.242 389.773H566.305V401.293H568.848V403.062ZM564.441 401.293V395.598C564.441 394.48 564.48 393.219 564.559 391.812H564.465C564.09 392.562 563.738 393.184 563.41 393.676L558.055 401.293H564.441ZM576.184 389.621C577.746 389.621 578.984 389.984 579.898 390.711C580.812 391.438 581.27 392.441 581.27 393.723C581.27 394.566 581.008 395.336 580.484 396.031C579.961 396.727 579.125 397.359 577.977 397.93C579.367 398.594 580.355 399.293 580.941 400.027C581.527 400.754 581.82 401.598 581.82 402.559C581.82 403.98 581.324 405.117 580.332 405.969C579.34 406.812 577.98 407.234 576.254 407.234C574.426 407.234 573.02 406.836 572.035 406.039C571.051 405.234 570.559 404.098 570.559 402.629C570.559 400.668 571.754 399.141 574.145 398.047C573.066 397.438 572.293 396.781 571.824 396.078C571.355 395.367 571.121 394.574 571.121 393.699C571.121 392.457 571.578 391.469 572.492 390.734C573.414 389.992 574.645 389.621 576.184 389.621ZM572.48 402.676C572.48 403.613 572.805 404.344 573.453 404.867C574.109 405.391 575.027 405.652 576.207 405.652C577.371 405.652 578.277 405.379 578.926 404.832C579.574 404.285 579.898 403.535 579.898 402.582C579.898 401.824 579.594 401.152 578.984 400.566C578.375 399.973 577.312 399.398 575.797 398.844C574.633 399.344 573.789 399.898 573.266 400.508C572.742 401.109 572.48 401.832 572.48 402.676ZM576.16 391.203C575.184 391.203 574.418 391.438 573.863 391.906C573.309 392.375 573.031 393 573.031 393.781C573.031 394.5 573.262 395.117 573.723 395.633C574.184 396.148 575.035 396.664 576.277 397.18C577.395 396.711 578.184 396.207 578.645 395.668C579.113 395.129 579.348 394.5 579.348 393.781C579.348 392.992 579.062 392.367 578.492 391.906C577.93 391.438 577.152 391.203 576.16 391.203Z" fill="white"/>
</g>
<g filter="url(#filter11_d)">
<rect x="445" y="491" width="172" height="121" rx="20" fill="#8EAA37"/>
<path d="M492.27 550.465L491.496 554.449H494.812V555.961H491.215L490.23 561H488.625L489.609 555.961H486.059L485.098 561H483.504L484.441 555.961H481.371V554.449H484.734L485.531 550.465H482.285V548.977H485.789L486.75 543.867H488.379L487.418 548.977H490.992L491.977 543.867H493.547L492.562 548.977H495.656V550.465H492.27ZM486.34 554.449H489.891L490.664 550.465H487.113L486.34 554.449ZM503.133 543.621C504.695 543.621 505.934 543.984 506.848 544.711C507.762 545.438 508.219 546.441 508.219 547.723C508.219 548.566 507.957 549.336 507.434 550.031C506.91 550.727 506.074 551.359 504.926 551.93C506.316 552.594 507.305 553.293 507.891 554.027C508.477 554.754 508.77 555.598 508.77 556.559C508.77 557.98 508.273 559.117 507.281 559.969C506.289 560.812 504.93 561.234 503.203 561.234C501.375 561.234 499.969 560.836 498.984 560.039C498 559.234 497.508 558.098 497.508 556.629C497.508 554.668 498.703 553.141 501.094 552.047C500.016 551.438 499.242 550.781 498.773 550.078C498.305 549.367 498.07 548.574 498.07 547.699C498.07 546.457 498.527 545.469 499.441 544.734C500.363 543.992 501.594 543.621 503.133 543.621ZM499.43 556.676C499.43 557.613 499.754 558.344 500.402 558.867C501.059 559.391 501.977 559.652 503.156 559.652C504.32 559.652 505.227 559.379 505.875 558.832C506.523 558.285 506.848 557.535 506.848 556.582C506.848 555.824 506.543 555.152 505.934 554.566C505.324 553.973 504.262 553.398 502.746 552.844C501.582 553.344 500.738 553.898 500.215 554.508C499.691 555.109 499.43 555.832 499.43 556.676ZM503.109 545.203C502.133 545.203 501.367 545.438 500.812 545.906C500.258 546.375 499.98 547 499.98 547.781C499.98 548.5 500.211 549.117 500.672 549.633C501.133 550.148 501.984 550.664 503.227 551.18C504.344 550.711 505.133 550.207 505.594 549.668C506.062 549.129 506.297 548.5 506.297 547.781C506.297 546.992 506.012 546.367 505.441 545.906C504.879 545.438 504.102 545.203 503.109 545.203ZM521.93 561H512.379V543.867H521.93V545.637H514.371V551.156H521.473V552.914H514.371V559.219H521.93V561ZM536.508 561L534.375 555.551H527.508L525.398 561H523.383L530.156 543.797H531.832L538.57 561H536.508ZM533.754 553.758L531.762 548.449C531.504 547.777 531.238 546.953 530.965 545.977C530.793 546.727 530.547 547.551 530.227 548.449L528.211 553.758H533.754ZM551.695 561L549.562 555.551H542.695L540.586 561H538.57L545.344 543.797H547.02L553.758 561H551.695ZM548.941 553.758L546.949 548.449C546.691 547.777 546.426 546.953 546.152 545.977C545.98 546.727 545.734 547.551 545.414 548.449L543.398 553.758H548.941ZM565.547 547.898C565.547 548.992 565.238 549.887 564.621 550.582C564.012 551.277 563.145 551.742 562.02 551.977V552.07C563.395 552.242 564.414 552.68 565.078 553.383C565.742 554.086 566.074 555.008 566.074 556.148C566.074 557.781 565.508 559.039 564.375 559.922C563.242 560.797 561.633 561.234 559.547 561.234C558.641 561.234 557.809 561.164 557.051 561.023C556.301 560.891 555.57 560.652 554.859 560.309V558.457C555.602 558.824 556.391 559.105 557.227 559.301C558.07 559.488 558.867 559.582 559.617 559.582C562.578 559.582 564.059 558.422 564.059 556.102C564.059 554.023 562.426 552.984 559.16 552.984H557.473V551.309H559.184C560.52 551.309 561.578 551.016 562.359 550.43C563.141 549.836 563.531 549.016 563.531 547.969C563.531 547.133 563.242 546.477 562.664 546C562.094 545.523 561.316 545.285 560.332 545.285C559.582 545.285 558.875 545.387 558.211 545.59C557.547 545.793 556.789 546.168 555.938 546.715L554.953 545.402C555.656 544.848 556.465 544.414 557.379 544.102C558.301 543.781 559.27 543.621 560.285 543.621C561.949 543.621 563.242 544.004 564.164 544.77C565.086 545.527 565.547 546.57 565.547 547.898ZM570.832 561L577.934 545.66H568.594V543.867H579.996V545.426L572.988 561H570.832Z" fill="white"/>
</g>
<defs>
<filter id="filter0_d" x="30" y="491" width="180" height="129" filterUnits="userSpaceOnUse" color-interpolation-filters="sRGB">
<feFlood flood-opacity="0" result="BackgroundImageFix"/>
<feColorMatrix in="SourceAlpha" type="matrix" values="0 0 0 0 0 0 0 0 0 0 0 0 0 0 0 0 0 0 127 0"/>
<feOffset dy="4"/>
<feGaussianBlur stdDeviation="2"/>
<feColorMatrix type="matrix" values="0 0 0 0 0 0 0 0 0 0 0 0 0 0 0 0 0 0 0.25 0"/>
<feBlend mode="normal" in2="BackgroundImageFix" result="effect1_dropShadow"/>
<feBlend mode="normal" in="SourceGraphic" in2="effect1_dropShadow" result="shape"/>
</filter>
<filter id="filter1_d" x="30" y="337" width="180" height="129" filterUnits="userSpaceOnUse" color-interpolation-filters="sRGB">
<feFlood flood-opacity="0" result="BackgroundImageFix"/>
<feColorMatrix in="SourceAlpha" type="matrix" values="0 0 0 0 0 0 0 0 0 0 0 0 0 0 0 0 0 0 127 0"/>
<feOffset dy="4"/>
<feGaussianBlur stdDeviation="2"/>
<feColorMatrix type="matrix" values="0 0 0 0 0 0 0 0 0 0 0 0 0 0 0 0 0 0 0.25 0"/>
<feBlend mode="normal" in2="BackgroundImageFix" result="effect1_dropShadow"/>
<feBlend mode="normal" in="SourceGraphic" in2="effect1_dropShadow" result="shape"/>
</filter>
<filter id="filter2_d" x="30" y="183" width="180" height="129" filterUnits="userSpaceOnUse" color-interpolation-filters="sRGB">
<feFlood flood-opacity="0" result="BackgroundImageFix"/>
<feColorMatrix in="SourceAlpha" type="matrix" values="0 0 0 0 0 0 0 0 0 0 0 0 0 0 0 0 0 0 127 0"/>
<feOffset dy="4"/>
<feGaussianBlur stdDeviation="2"/>
<feColorMatrix type="matrix" values="0 0 0 0 0 0 0 0 0 0 0 0 0 0 0 0 0 0 0.25 0"/>
<feBlend mode="normal" in2="BackgroundImageFix" result="effect1_dropShadow"/>
<feBlend mode="normal" in="SourceGraphic" in2="effect1_dropShadow" result="shape"/>
</filter>
<filter id="filter3_d" x="235" y="29" width="180" height="129" filterUnits="userSpaceOnUse" color-interpolation-filters="sRGB">
<feFlood flood-opacity="0" result="BackgroundImageFix"/>
<feColorMatrix in="SourceAlpha" type="matrix" values="0 0 0 0 0 0 0 0 0 0 0 0 0 0 0 0 0 0 127 0"/>
<feOffset dy="4"/>
<feGaussianBlur stdDeviation="2"/>
<feColorMatrix type="matrix" values="0 0 0 0 0 0 0 0 0 0 0 0 0 0 0 0 0 0 0.25 0"/>
<feBlend mode="normal" in2="BackgroundImageFix" result="effect1_dropShadow"/>
<feBlend mode="normal" in="SourceGraphic" in2="effect1_dropShadow" result="shape"/>
</filter>
<filter id="filter4_d" x="235" y="183" width="180" height="129" filterUnits="userSpaceOnUse" color-interpolation-filters="sRGB">
<feFlood flood-opacity="0" result="BackgroundImageFix"/>
<feColorMatrix in="SourceAlpha" type="matrix" values="0 0 0 0 0 0 0 0 0 0 0 0 0 0 0 0 0 0 127 0"/>
<feOffset dy="4"/>
<feGaussianBlur stdDeviation="2"/>
<feColorMatrix type="matrix" values="0 0 0 0 0 0 0 0 0 0 0 0 0 0 0 0 0 0 0.25 0"/>
<feBlend mode="normal" in2="BackgroundImageFix" result="effect1_dropShadow"/>
<feBlend mode="normal" in="SourceGraphic" in2="effect1_dropShadow" result="shape"/>
</filter>
<filter id="filter5_d" x="235" y="337" width="180" height="129" filterUnits="userSpaceOnUse" color-interpolation-filters="sRGB">
<feFlood flood-opacity="0" result="BackgroundImageFix"/>
<feColorMatrix in="SourceAlpha" type="matrix" values="0 0 0 0 0 0 0 0 0 0 0 0 0 0 0 0 0 0 127 0"/>
<feOffset dy="4"/>
<feGaussianBlur stdDeviation="2"/>
<feColorMatrix type="matrix" values="0 0 0 0 0 0 0 0 0 0 0 0 0 0 0 0 0 0 0.25 0"/>
<feBlend mode="normal" in2="BackgroundImageFix" result="effect1_dropShadow"/>
<feBlend mode="normal" in="SourceGraphic" in2="effect1_dropShadow" result="shape"/>
</filter>
<filter id="filter6_d" x="30" y="29" width="180" height="129" filterUnits="userSpaceOnUse" color-interpolation-filters="sRGB">
<feFlood flood-opacity="0" result="BackgroundImageFix"/>
<feColorMatrix in="SourceAlpha" type="matrix" values="0 0 0 0 0 0 0 0 0 0 0 0 0 0 0 0 0 0 127 0"/>
<feOffset dy="4"/>
<feGaussianBlur stdDeviation="2"/>
<feColorMatrix type="matrix" values="0 0 0 0 0 0 0 0 0 0 0 0 0 0 0 0 0 0 0.25 0"/>
<feBlend mode="normal" in2="BackgroundImageFix" result="effect1_dropShadow"/>
<feBlend mode="normal" in="SourceGraphic" in2="effect1_dropShadow" result="shape"/>
</filter>
<filter id="filter7_d" x="235" y="491" width="180" height="129" filterUnits="userSpaceOnUse" color-interpolation-filters="sRGB">
<feFlood flood-opacity="0" result="BackgroundImageFix"/>
<feColorMatrix in="SourceAlpha" type="matrix" values="0 0 0 0 0 0 0 0 0 0 0 0 0 0 0 0 0 0 127 0"/>
<feOffset dy="4"/>
<feGaussianBlur stdDeviation="2"/>
<feColorMatrix type="matrix" values="0 0 0 0 0 0 0 0 0 0 0 0 0 0 0 0 0 0 0.25 0"/>
<feBlend mode="normal" in2="BackgroundImageFix" result="effect1_dropShadow"/>
<feBlend mode="normal" in="SourceGraphic" in2="effect1_dropShadow" result="shape"/>
</filter>
<filter id="filter8_d" x="441" y="183" width="180" height="129" filterUnits="userSpaceOnUse" color-interpolation-filters="sRGB">
<feFlood flood-opacity="0" result="BackgroundImageFix"/>
<feColorMatrix in="SourceAlpha" type="matrix" values="0 0 0 0 0 0 0 0 0 0 0 0 0 0 0 0 0 0 127 0"/>
<feOffset dy="4"/>
<feGaussianBlur stdDeviation="2"/>
<feColorMatrix type="matrix" values="0 0 0 0 0 0 0 0 0 0 0 0 0 0 0 0 0 0 0.25 0"/>
<feBlend mode="normal" in2="BackgroundImageFix" result="effect1_dropShadow"/>
<feBlend mode="normal" in="SourceGraphic" in2="effect1_dropShadow" result="shape"/>
</filter>
<filter id="filter9_d" x="441" y="29" width="180" height="129" filterUnits="userSpaceOnUse" color-interpolation-filters="sRGB">
<feFlood flood-opacity="0" result="BackgroundImageFix"/>
<feColorMatrix in="SourceAlpha" type="matrix" values="0 0 0 0 0 0 0 0 0 0 0 0 0 0 0 0 0 0 127 0"/>
<feOffset dy="4"/>
<feGaussianBlur stdDeviation="2"/>
<feColorMatrix type="matrix" values="0 0 0 0 0 0 0 0 0 0 0 0 0 0 0 0 0 0 0.25 0"/>
<feBlend mode="normal" in2="BackgroundImageFix" result="effect1_dropShadow"/>
<feBlend mode="normal" in="SourceGraphic" in2="effect1_dropShadow" result="shape"/>
</filter>
<filter id="filter10_d" x="441" y="337" width="180" height="129" filterUnits="userSpaceOnUse" color-interpolation-filters="sRGB">
<feFlood flood-opacity="0" result="BackgroundImageFix"/>
<feColorMatrix in="SourceAlpha" type="matrix" values="0 0 0 0 0 0 0 0 0 0 0 0 0 0 0 0 0 0 127 0"/>
<feOffset dy="4"/>
<feGaussianBlur stdDeviation="2"/>
<feColorMatrix type="matrix" values="0 0 0 0 0 0 0 0 0 0 0 0 0 0 0 0 0 0 0.25 0"/>
<feBlend mode="normal" in2="BackgroundImageFix" result="effect1_dropShadow"/>
<feBlend mode="normal" in="SourceGraphic" in2="effect1_dropShadow" result="shape"/>
</filter>
<filter id="filter11_d" x="441" y="491" width="180" height="129" filterUnits="userSpaceOnUse" color-interpolation-filters="sRGB">
<feFlood flood-opacity="0" result="BackgroundImageFix"/>
<feColorMatrix in="SourceAlpha" type="matrix" values="0 0 0 0 0 0 0 0 0 0 0 0 0 0 0 0 0 0 127 0"/>
<feOffset dy="4"/>
<feGaussianBlur stdDeviation="2"/>
<feColorMatrix type="matrix" values="0 0 0 0 0 0 0 0 0 0 0 0 0 0 0 0 0 0 0.25 0"/>
<feBlend mode="normal" in2="BackgroundImageFix" result="effect1_dropShadow"/>
<feBlend mode="normal" in="SourceGraphic" in2="effect1_dropShadow" result="shape"/>
</filter>
</defs>
</svg>
