<svg width="653" height="674" viewBox="0 0 653 674" fill="none" xmlns="http://www.w3.org/2000/svg">
<rect width="653" height="674" fill="#F5F2F2"/>
<rect x="36" y="47" width="172" height="121" fill="#BB1900"/>
<rect x="447" y="47" width="172" height="121" fill="#FAC439"/>
<rect x="36" y="204" width="172" height="121" fill="#8EAA37"/>
<rect x="245" y="205" width="172" height="121" fill="#5F5D5B"/>
<rect x="447.5" y="204.5" width="171" height="120" stroke="black"/>
<path d="M82.707 107.465L81.9336 111.449H85.25V112.961H81.6523L80.668 118H79.0625L80.0469 112.961H76.4961L75.5352 118H73.9414L74.8789 112.961H71.8086V111.449H75.1719L75.9688 107.465H72.7227V105.977H76.2266L77.1875 100.867H78.8164L77.8555 105.977H81.4297L82.4141 100.867H83.9844L83 105.977H86.0938V107.465H82.707ZM76.7773 111.449H80.3281L81.1016 107.465H77.5508L76.7773 111.449ZM89.082 100.867H93.9219C96.1953 100.867 97.8398 101.207 98.8555 101.887C99.8711 102.566 100.379 103.641 100.379 105.109C100.379 106.125 100.094 106.965 99.5234 107.629C98.9609 108.285 98.1367 108.711 97.0508 108.906V109.023C99.6523 109.469 100.953 110.836 100.953 113.125C100.953 114.656 100.434 115.852 99.3945 116.711C98.3633 117.57 96.918 118 95.0586 118H89.082V100.867ZM91.0742 108.203H94.3555C95.7617 108.203 96.7734 107.984 97.3906 107.547C98.0078 107.102 98.3164 106.355 98.3164 105.309C98.3164 104.348 97.9727 103.656 97.2852 103.234C96.5977 102.805 95.5039 102.59 94.0039 102.59H91.0742V108.203ZM91.0742 109.891V116.301H94.6484C96.0312 116.301 97.0703 116.035 97.7656 115.504C98.4688 114.965 98.8203 114.125 98.8203 112.984C98.8203 111.922 98.4609 111.141 97.7422 110.641C97.0312 110.141 95.9453 109.891 94.4844 109.891H91.0742ZM104.645 100.867H109.484C111.758 100.867 113.402 101.207 114.418 101.887C115.434 102.566 115.941 103.641 115.941 105.109C115.941 106.125 115.656 106.965 115.086 107.629C114.523 108.285 113.699 108.711 112.613 108.906V109.023C115.215 109.469 116.516 110.836 116.516 113.125C116.516 114.656 115.996 115.852 114.957 116.711C113.926 117.57 112.48 118 110.621 118H104.645V100.867ZM106.637 108.203H109.918C111.324 108.203 112.336 107.984 112.953 107.547C113.57 107.102 113.879 106.355 113.879 105.309C113.879 104.348 113.535 103.656 112.848 103.234C112.16 102.805 111.066 102.59 109.566 102.59H106.637V108.203ZM106.637 109.891V116.301H110.211C111.594 116.301 112.633 116.035 113.328 115.504C114.031 114.965 114.383 114.125 114.383 112.984C114.383 111.922 114.023 111.141 113.305 110.641C112.594 110.141 111.508 109.891 110.047 109.891H106.637ZM126.23 118H124.332V105.789C124.332 104.773 124.363 103.812 124.426 102.906C124.262 103.07 124.078 103.242 123.875 103.422C123.672 103.602 122.742 104.363 121.086 105.707L120.055 104.371L124.59 100.867H126.23V118ZM144.02 108.18C144.02 114.883 141.426 118.234 136.238 118.234C135.332 118.234 134.613 118.156 134.082 118V116.324C134.707 116.527 135.418 116.629 136.215 116.629C138.09 116.629 139.504 116.051 140.457 114.895C141.418 113.73 141.941 111.949 142.027 109.551H141.887C141.457 110.199 140.887 110.695 140.176 111.039C139.465 111.375 138.664 111.543 137.773 111.543C136.258 111.543 135.055 111.09 134.164 110.184C133.273 109.277 132.828 108.012 132.828 106.387C132.828 104.605 133.324 103.199 134.316 102.168C135.316 101.137 136.629 100.621 138.254 100.621C139.418 100.621 140.434 100.922 141.301 101.523C142.176 102.117 142.848 102.988 143.316 104.137C143.785 105.277 144.02 106.625 144.02 108.18ZM138.254 102.285C137.137 102.285 136.273 102.645 135.664 103.363C135.055 104.082 134.75 105.082 134.75 106.363C134.75 107.488 135.031 108.375 135.594 109.023C136.156 109.664 137.012 109.984 138.16 109.984C138.871 109.984 139.523 109.84 140.117 109.551C140.719 109.262 141.191 108.867 141.535 108.367C141.879 107.867 142.051 107.344 142.051 106.797C142.051 105.977 141.891 105.219 141.57 104.523C141.25 103.828 140.801 103.281 140.223 102.883C139.652 102.484 138.996 102.285 138.254 102.285ZM157.848 109.41C157.848 112.371 157.379 114.582 156.441 116.043C155.512 117.504 154.086 118.234 152.164 118.234C150.32 118.234 148.918 117.488 147.957 115.996C146.996 114.496 146.516 112.301 146.516 109.41C146.516 106.426 146.98 104.211 147.91 102.766C148.84 101.32 150.258 100.598 152.164 100.598C154.023 100.598 155.434 101.352 156.395 102.859C157.363 104.367 157.848 106.551 157.848 109.41ZM148.484 109.41C148.484 111.902 148.777 113.719 149.363 114.859C149.949 115.992 150.883 116.559 152.164 116.559C153.461 116.559 154.398 115.984 154.977 114.836C155.562 113.68 155.855 111.871 155.855 109.41C155.855 106.949 155.562 105.148 154.977 104.008C154.398 102.859 153.461 102.285 152.164 102.285C150.883 102.285 149.949 102.852 149.363 103.984C148.777 105.109 148.484 106.918 148.484 109.41ZM171.582 109.41C171.582 112.371 171.113 114.582 170.176 116.043C169.246 117.504 167.82 118.234 165.898 118.234C164.055 118.234 162.652 117.488 161.691 115.996C160.73 114.496 160.25 112.301 160.25 109.41C160.25 106.426 160.715 104.211 161.645 102.766C162.574 101.32 163.992 100.598 165.898 100.598C167.758 100.598 169.168 101.352 170.129 102.859C171.098 104.367 171.582 106.551 171.582 109.41ZM162.219 109.41C162.219 111.902 162.512 113.719 163.098 114.859C163.684 115.992 164.617 116.559 165.898 116.559C167.195 116.559 168.133 115.984 168.711 114.836C169.297 113.68 169.59 111.871 169.59 109.41C169.59 106.949 169.297 105.148 168.711 104.008C168.133 102.859 167.195 102.285 165.898 102.285C164.617 102.285 163.684 102.852 163.098 103.984C162.512 105.109 162.219 106.918 162.219 109.41Z" fill="white"/>
<path d="M494.773 106.465L494 110.449H497.316V111.961H493.719L492.734 117H491.129L492.113 111.961H488.562L487.602 117H486.008L486.945 111.961H483.875V110.449H487.238L488.035 106.465H484.789V104.977H488.293L489.254 99.8672H490.883L489.922 104.977H493.496L494.48 99.8672H496.051L495.066 104.977H498.16V106.465H494.773ZM488.844 110.449H492.395L493.168 106.465H489.617L488.844 110.449ZM503.141 117H501.148V99.8672H510.699V101.637H503.141V107.906H510.242V109.676H503.141V117ZM524.316 117L522.184 111.551H515.316L513.207 117H511.191L517.965 99.7969H519.641L526.379 117H524.316ZM521.562 109.758L519.57 104.449C519.312 103.777 519.047 102.953 518.773 101.977C518.602 102.727 518.355 103.551 518.035 104.449L516.02 109.758H521.562ZM536.07 101.402C534.188 101.402 532.699 102.031 531.605 103.289C530.52 104.539 529.977 106.254 529.977 108.434C529.977 110.676 530.5 112.41 531.547 113.637C532.602 114.855 534.102 115.465 536.047 115.465C537.242 115.465 538.605 115.25 540.137 114.82V116.566C538.949 117.012 537.484 117.234 535.742 117.234C533.219 117.234 531.27 116.469 529.895 114.938C528.527 113.406 527.844 111.23 527.844 108.41C527.844 106.645 528.172 105.098 528.828 103.77C529.492 102.441 530.445 101.418 531.688 100.699C532.938 99.9805 534.406 99.6211 536.094 99.6211C537.891 99.6211 539.461 99.9492 540.805 100.605L539.961 102.316C538.664 101.707 537.367 101.402 536.07 101.402ZM554.762 113.062H552.219V117H550.355V113.062H542.023V111.363L550.156 99.7734H552.219V111.293H554.762V113.062ZM550.355 111.293V105.598C550.355 104.48 550.395 103.219 550.473 101.812H550.379C550.004 102.562 549.652 103.184 549.324 103.676L543.969 111.293H550.355ZM567.043 103.898C567.043 104.992 566.734 105.887 566.117 106.582C565.508 107.277 564.641 107.742 563.516 107.977V108.07C564.891 108.242 565.91 108.68 566.574 109.383C567.238 110.086 567.57 111.008 567.57 112.148C567.57 113.781 567.004 115.039 565.871 115.922C564.738 116.797 563.129 117.234 561.043 117.234C560.137 117.234 559.305 117.164 558.547 117.023C557.797 116.891 557.066 116.652 556.355 116.309V114.457C557.098 114.824 557.887 115.105 558.723 115.301C559.566 115.488 560.363 115.582 561.113 115.582C564.074 115.582 565.555 114.422 565.555 112.102C565.555 110.023 563.922 108.984 560.656 108.984H558.969V107.309H560.68C562.016 107.309 563.074 107.016 563.855 106.43C564.637 105.836 565.027 105.016 565.027 103.969C565.027 103.133 564.738 102.477 564.16 102C563.59 101.523 562.812 101.285 561.828 101.285C561.078 101.285 560.371 101.387 559.707 101.59C559.043 101.793 558.285 102.168 557.434 102.715L556.449 101.402C557.152 100.848 557.961 100.414 558.875 100.102C559.797 99.7812 560.766 99.6211 561.781 99.6211C563.445 99.6211 564.738 100.004 565.66 100.77C566.582 101.527 567.043 102.57 567.043 103.898ZM581.422 107.18C581.422 113.883 578.828 117.234 573.641 117.234C572.734 117.234 572.016 117.156 571.484 117V115.324C572.109 115.527 572.82 115.629 573.617 115.629C575.492 115.629 576.906 115.051 577.859 113.895C578.82 112.73 579.344 110.949 579.43 108.551H579.289C578.859 109.199 578.289 109.695 577.578 110.039C576.867 110.375 576.066 110.543 575.176 110.543C573.66 110.543 572.457 110.09 571.566 109.184C570.676 108.277 570.23 107.012 570.23 105.387C570.23 103.605 570.727 102.199 571.719 101.168C572.719 100.137 574.031 99.6211 575.656 99.6211C576.82 99.6211 577.836 99.9219 578.703 100.523C579.578 101.117 580.25 101.988 580.719 103.137C581.188 104.277 581.422 105.625 581.422 107.18ZM575.656 101.285C574.539 101.285 573.676 101.645 573.066 102.363C572.457 103.082 572.152 104.082 572.152 105.363C572.152 106.488 572.434 107.375 572.996 108.023C573.559 108.664 574.414 108.984 575.562 108.984C576.273 108.984 576.926 108.84 577.52 108.551C578.121 108.262 578.594 107.867 578.938 107.367C579.281 106.867 579.453 106.344 579.453 105.797C579.453 104.977 579.293 104.219 578.973 103.523C578.652 102.828 578.203 102.281 577.625 101.883C577.055 101.484 576.398 101.285 575.656 101.285Z" fill="white"/>
<path d="M83.2695 263.465L82.4961 267.449H85.8125V268.961H82.2148L81.2305 274H79.625L80.6094 268.961H77.0586L76.0977 274H74.5039L75.4414 268.961H72.3711V267.449H75.7344L76.5312 263.465H73.2852V261.977H76.7891L77.75 256.867H79.3789L78.418 261.977H81.9922L82.9766 256.867H84.5469L83.5625 261.977H86.6562V263.465H83.2695ZM77.3398 267.449H80.8906L81.6641 263.465H78.1133L77.3398 267.449ZM94.1328 256.621C95.6953 256.621 96.9336 256.984 97.8477 257.711C98.7617 258.438 99.2188 259.441 99.2188 260.723C99.2188 261.566 98.957 262.336 98.4336 263.031C97.9102 263.727 97.0742 264.359 95.9258 264.93C97.3164 265.594 98.3047 266.293 98.8906 267.027C99.4766 267.754 99.7695 268.598 99.7695 269.559C99.7695 270.98 99.2734 272.117 98.2812 272.969C97.2891 273.812 95.9297 274.234 94.2031 274.234C92.375 274.234 90.9688 273.836 89.9844 273.039C89 272.234 88.5078 271.098 88.5078 269.629C88.5078 267.668 89.7031 266.141 92.0938 265.047C91.0156 264.438 90.2422 263.781 89.7734 263.078C89.3047 262.367 89.0703 261.574 89.0703 260.699C89.0703 259.457 89.5273 258.469 90.4414 257.734C91.3633 256.992 92.5938 256.621 94.1328 256.621ZM90.4297 269.676C90.4297 270.613 90.7539 271.344 91.4023 271.867C92.0586 272.391 92.9766 272.652 94.1562 272.652C95.3203 272.652 96.2266 272.379 96.875 271.832C97.5234 271.285 97.8477 270.535 97.8477 269.582C97.8477 268.824 97.543 268.152 96.9336 267.566C96.3242 266.973 95.2617 266.398 93.7461 265.844C92.582 266.344 91.7383 266.898 91.2148 267.508C90.6914 268.109 90.4297 268.832 90.4297 269.676ZM94.1094 258.203C93.1328 258.203 92.3672 258.438 91.8125 258.906C91.2578 259.375 90.9805 260 90.9805 260.781C90.9805 261.5 91.2109 262.117 91.6719 262.633C92.1328 263.148 92.9844 263.664 94.2266 264.18C95.3438 263.711 96.1328 263.207 96.5938 262.668C97.0625 262.129 97.2969 261.5 97.2969 260.781C97.2969 259.992 97.0117 259.367 96.4414 258.906C95.8789 258.438 95.1016 258.203 94.1094 258.203ZM112.93 274H103.379V256.867H112.93V258.637H105.371V264.156H112.473V265.914H105.371V272.219H112.93V274ZM127.508 274L125.375 268.551H118.508L116.398 274H114.383L121.156 256.797H122.832L129.57 274H127.508ZM124.754 266.758L122.762 261.449C122.504 260.777 122.238 259.953 121.965 258.977C121.793 259.727 121.547 260.551 121.227 261.449L119.211 266.758H124.754ZM142.695 274L140.562 268.551H133.695L131.586 274H129.57L136.344 256.797H138.02L144.758 274H142.695ZM139.941 266.758L137.949 261.449C137.691 260.777 137.426 259.953 137.152 258.977C136.98 259.727 136.734 260.551 136.414 261.449L134.398 266.758H139.941ZM156.547 260.898C156.547 261.992 156.238 262.887 155.621 263.582C155.012 264.277 154.145 264.742 153.02 264.977V265.07C154.395 265.242 155.414 265.68 156.078 266.383C156.742 267.086 157.074 268.008 157.074 269.148C157.074 270.781 156.508 272.039 155.375 272.922C154.242 273.797 152.633 274.234 150.547 274.234C149.641 274.234 148.809 274.164 148.051 274.023C147.301 273.891 146.57 273.652 145.859 273.309V271.457C146.602 271.824 147.391 272.105 148.227 272.301C149.07 272.488 149.867 272.582 150.617 272.582C153.578 272.582 155.059 271.422 155.059 269.102C155.059 267.023 153.426 265.984 150.16 265.984H148.473V264.309H150.184C151.52 264.309 152.578 264.016 153.359 263.43C154.141 262.836 154.531 262.016 154.531 260.969C154.531 260.133 154.242 259.477 153.664 259C153.094 258.523 152.316 258.285 151.332 258.285C150.582 258.285 149.875 258.387 149.211 258.59C148.547 258.793 147.789 259.168 146.938 259.715L145.953 258.402C146.656 257.848 147.465 257.414 148.379 257.102C149.301 256.781 150.27 256.621 151.285 256.621C152.949 256.621 154.242 257.004 155.164 257.77C156.086 258.527 156.547 259.57 156.547 260.898ZM161.832 274L168.934 258.66H159.594V256.867H170.996V258.426L163.988 274H161.832Z" fill="white"/>
<path d="M291.402 264.465L290.629 268.449H293.945V269.961H290.348L289.363 275H287.758L288.742 269.961H285.191L284.23 275H282.637L283.574 269.961H280.504V268.449H283.867L284.664 264.465H281.418V262.977H284.922L285.883 257.867H287.512L286.551 262.977H290.125L291.109 257.867H292.68L291.695 262.977H294.789V264.465H291.402ZM285.473 268.449H289.023L289.797 264.465H286.246L285.473 268.449ZM301.949 264.535C303.754 264.535 305.172 264.984 306.203 265.883C307.242 266.773 307.762 267.996 307.762 269.551C307.762 271.324 307.195 272.715 306.062 273.723C304.938 274.73 303.383 275.234 301.398 275.234C299.469 275.234 297.996 274.926 296.98 274.309V272.434C297.527 272.785 298.207 273.062 299.02 273.266C299.832 273.461 300.633 273.559 301.422 273.559C302.797 273.559 303.863 273.234 304.621 272.586C305.387 271.938 305.77 271 305.77 269.773C305.77 267.383 304.305 266.188 301.375 266.188C300.633 266.188 299.641 266.301 298.398 266.527L297.391 265.883L298.035 257.867H306.555V259.66H299.699L299.266 264.805C300.164 264.625 301.059 264.535 301.949 264.535ZM313.504 275H311.512V257.867H321.062V259.637H313.504V265.906H320.605V267.676H313.504V275ZM328.082 264.535C329.887 264.535 331.305 264.984 332.336 265.883C333.375 266.773 333.895 267.996 333.895 269.551C333.895 271.324 333.328 272.715 332.195 273.723C331.07 274.73 329.516 275.234 327.531 275.234C325.602 275.234 324.129 274.926 323.113 274.309V272.434C323.66 272.785 324.34 273.062 325.152 273.266C325.965 273.461 326.766 273.559 327.555 273.559C328.93 273.559 329.996 273.234 330.754 272.586C331.52 271.938 331.902 271 331.902 269.773C331.902 267.383 330.438 266.188 327.508 266.188C326.766 266.188 325.773 266.301 324.531 266.527L323.523 265.883L324.168 257.867H332.688V259.66H325.832L325.398 264.805C326.297 264.625 327.191 264.535 328.082 264.535ZM351.32 266.27C351.32 269.098 350.551 271.262 349.012 272.762C347.48 274.254 345.273 275 342.391 275H337.645V257.867H342.895C345.559 257.867 347.629 258.605 349.105 260.082C350.582 261.559 351.32 263.621 351.32 266.27ZM349.211 266.34C349.211 264.105 348.648 262.422 347.523 261.289C346.406 260.156 344.742 259.59 342.531 259.59H339.637V273.277H342.062C344.438 273.277 346.223 272.695 347.418 271.531C348.613 270.359 349.211 268.629 349.211 266.34ZM359.324 264.535C361.129 264.535 362.547 264.984 363.578 265.883C364.617 266.773 365.137 267.996 365.137 269.551C365.137 271.324 364.57 272.715 363.438 273.723C362.312 274.73 360.758 275.234 358.773 275.234C356.844 275.234 355.371 274.926 354.355 274.309V272.434C354.902 272.785 355.582 273.062 356.395 273.266C357.207 273.461 358.008 273.559 358.797 273.559C360.172 273.559 361.238 273.234 361.996 272.586C362.762 271.938 363.145 271 363.145 269.773C363.145 267.383 361.68 266.188 358.75 266.188C358.008 266.188 357.016 266.301 355.773 266.527L354.766 265.883L355.41 257.867H363.93V259.66H357.074L356.641 264.805C357.539 264.625 358.434 264.535 359.324 264.535ZM368.887 257.867H373.727C376 257.867 377.645 258.207 378.66 258.887C379.676 259.566 380.184 260.641 380.184 262.109C380.184 263.125 379.898 263.965 379.328 264.629C378.766 265.285 377.941 265.711 376.855 265.906V266.023C379.457 266.469 380.758 267.836 380.758 270.125C380.758 271.656 380.238 272.852 379.199 273.711C378.168 274.57 376.723 275 374.863 275H368.887V257.867ZM370.879 265.203H374.16C375.566 265.203 376.578 264.984 377.195 264.547C377.812 264.102 378.121 263.355 378.121 262.309C378.121 261.348 377.777 260.656 377.09 260.234C376.402 259.805 375.309 259.59 373.809 259.59H370.879V265.203ZM370.879 266.891V273.301H374.453C375.836 273.301 376.875 273.035 377.57 272.504C378.273 271.965 378.625 271.125 378.625 269.984C378.625 268.922 378.266 268.141 377.547 267.641C376.836 267.141 375.75 266.891 374.289 266.891H370.879Z" fill="white"/>
<path d="M500.043 263.465L499.27 267.449H502.586V268.961H498.988L498.004 274H496.398L497.383 268.961H493.832L492.871 274H491.277L492.215 268.961H489.145V267.449H492.508L493.305 263.465H490.059V261.977H493.562L494.523 256.867H496.152L495.191 261.977H498.766L499.75 256.867H501.32L500.336 261.977H503.43V263.465H500.043ZM494.113 267.449H497.664L498.438 263.465H494.887L494.113 267.449ZM508.41 274H506.418V256.867H515.969V258.637H508.41V264.906H515.512V266.676H508.41V274ZM520.809 274H518.816V256.867H528.367V258.637H520.809V264.906H527.91V266.676H520.809V274ZM533.207 274H531.215V256.867H540.766V258.637H533.207V264.906H540.309V266.676H533.207V274ZM545.605 274H543.613V256.867H553.164V258.637H545.605V264.906H552.707V266.676H545.605V274ZM558.004 274H556.012V256.867H565.562V258.637H558.004V264.906H565.105V266.676H558.004V274ZM570.402 274H568.41V256.867H577.961V258.637H570.402V264.906H577.504V266.676H570.402V274Z" fill="black"/>
<rect x="245" y="47" width="172" height="121" fill="#FC5715"/>
<path d="M293.5 106.465L292.727 110.449H296.043V111.961H292.445L291.461 117H289.855L290.84 111.961H287.289L286.328 117H284.734L285.672 111.961H282.602V110.449H285.965L286.762 106.465H283.516V104.977H287.02L287.98 99.8672H289.609L288.648 104.977H292.223L293.207 99.8672H294.777L293.793 104.977H296.887V106.465H293.5ZM287.57 110.449H291.121L291.895 106.465H288.344L287.57 110.449ZM301.867 117H299.875V99.8672H309.426V101.637H301.867V107.906H308.969V109.676H301.867V117ZM319.609 101.402C317.727 101.402 316.238 102.031 315.145 103.289C314.059 104.539 313.516 106.254 313.516 108.434C313.516 110.676 314.039 112.41 315.086 113.637C316.141 114.855 317.641 115.465 319.586 115.465C320.781 115.465 322.145 115.25 323.676 114.82V116.566C322.488 117.012 321.023 117.234 319.281 117.234C316.758 117.234 314.809 116.469 313.434 114.938C312.066 113.406 311.383 111.23 311.383 108.41C311.383 106.645 311.711 105.098 312.367 103.77C313.031 102.441 313.984 101.418 315.227 100.699C316.477 99.9805 317.945 99.6211 319.633 99.6211C321.43 99.6211 323 99.9492 324.344 100.605L323.5 102.316C322.203 101.707 320.906 101.402 319.609 101.402ZM331.586 106.535C333.391 106.535 334.809 106.984 335.84 107.883C336.879 108.773 337.398 109.996 337.398 111.551C337.398 113.324 336.832 114.715 335.699 115.723C334.574 116.73 333.02 117.234 331.035 117.234C329.105 117.234 327.633 116.926 326.617 116.309V114.434C327.164 114.785 327.844 115.062 328.656 115.266C329.469 115.461 330.27 115.559 331.059 115.559C332.434 115.559 333.5 115.234 334.258 114.586C335.023 113.938 335.406 113 335.406 111.773C335.406 109.383 333.941 108.188 331.012 108.188C330.27 108.188 329.277 108.301 328.035 108.527L327.027 107.883L327.672 99.8672H336.191V101.66H329.336L328.902 106.805C329.801 106.625 330.695 106.535 331.586 106.535ZM342.133 117L349.234 101.66H339.895V99.8672H351.297V101.426L344.289 117H342.133ZM360.906 117H359.008V104.789C359.008 103.773 359.039 102.812 359.102 101.906C358.938 102.07 358.754 102.242 358.551 102.422C358.348 102.602 357.418 103.363 355.762 104.707L354.73 103.371L359.266 99.8672H360.906V117ZM372.789 106.535C374.594 106.535 376.012 106.984 377.043 107.883C378.082 108.773 378.602 109.996 378.602 111.551C378.602 113.324 378.035 114.715 376.902 115.723C375.777 116.73 374.223 117.234 372.238 117.234C370.309 117.234 368.836 116.926 367.82 116.309V114.434C368.367 114.785 369.047 115.062 369.859 115.266C370.672 115.461 371.473 115.559 372.262 115.559C373.637 115.559 374.703 115.234 375.461 114.586C376.227 113.938 376.609 113 376.609 111.773C376.609 109.383 375.145 108.188 372.215 108.188C371.473 108.188 370.48 108.301 369.238 108.527L368.23 107.883L368.875 99.8672H377.395V101.66H370.539L370.105 106.805C371.004 106.625 371.898 106.535 372.789 106.535Z" fill="white"/>
<rect x="36" y="361" width="172" height="121" fill="#263238"/>
<path d="M84.5352 421.465L83.7617 425.449H87.0781V426.961H83.4805L82.4961 432H80.8906L81.875 426.961H78.3242L77.3633 432H75.7695L76.707 426.961H73.6367V425.449H77L77.7969 421.465H74.5508V419.977H78.0547L79.0156 414.867H80.6445L79.6836 419.977H83.2578L84.2422 414.867H85.8125L84.8281 419.977H87.9219V421.465H84.5352ZM78.6055 425.449H82.1562L82.9297 421.465H79.3789L78.6055 425.449ZM100.988 432H89.7266V430.324L94.2383 425.789C95.6133 424.398 96.5195 423.406 96.957 422.812C97.3945 422.219 97.7227 421.641 97.9414 421.078C98.1602 420.516 98.2695 419.91 98.2695 419.262C98.2695 418.348 97.9922 417.625 97.4375 417.094C96.8828 416.555 96.1133 416.285 95.1289 416.285C94.418 416.285 93.7422 416.402 93.1016 416.637C92.4688 416.871 91.7617 417.297 90.9805 417.914L89.9492 416.59C91.5273 415.277 93.2461 414.621 95.1055 414.621C96.7148 414.621 97.9766 415.035 98.8906 415.863C99.8047 416.684 100.262 417.789 100.262 419.18C100.262 420.266 99.957 421.34 99.3477 422.402C98.7383 423.465 97.5977 424.809 95.9258 426.434L92.1758 430.102V430.195H100.988V432ZM103.66 424.676C103.66 421.309 104.312 418.793 105.617 417.129C106.93 415.457 108.867 414.621 111.43 414.621C112.312 414.621 113.008 414.695 113.516 414.844V416.52C112.914 416.324 112.227 416.227 111.453 416.227C109.617 416.227 108.215 416.801 107.246 417.949C106.277 419.09 105.746 420.887 105.652 423.34H105.793C106.652 421.996 108.012 421.324 109.871 421.324C111.41 421.324 112.621 421.789 113.504 422.719C114.395 423.648 114.84 424.91 114.84 426.504C114.84 428.285 114.352 429.688 113.375 430.711C112.406 431.727 111.094 432.234 109.438 432.234C107.664 432.234 106.258 431.57 105.219 430.242C104.18 428.906 103.66 427.051 103.66 424.676ZM109.414 430.582C110.523 430.582 111.383 430.234 111.992 429.539C112.609 428.836 112.918 427.824 112.918 426.504C112.918 425.371 112.633 424.48 112.062 423.832C111.492 423.184 110.641 422.859 109.508 422.859C108.805 422.859 108.16 423.004 107.574 423.293C106.988 423.582 106.52 423.98 106.168 424.488C105.824 424.996 105.652 425.523 105.652 426.07C105.652 426.875 105.809 427.625 106.121 428.32C106.434 429.016 106.875 429.566 107.445 429.973C108.023 430.379 108.68 430.582 109.414 430.582ZM127.812 418.898C127.812 419.992 127.504 420.887 126.887 421.582C126.277 422.277 125.41 422.742 124.285 422.977V423.07C125.66 423.242 126.68 423.68 127.344 424.383C128.008 425.086 128.34 426.008 128.34 427.148C128.34 428.781 127.773 430.039 126.641 430.922C125.508 431.797 123.898 432.234 121.812 432.234C120.906 432.234 120.074 432.164 119.316 432.023C118.566 431.891 117.836 431.652 117.125 431.309V429.457C117.867 429.824 118.656 430.105 119.492 430.301C120.336 430.488 121.133 430.582 121.883 430.582C124.844 430.582 126.324 429.422 126.324 427.102C126.324 425.023 124.691 423.984 121.426 423.984H119.738V422.309H121.449C122.785 422.309 123.844 422.016 124.625 421.43C125.406 420.836 125.797 420.016 125.797 418.969C125.797 418.133 125.508 417.477 124.93 417C124.359 416.523 123.582 416.285 122.598 416.285C121.848 416.285 121.141 416.387 120.477 416.59C119.812 416.793 119.055 417.168 118.203 417.715L117.219 416.402C117.922 415.848 118.73 415.414 119.645 415.102C120.566 414.781 121.535 414.621 122.551 414.621C124.215 414.621 125.508 415.004 126.43 415.77C127.352 416.527 127.812 417.57 127.812 418.898ZM142.191 432H130.93V430.324L135.441 425.789C136.816 424.398 137.723 423.406 138.16 422.812C138.598 422.219 138.926 421.641 139.145 421.078C139.363 420.516 139.473 419.91 139.473 419.262C139.473 418.348 139.195 417.625 138.641 417.094C138.086 416.555 137.316 416.285 136.332 416.285C135.621 416.285 134.945 416.402 134.305 416.637C133.672 416.871 132.965 417.297 132.184 417.914L131.152 416.59C132.73 415.277 134.449 414.621 136.309 414.621C137.918 414.621 139.18 415.035 140.094 415.863C141.008 416.684 141.465 417.789 141.465 419.18C141.465 420.266 141.16 421.34 140.551 422.402C139.941 423.465 138.801 424.809 137.129 426.434L133.379 430.102V430.195H142.191V432ZM155.281 418.898C155.281 419.992 154.973 420.887 154.355 421.582C153.746 422.277 152.879 422.742 151.754 422.977V423.07C153.129 423.242 154.148 423.68 154.812 424.383C155.477 425.086 155.809 426.008 155.809 427.148C155.809 428.781 155.242 430.039 154.109 430.922C152.977 431.797 151.367 432.234 149.281 432.234C148.375 432.234 147.543 432.164 146.785 432.023C146.035 431.891 145.305 431.652 144.594 431.309V429.457C145.336 429.824 146.125 430.105 146.961 430.301C147.805 430.488 148.602 430.582 149.352 430.582C152.312 430.582 153.793 429.422 153.793 427.102C153.793 425.023 152.16 423.984 148.895 423.984H147.207V422.309H148.918C150.254 422.309 151.312 422.016 152.094 421.43C152.875 420.836 153.266 420.016 153.266 418.969C153.266 418.133 152.977 417.477 152.398 417C151.828 416.523 151.051 416.285 150.066 416.285C149.316 416.285 148.609 416.387 147.945 416.59C147.281 416.793 146.523 417.168 145.672 417.715L144.688 416.402C145.391 415.848 146.199 415.414 147.113 415.102C148.035 414.781 149.004 414.621 150.02 414.621C151.684 414.621 152.977 415.004 153.898 415.77C154.82 416.527 155.281 417.57 155.281 418.898ZM164.07 414.621C165.633 414.621 166.871 414.984 167.785 415.711C168.699 416.438 169.156 417.441 169.156 418.723C169.156 419.566 168.895 420.336 168.371 421.031C167.848 421.727 167.012 422.359 165.863 422.93C167.254 423.594 168.242 424.293 168.828 425.027C169.414 425.754 169.707 426.598 169.707 427.559C169.707 428.98 169.211 430.117 168.219 430.969C167.227 431.812 165.867 432.234 164.141 432.234C162.312 432.234 160.906 431.836 159.922 431.039C158.938 430.234 158.445 429.098 158.445 427.629C158.445 425.668 159.641 424.141 162.031 423.047C160.953 422.438 160.18 421.781 159.711 421.078C159.242 420.367 159.008 419.574 159.008 418.699C159.008 417.457 159.465 416.469 160.379 415.734C161.301 414.992 162.531 414.621 164.07 414.621ZM160.367 427.676C160.367 428.613 160.691 429.344 161.34 429.867C161.996 430.391 162.914 430.652 164.094 430.652C165.258 430.652 166.164 430.379 166.812 429.832C167.461 429.285 167.785 428.535 167.785 427.582C167.785 426.824 167.48 426.152 166.871 425.566C166.262 424.973 165.199 424.398 163.684 423.844C162.52 424.344 161.676 424.898 161.152 425.508C160.629 426.109 160.367 426.832 160.367 427.676ZM164.047 416.203C163.07 416.203 162.305 416.438 161.75 416.906C161.195 417.375 160.918 418 160.918 418.781C160.918 419.5 161.148 420.117 161.609 420.633C162.07 421.148 162.922 421.664 164.164 422.18C165.281 421.711 166.07 421.207 166.531 420.668C167 420.129 167.234 419.5 167.234 418.781C167.234 417.992 166.949 417.367 166.379 416.906C165.816 416.438 165.039 416.203 164.047 416.203Z" fill="white"/>
<rect x="245" y="361" width="172" height="121" fill="#E3EAED"/>
<rect x="245" y="513" width="172" height="121" fill="#FF9500"/>
<rect x="447" y="513" width="172" height="121" fill="#A78D48"/>
<rect x="36" y="513" width="172" height="121" fill="#B07347"/>
<rect x="447" y="363" width="172" height="121" fill="#3B5998"/>
<path d="M495.121 421.465L494.348 425.449H497.664V426.961H494.066L493.082 432H491.477L492.461 426.961H488.91L487.949 432H486.355L487.293 426.961H484.223V425.449H487.586L488.383 421.465H485.137V419.977H488.641L489.602 414.867H491.23L490.27 419.977H493.844L494.828 414.867H496.398L495.414 419.977H498.508V421.465H495.121ZM489.191 425.449H492.742L493.516 421.465H489.965L489.191 425.449ZM510.93 418.898C510.93 419.992 510.621 420.887 510.004 421.582C509.395 422.277 508.527 422.742 507.402 422.977V423.07C508.777 423.242 509.797 423.68 510.461 424.383C511.125 425.086 511.457 426.008 511.457 427.148C511.457 428.781 510.891 430.039 509.758 430.922C508.625 431.797 507.016 432.234 504.93 432.234C504.023 432.234 503.191 432.164 502.434 432.023C501.684 431.891 500.953 431.652 500.242 431.309V429.457C500.984 429.824 501.773 430.105 502.609 430.301C503.453 430.488 504.25 430.582 505 430.582C507.961 430.582 509.441 429.422 509.441 427.102C509.441 425.023 507.809 423.984 504.543 423.984H502.855V422.309H504.566C505.902 422.309 506.961 422.016 507.742 421.43C508.523 420.836 508.914 420.016 508.914 418.969C508.914 418.133 508.625 417.477 508.047 417C507.477 416.523 506.699 416.285 505.715 416.285C504.965 416.285 504.258 416.387 503.594 416.59C502.93 416.793 502.172 417.168 501.32 417.715L500.336 416.402C501.039 415.848 501.848 415.414 502.762 415.102C503.684 414.781 504.652 414.621 505.668 414.621C507.332 414.621 508.625 415.004 509.547 415.77C510.469 416.527 510.93 417.57 510.93 418.898ZM515.23 414.867H520.07C522.344 414.867 523.988 415.207 525.004 415.887C526.02 416.566 526.527 417.641 526.527 419.109C526.527 420.125 526.242 420.965 525.672 421.629C525.109 422.285 524.285 422.711 523.199 422.906V423.023C525.801 423.469 527.102 424.836 527.102 427.125C527.102 428.656 526.582 429.852 525.543 430.711C524.512 431.57 523.066 432 521.207 432H515.23V414.867ZM517.223 422.203H520.504C521.91 422.203 522.922 421.984 523.539 421.547C524.156 421.102 524.465 420.355 524.465 419.309C524.465 418.348 524.121 417.656 523.434 417.234C522.746 416.805 521.652 416.59 520.152 416.59H517.223V422.203ZM517.223 423.891V430.301H520.797C522.18 430.301 523.219 430.035 523.914 429.504C524.617 428.965 524.969 428.125 524.969 426.984C524.969 425.922 524.609 425.141 523.891 424.641C523.18 424.141 522.094 423.891 520.633 423.891H517.223ZM534.965 421.535C536.77 421.535 538.188 421.984 539.219 422.883C540.258 423.773 540.777 424.996 540.777 426.551C540.777 428.324 540.211 429.715 539.078 430.723C537.953 431.73 536.398 432.234 534.414 432.234C532.484 432.234 531.012 431.926 529.996 431.309V429.434C530.543 429.785 531.223 430.062 532.035 430.266C532.848 430.461 533.648 430.559 534.438 430.559C535.812 430.559 536.879 430.234 537.637 429.586C538.402 428.938 538.785 428 538.785 426.773C538.785 424.383 537.32 423.188 534.391 423.188C533.648 423.188 532.656 423.301 531.414 423.527L530.406 422.883L531.051 414.867H539.57V416.66H532.715L532.281 421.805C533.18 421.625 534.074 421.535 534.965 421.535ZM554.605 422.18C554.605 428.883 552.012 432.234 546.824 432.234C545.918 432.234 545.199 432.156 544.668 432V430.324C545.293 430.527 546.004 430.629 546.801 430.629C548.676 430.629 550.09 430.051 551.043 428.895C552.004 427.73 552.527 425.949 552.613 423.551H552.473C552.043 424.199 551.473 424.695 550.762 425.039C550.051 425.375 549.25 425.543 548.359 425.543C546.844 425.543 545.641 425.09 544.75 424.184C543.859 423.277 543.414 422.012 543.414 420.387C543.414 418.605 543.91 417.199 544.902 416.168C545.902 415.137 547.215 414.621 548.84 414.621C550.004 414.621 551.02 414.922 551.887 415.523C552.762 416.117 553.434 416.988 553.902 418.137C554.371 419.277 554.605 420.625 554.605 422.18ZM548.84 416.285C547.723 416.285 546.859 416.645 546.25 417.363C545.641 418.082 545.336 419.082 545.336 420.363C545.336 421.488 545.617 422.375 546.18 423.023C546.742 423.664 547.598 423.984 548.746 423.984C549.457 423.984 550.109 423.84 550.703 423.551C551.305 423.262 551.777 422.867 552.121 422.367C552.465 421.867 552.637 421.344 552.637 420.797C552.637 419.977 552.477 419.219 552.156 418.523C551.836 417.828 551.387 417.281 550.809 416.883C550.238 416.484 549.582 416.285 548.84 416.285ZM568.34 422.18C568.34 428.883 565.746 432.234 560.559 432.234C559.652 432.234 558.934 432.156 558.402 432V430.324C559.027 430.527 559.738 430.629 560.535 430.629C562.41 430.629 563.824 430.051 564.777 428.895C565.738 427.73 566.262 425.949 566.348 423.551H566.207C565.777 424.199 565.207 424.695 564.496 425.039C563.785 425.375 562.984 425.543 562.094 425.543C560.578 425.543 559.375 425.09 558.484 424.184C557.594 423.277 557.148 422.012 557.148 420.387C557.148 418.605 557.645 417.199 558.637 416.168C559.637 415.137 560.949 414.621 562.574 414.621C563.738 414.621 564.754 414.922 565.621 415.523C566.496 416.117 567.168 416.988 567.637 418.137C568.105 419.277 568.34 420.625 568.34 422.18ZM562.574 416.285C561.457 416.285 560.594 416.645 559.984 417.363C559.375 418.082 559.07 419.082 559.07 420.363C559.07 421.488 559.352 422.375 559.914 423.023C560.477 423.664 561.332 423.984 562.48 423.984C563.191 423.984 563.844 423.84 564.438 423.551C565.039 423.262 565.512 422.867 565.855 422.367C566.199 421.867 566.371 421.344 566.371 420.797C566.371 419.977 566.211 419.219 565.891 418.523C565.57 417.828 565.121 417.281 564.543 416.883C563.973 416.484 563.316 416.285 562.574 416.285ZM576.484 414.621C578.047 414.621 579.285 414.984 580.199 415.711C581.113 416.438 581.57 417.441 581.57 418.723C581.57 419.566 581.309 420.336 580.785 421.031C580.262 421.727 579.426 422.359 578.277 422.93C579.668 423.594 580.656 424.293 581.242 425.027C581.828 425.754 582.121 426.598 582.121 427.559C582.121 428.98 581.625 430.117 580.633 430.969C579.641 431.812 578.281 432.234 576.555 432.234C574.727 432.234 573.32 431.836 572.336 431.039C571.352 430.234 570.859 429.098 570.859 427.629C570.859 425.668 572.055 424.141 574.445 423.047C573.367 422.438 572.594 421.781 572.125 421.078C571.656 420.367 571.422 419.574 571.422 418.699C571.422 417.457 571.879 416.469 572.793 415.734C573.715 414.992 574.945 414.621 576.484 414.621ZM572.781 427.676C572.781 428.613 573.105 429.344 573.754 429.867C574.41 430.391 575.328 430.652 576.508 430.652C577.672 430.652 578.578 430.379 579.227 429.832C579.875 429.285 580.199 428.535 580.199 427.582C580.199 426.824 579.895 426.152 579.285 425.566C578.676 424.973 577.613 424.398 576.098 423.844C574.934 424.344 574.09 424.898 573.566 425.508C573.043 426.109 572.781 426.832 572.781 427.676ZM576.461 416.203C575.484 416.203 574.719 416.438 574.164 416.906C573.609 417.375 573.332 418 573.332 418.781C573.332 419.5 573.562 420.117 574.023 420.633C574.484 421.148 575.336 421.664 576.578 422.18C577.695 421.711 578.484 421.207 578.945 420.668C579.414 420.129 579.648 419.5 579.648 418.781C579.648 417.992 579.363 417.367 578.793 416.906C578.23 416.438 577.453 416.203 576.461 416.203Z" fill="white"/>
<path d="M289.484 421.465L288.711 425.449H292.027V426.961H288.43L287.445 432H285.84L286.824 426.961H283.273L282.312 432H280.719L281.656 426.961H278.586V425.449H281.949L282.746 421.465H279.5V419.977H283.004L283.965 414.867H285.594L284.633 419.977H288.207L289.191 414.867H290.762L289.777 419.977H292.871V421.465H289.484ZM283.555 425.449H287.105L287.879 421.465H284.328L283.555 425.449ZM305.41 432H295.859V414.867H305.41V416.637H297.852V422.156H304.953V423.914H297.852V430.219H305.41V432ZM318.652 418.898C318.652 419.992 318.344 420.887 317.727 421.582C317.117 422.277 316.25 422.742 315.125 422.977V423.07C316.5 423.242 317.52 423.68 318.184 424.383C318.848 425.086 319.18 426.008 319.18 427.148C319.18 428.781 318.613 430.039 317.48 430.922C316.348 431.797 314.738 432.234 312.652 432.234C311.746 432.234 310.914 432.164 310.156 432.023C309.406 431.891 308.676 431.652 307.965 431.309V429.457C308.707 429.824 309.496 430.105 310.332 430.301C311.176 430.488 311.973 430.582 312.723 430.582C315.684 430.582 317.164 429.422 317.164 427.102C317.164 425.023 315.531 423.984 312.266 423.984H310.578V422.309H312.289C313.625 422.309 314.684 422.016 315.465 421.43C316.246 420.836 316.637 420.016 316.637 418.969C316.637 418.133 316.348 417.477 315.77 417C315.199 416.523 314.422 416.285 313.438 416.285C312.688 416.285 311.98 416.387 311.316 416.59C310.652 416.793 309.895 417.168 309.043 417.715L308.059 416.402C308.762 415.848 309.57 415.414 310.484 415.102C311.406 414.781 312.375 414.621 313.391 414.621C315.055 414.621 316.348 415.004 317.27 415.77C318.191 416.527 318.652 417.57 318.652 418.898ZM332.504 432H322.953V414.867H332.504V416.637H324.945V422.156H332.047V423.914H324.945V430.219H332.504V432ZM347.082 432L344.949 426.551H338.082L335.973 432H333.957L340.73 414.797H342.406L349.145 432H347.082ZM344.328 424.758L342.336 419.449C342.078 418.777 341.812 417.953 341.539 416.977C341.367 417.727 341.121 418.551 340.801 419.449L338.785 424.758H344.328ZM361.051 432H351.5V414.867H361.051V416.637H353.492V422.156H360.594V423.914H353.492V430.219H361.051V432ZM378.535 423.27C378.535 426.098 377.766 428.262 376.227 429.762C374.695 431.254 372.488 432 369.605 432H364.859V414.867H370.109C372.773 414.867 374.844 415.605 376.32 417.082C377.797 418.559 378.535 420.621 378.535 423.27ZM376.426 423.34C376.426 421.105 375.863 419.422 374.738 418.289C373.621 417.156 371.957 416.59 369.746 416.59H366.852V430.277H369.277C371.652 430.277 373.438 429.695 374.633 428.531C375.828 427.359 376.426 425.629 376.426 423.34Z" fill="black"/>
<path d="M83.6211 572.465L82.8477 576.449H86.1641V577.961H82.5664L81.582 583H79.9766L80.9609 577.961H77.4102L76.4492 583H74.8555L75.793 577.961H72.7227V576.449H76.0859L76.8828 572.465H73.6367V570.977H77.1406L78.1016 565.867H79.7305L78.7695 570.977H82.3438L83.3281 565.867H84.8984L83.9141 570.977H87.0078V572.465H83.6211ZM77.6914 576.449H81.2422L82.0156 572.465H78.4648L77.6914 576.449ZM89.9961 565.867H94.8359C97.1094 565.867 98.7539 566.207 99.7695 566.887C100.785 567.566 101.293 568.641 101.293 570.109C101.293 571.125 101.008 571.965 100.438 572.629C99.875 573.285 99.0508 573.711 97.9648 573.906V574.023C100.566 574.469 101.867 575.836 101.867 578.125C101.867 579.656 101.348 580.852 100.309 581.711C99.2773 582.57 97.832 583 95.9727 583H89.9961V565.867ZM91.9883 573.203H95.2695C96.6758 573.203 97.6875 572.984 98.3047 572.547C98.9219 572.102 99.2305 571.355 99.2305 570.309C99.2305 569.348 98.8867 568.656 98.1992 568.234C97.5117 567.805 96.418 567.59 94.918 567.59H91.9883V573.203ZM91.9883 574.891V581.301H95.5625C96.9453 581.301 97.9844 581.035 98.6797 580.504C99.3828 579.965 99.7344 579.125 99.7344 577.984C99.7344 576.922 99.375 576.141 98.6562 575.641C97.9453 575.141 96.8594 574.891 95.3984 574.891H91.9883ZM115.73 574.41C115.73 577.371 115.262 579.582 114.324 581.043C113.395 582.504 111.969 583.234 110.047 583.234C108.203 583.234 106.801 582.488 105.84 580.996C104.879 579.496 104.398 577.301 104.398 574.41C104.398 571.426 104.863 569.211 105.793 567.766C106.723 566.32 108.141 565.598 110.047 565.598C111.906 565.598 113.316 566.352 114.277 567.859C115.246 569.367 115.73 571.551 115.73 574.41ZM106.367 574.41C106.367 576.902 106.66 578.719 107.246 579.859C107.832 580.992 108.766 581.559 110.047 581.559C111.344 581.559 112.281 580.984 112.859 579.836C113.445 578.68 113.738 576.871 113.738 574.41C113.738 571.949 113.445 570.148 112.859 569.008C112.281 567.859 111.344 567.285 110.047 567.285C108.766 567.285 107.832 567.852 107.246 568.984C106.66 570.109 106.367 571.918 106.367 574.41ZM120.277 583L127.379 567.66H118.039V565.867H129.441V567.426L122.434 583H120.277ZM142.461 569.898C142.461 570.992 142.152 571.887 141.535 572.582C140.926 573.277 140.059 573.742 138.934 573.977V574.07C140.309 574.242 141.328 574.68 141.992 575.383C142.656 576.086 142.988 577.008 142.988 578.148C142.988 579.781 142.422 581.039 141.289 581.922C140.156 582.797 138.547 583.234 136.461 583.234C135.555 583.234 134.723 583.164 133.965 583.023C133.215 582.891 132.484 582.652 131.773 582.309V580.457C132.516 580.824 133.305 581.105 134.141 581.301C134.984 581.488 135.781 581.582 136.531 581.582C139.492 581.582 140.973 580.422 140.973 578.102C140.973 576.023 139.34 574.984 136.074 574.984H134.387V573.309H136.098C137.434 573.309 138.492 573.016 139.273 572.43C140.055 571.836 140.445 571.016 140.445 569.969C140.445 569.133 140.156 568.477 139.578 568C139.008 567.523 138.23 567.285 137.246 567.285C136.496 567.285 135.789 567.387 135.125 567.59C134.461 567.793 133.703 568.168 132.852 568.715L131.867 567.402C132.57 566.848 133.379 566.414 134.293 566.102C135.215 565.781 136.184 565.621 137.199 565.621C138.863 565.621 140.156 566.004 141.078 566.77C142 567.527 142.461 568.57 142.461 569.898ZM157.648 579.062H155.105V583H153.242V579.062H144.91V577.363L153.043 565.773H155.105V577.293H157.648V579.062ZM153.242 577.293V571.598C153.242 570.48 153.281 569.219 153.359 567.812H153.266C152.891 568.562 152.539 569.184 152.211 569.676L146.855 577.293H153.242ZM161.48 583L168.582 567.66H159.242V565.867H170.645V567.426L163.637 583H161.48Z" fill="white"/>
<path d="M493.422 572.465L492.648 576.449H495.965V577.961H492.367L491.383 583H489.777L490.762 577.961H487.211L486.25 583H484.656L485.594 577.961H482.523V576.449H485.887L486.684 572.465H483.438V570.977H486.941L487.902 565.867H489.531L488.57 570.977H492.145L493.129 565.867H494.699L493.715 570.977H496.809V572.465H493.422ZM487.492 576.449H491.043L491.816 572.465H488.266L487.492 576.449ZM510.566 583L508.434 577.551H501.566L499.457 583H497.441L504.215 565.797H505.891L512.629 583H510.566ZM507.812 575.758L505.82 570.449C505.562 569.777 505.297 568.953 505.023 567.977C504.852 568.727 504.605 569.551 504.285 570.449L502.27 575.758H507.812ZM515.969 583L523.07 567.66H513.73V565.867H525.133V567.426L518.125 583H515.969ZM533.207 565.621C534.77 565.621 536.008 565.984 536.922 566.711C537.836 567.438 538.293 568.441 538.293 569.723C538.293 570.566 538.031 571.336 537.508 572.031C536.984 572.727 536.148 573.359 535 573.93C536.391 574.594 537.379 575.293 537.965 576.027C538.551 576.754 538.844 577.598 538.844 578.559C538.844 579.98 538.348 581.117 537.355 581.969C536.363 582.812 535.004 583.234 533.277 583.234C531.449 583.234 530.043 582.836 529.059 582.039C528.074 581.234 527.582 580.098 527.582 578.629C527.582 576.668 528.777 575.141 531.168 574.047C530.09 573.438 529.316 572.781 528.848 572.078C528.379 571.367 528.145 570.574 528.145 569.699C528.145 568.457 528.602 567.469 529.516 566.734C530.438 565.992 531.668 565.621 533.207 565.621ZM529.504 578.676C529.504 579.613 529.828 580.344 530.477 580.867C531.133 581.391 532.051 581.652 533.23 581.652C534.395 581.652 535.301 581.379 535.949 580.832C536.598 580.285 536.922 579.535 536.922 578.582C536.922 577.824 536.617 577.152 536.008 576.566C535.398 575.973 534.336 575.398 532.82 574.844C531.656 575.344 530.812 575.898 530.289 576.508C529.766 577.109 529.504 577.832 529.504 578.676ZM533.184 567.203C532.207 567.203 531.441 567.438 530.887 567.906C530.332 568.375 530.055 569 530.055 569.781C530.055 570.5 530.285 571.117 530.746 571.633C531.207 572.148 532.059 572.664 533.301 573.18C534.418 572.711 535.207 572.207 535.668 571.668C536.137 571.129 536.371 570.5 536.371 569.781C536.371 568.992 536.086 568.367 535.516 567.906C534.953 567.438 534.176 567.203 533.184 567.203ZM556.129 574.27C556.129 577.098 555.359 579.262 553.82 580.762C552.289 582.254 550.082 583 547.199 583H542.453V565.867H547.703C550.367 565.867 552.438 566.605 553.914 568.082C555.391 569.559 556.129 571.621 556.129 574.27ZM554.02 574.34C554.02 572.105 553.457 570.422 552.332 569.289C551.215 568.156 549.551 567.59 547.34 567.59H544.445V581.277H546.871C549.246 581.277 551.031 580.695 552.227 579.531C553.422 578.359 554.02 576.629 554.02 574.34ZM570.848 579.062H568.305V583H566.441V579.062H558.109V577.363L566.242 565.773H568.305V577.293H570.848V579.062ZM566.441 577.293V571.598C566.441 570.48 566.48 569.219 566.559 567.812H566.465C566.09 568.562 565.738 569.184 565.41 569.676L560.055 577.293H566.441ZM578.184 565.621C579.746 565.621 580.984 565.984 581.898 566.711C582.812 567.438 583.27 568.441 583.27 569.723C583.27 570.566 583.008 571.336 582.484 572.031C581.961 572.727 581.125 573.359 579.977 573.93C581.367 574.594 582.355 575.293 582.941 576.027C583.527 576.754 583.82 577.598 583.82 578.559C583.82 579.98 583.324 581.117 582.332 581.969C581.34 582.812 579.98 583.234 578.254 583.234C576.426 583.234 575.02 582.836 574.035 582.039C573.051 581.234 572.559 580.098 572.559 578.629C572.559 576.668 573.754 575.141 576.145 574.047C575.066 573.438 574.293 572.781 573.824 572.078C573.355 571.367 573.121 570.574 573.121 569.699C573.121 568.457 573.578 567.469 574.492 566.734C575.414 565.992 576.645 565.621 578.184 565.621ZM574.48 578.676C574.48 579.613 574.805 580.344 575.453 580.867C576.109 581.391 577.027 581.652 578.207 581.652C579.371 581.652 580.277 581.379 580.926 580.832C581.574 580.285 581.898 579.535 581.898 578.582C581.898 577.824 581.594 577.152 580.984 576.566C580.375 575.973 579.312 575.398 577.797 574.844C576.633 575.344 575.789 575.898 575.266 576.508C574.742 577.109 574.48 577.832 574.48 578.676ZM578.16 567.203C577.184 567.203 576.418 567.438 575.863 567.906C575.309 568.375 575.031 569 575.031 569.781C575.031 570.5 575.262 571.117 575.723 571.633C576.184 572.148 577.035 572.664 578.277 573.18C579.395 572.711 580.184 572.207 580.645 571.668C581.113 571.129 581.348 570.5 581.348 569.781C581.348 568.992 581.062 568.367 580.492 567.906C579.93 567.438 579.152 567.203 578.16 567.203Z" fill="white"/>
<path d="M294.871 572.465L294.098 576.449H297.414V577.961H293.816L292.832 583H291.227L292.211 577.961H288.66L287.699 583H286.105L287.043 577.961H283.973V576.449H287.336L288.133 572.465H284.887V570.977H288.391L289.352 565.867H290.98L290.02 570.977H293.594L294.578 565.867H296.148L295.164 570.977H298.258V572.465H294.871ZM288.941 576.449H292.492L293.266 572.465H289.715L288.941 576.449ZM303.238 583H301.246V565.867H310.797V567.637H303.238V573.906H310.34V575.676H303.238V583ZM315.637 583H313.645V565.867H323.195V567.637H315.637V573.906H322.738V575.676H315.637V583ZM336.121 573.18C336.121 579.883 333.527 583.234 328.34 583.234C327.434 583.234 326.715 583.156 326.184 583V581.324C326.809 581.527 327.52 581.629 328.316 581.629C330.191 581.629 331.605 581.051 332.559 579.895C333.52 578.73 334.043 576.949 334.129 574.551H333.988C333.559 575.199 332.988 575.695 332.277 576.039C331.566 576.375 330.766 576.543 329.875 576.543C328.359 576.543 327.156 576.09 326.266 575.184C325.375 574.277 324.93 573.012 324.93 571.387C324.93 569.605 325.426 568.199 326.418 567.168C327.418 566.137 328.73 565.621 330.355 565.621C331.52 565.621 332.535 565.922 333.402 566.523C334.277 567.117 334.949 567.988 335.418 569.137C335.887 570.277 336.121 571.625 336.121 573.18ZM330.355 567.285C329.238 567.285 328.375 567.645 327.766 568.363C327.156 569.082 326.852 570.082 326.852 571.363C326.852 572.488 327.133 573.375 327.695 574.023C328.258 574.664 329.113 574.984 330.262 574.984C330.973 574.984 331.625 574.84 332.219 574.551C332.82 574.262 333.293 573.867 333.637 573.367C333.98 572.867 334.152 572.344 334.152 571.797C334.152 570.977 333.992 570.219 333.672 569.523C333.352 568.828 332.902 568.281 332.324 567.883C331.754 567.484 331.098 567.285 330.355 567.285ZM343.949 572.535C345.754 572.535 347.172 572.984 348.203 573.883C349.242 574.773 349.762 575.996 349.762 577.551C349.762 579.324 349.195 580.715 348.062 581.723C346.938 582.73 345.383 583.234 343.398 583.234C341.469 583.234 339.996 582.926 338.98 582.309V580.434C339.527 580.785 340.207 581.062 341.02 581.266C341.832 581.461 342.633 581.559 343.422 581.559C344.797 581.559 345.863 581.234 346.621 580.586C347.387 579.938 347.77 579 347.77 577.773C347.77 575.383 346.305 574.188 343.375 574.188C342.633 574.188 341.641 574.301 340.398 574.527L339.391 573.883L340.035 565.867H348.555V567.66H341.699L341.266 572.805C342.164 572.625 343.059 572.535 343.949 572.535ZM363.684 574.41C363.684 577.371 363.215 579.582 362.277 581.043C361.348 582.504 359.922 583.234 358 583.234C356.156 583.234 354.754 582.488 353.793 580.996C352.832 579.496 352.352 577.301 352.352 574.41C352.352 571.426 352.816 569.211 353.746 567.766C354.676 566.32 356.094 565.598 358 565.598C359.859 565.598 361.27 566.352 362.23 567.859C363.199 569.367 363.684 571.551 363.684 574.41ZM354.32 574.41C354.32 576.902 354.613 578.719 355.199 579.859C355.785 580.992 356.719 581.559 358 581.559C359.297 581.559 360.234 580.984 360.812 579.836C361.398 578.68 361.691 576.871 361.691 574.41C361.691 571.949 361.398 570.148 360.812 569.008C360.234 567.859 359.297 567.285 358 567.285C356.719 567.285 355.785 567.852 355.199 568.984C354.613 570.109 354.32 571.918 354.32 574.41ZM377.418 574.41C377.418 577.371 376.949 579.582 376.012 581.043C375.082 582.504 373.656 583.234 371.734 583.234C369.891 583.234 368.488 582.488 367.527 580.996C366.566 579.496 366.086 577.301 366.086 574.41C366.086 571.426 366.551 569.211 367.48 567.766C368.41 566.32 369.828 565.598 371.734 565.598C373.594 565.598 375.004 566.352 375.965 567.859C376.934 569.367 377.418 571.551 377.418 574.41ZM368.055 574.41C368.055 576.902 368.348 578.719 368.934 579.859C369.52 580.992 370.453 581.559 371.734 581.559C373.031 581.559 373.969 580.984 374.547 579.836C375.133 578.68 375.426 576.871 375.426 574.41C375.426 571.949 375.133 570.148 374.547 569.008C373.969 567.859 373.031 567.285 371.734 567.285C370.453 567.285 369.52 567.852 368.934 568.984C368.348 570.109 368.055 571.918 368.055 574.41Z" fill="white"/>
</svg>
